/* XPM */
static char *xpm_[] = {
/* columns rows colors chars-per-pixel */
"70 70 225 2 ",
"   c #01060F",
".  c #010A0D",
"X  c #00180A",
"o  c #010C13",
"O  c #020B17",
"+  c #081417",
"@  c #02141D",
"#  c #031A1D",
"$  c #11191F",
"%  c #23090D",
"&  c #2C261B",
"*  c #3A281A",
"=  c #011522",
"-  c #071627",
";  c #021C24",
":  c #021C2B",
">  c #06242A",
",  c #03232C",
"<  c #17262A",
"1  c #1B2A2D",
"2  c #032433",
"3  c #0B2434",
"4  c #042A33",
"5  c #0A2A35",
"6  c #032E3C",
"7  c #132B33",
"8  c #132838",
"9  c #03313C",
"0  c #09383F",
"q  c #1A363A",
"w  c #2A2B29",
"e  c #342D2D",
"r  c #3B312B",
"t  c #262E32",
"y  c #2B3638",
"u  c #323536",
"i  c #5A0307",
"p  c #590A04",
"a  c #571618",
"s  c #770203",
"d  c #7B0103",
"f  c #681605",
"g  c #730E14",
"h  c #4A230F",
"j  c #482517",
"k  c #522718",
"l  c #48341C",
"z  c #583619",
"x  c #6A2C0E",
"c  c #7B260B",
"v  c #692B17",
"b  c #772C15",
"n  c #683919",
"m  c #783512",
"M  c #5D192E",
"N  c #5B1936",
"B  c #711422",
"V  c #44282B",
"C  c #55392A",
"Z  c #4F2C32",
"A  c #72282F",
"S  c #663926",
"D  c #6A3D23",
"F  c #364B1F",
"G  c #364A22",
"H  c #3B4D25",
"J  c #3C4E29",
"K  c #3E5226",
"L  c #3E5229",
"P  c #3F582B",
"I  c #3E443C",
"U  c #7A4B10",
"Y  c #5A462F",
"T  c #405427",
"R  c #435926",
"E  c #42552B",
"W  c #455A2C",
"Q  c #495D2E",
"!  c #41493F",
"~  c #584735",
"^  c #435631",
"/  c #465B31",
"(  c #4A5E31",
")  c #694428",
"_  c #744426",
"`  c #694C36",
"'  c #785735",
"]  c #47622D",
"[  c #4B612E",
"{  c #50692F",
"}  c #4A6333",
"|  c #4D6333",
" . c #4E6535",
".. c #4E6934",
"X. c #4F6438",
"o. c #516635",
"O. c #516636",
"+. c #536A35",
"@. c #526936",
"#. c #556D36",
"$. c #586E36",
"%. c #516638",
"&. c #546B39",
"*. c #586E3A",
"=. c #597136",
"-. c #577139",
";. c #5B733B",
":. c #5A7639",
">. c #627A3C",
",. c #022543",
"<. c #023441",
"1. c #0D3641",
"2. c #033A43",
"3. c #013D49",
"4. c #702B43",
"5. c #054143",
"6. c #0A5760",
"7. c #556642",
"8. c #566945",
"9. c #5A6C45",
"0. c #5C6E49",
"q. c #5D7343",
"w. c #5D7048",
"e. c #607743",
"r. c #617941",
"t. c #62764B",
"y. c #667A4D",
"u. c #677A51",
"i. c #8A030C",
"p. c #830610",
"a. c #8E0510",
"s. c #860813",
"d. c #8E0D13",
"f. c #9C121A",
"g. c #A90717",
"h. c #A50A1A",
"j. c #882A07",
"k. c #9C3D06",
"l. c #8D2D13",
"z. c #853412",
"x. c #A93C08",
"c. c #B12B15",
"v. c #801822",
"b. c #991C29",
"n. c #B31729",
"m. c #B3162A",
"M. c #8C2A34",
"N. c #943031",
"B. c #A62736",
"V. c #B9273B",
"C. c #C31D3B",
"Z. c #8C4B0C",
"A. c #924A0F",
"S. c #924C18",
"D. c #AE4E0B",
"F. c #B64A05",
"G. c #BE5707",
"H. c #A84711",
"J. c #A15914",
"K. c #9C6F1C",
"L. c #BA6F10",
"P. c #844E26",
"I. c #8D5325",
"U. c #865F25",
"Y. c #9A5925",
"T. c #9E5F34",
"R. c #A75726",
"E. c #9D6627",
"W. c #94702B",
"Q. c #976936",
"!. c #AA6727",
"~. c #B16B2A",
"^. c #BA722B",
"/. c #A86532",
"(. c #B46B34",
"). c #AC7C30",
"_. c #B87639",
"`. c #C55709",
"'. c #C85B14",
"]. c #CE650D",
"[. c #D4690C",
"{. c #CB7509",
"}. c #DD790B",
"|. c #D36617",
" X c #DC7416",
".X c #C1722E",
"XX c #C77833",
"oX c #E27B22",
"OX c #983A4A",
"+X c #BF2D44",
"@X c #AC3848",
"#X c #C23149",
"$X c #9C6343",
"%X c #BE7942",
"&X c #C17B45",
"*X c #6D8250",
"=X c #AF841E",
"-X c #B3862B",
";X c #BA8834",
":X c #CC800F",
">X c #D5840A",
",X c #D89406",
"<X c #DB930D",
"1X c #E89E18",
"2X c #EAA517",
"3X c #EDA51D",
"4X c #F0AB1F",
"5X c #DA9325",
"6X c #C88A33",
"7X c #E88521",
"8X c #EE9C23",
"9X c #F19325",
"0X c #F3A824",
"qX c #F5B028",
"wX c #D98844",
"eX c #CE924E",
"rX c #E19A43",
"tX c #E59C59",
"yX c #DBA344",
"uX c #E0AC49",
"iX c #E3B249",
"pX c #EBB257",
"aX c #EBB258",
"sX c #D39F65",
"dX c #BA7985",
/* pixels */
"J ^ W W @...@.#.+.#.W E E / } ( H H H T E J o.( %.%.%.&.( ( Q ;.>.r.[ } Q / ( / W W W ] / ( R P P E R W o.&.&.@.@.{ W E R W W W ( X.%.E E E ",
"K W W W %.@.@.&.&.-.R E P / ( ( F r H T E T ( ( o.o.o.&.} | Q ;.>.q.| W W ( ] / W W W / W W K F F W W W @.+.+.#.+.*.Q E L / / / J G G E H E ",
"/ W W ] (  .| X...} [ W W ( / / H H H E E T ( o.o.o.o.&.W W W t.q.e.} Q ( W / W W W W Q / ] K K G W W W @.+.@.@.$.+.W R E ( Q Q J J J L E E ",
" ./ / / L E J J P P #.;.*.E E E H H E ^ E T %.%.o.+.%.o.W W W E OXR W ( [ ..%.%.Q W W W W W W } } / W W Q [ Q ( | Q [ R W W Q Q J J J J E E ",
"..W W / L L E ^ E P ;.=.;.T E E T T T E W R %.o.&.o.o.o.R E R A M.J ( W [ @.%.%.E W E E E W %.%.../ Q W P P J E E E #.$.*.E ^ ^ T T l ^ ~ E ",
"| [ [ W E ^ E E E W -.=.@.K E E T T T E W Q o.+.o.o.o.o.W ^ ^ B M.H ] Q W %.&.&.E ^ W W W E %.7.%.W W Q L E E ^ E E #.;.*.E E E T T J E W R ",
"W %... .( ( / E H E &.@.@.L J L o.| %.( Q Q %.$.+.[ ( Q E E R a N.Z W W W %.o.%.E T E E E E ( ( } } Q } T E E E E L &.$.*.T E E E T T E E R ",
"E %.%.@./ / ^ E L E @.@.@.L L L o.+.%.( ( ( %.$.+./ E Q E E E i M.A T W E | ( ( H H J J T J E E R %.%.%.( / ( E L L @.+.@.T E E | o.o.o.( Q ",
"/ %.@. ./ / ^ L L / &.&.} J L R o.o.+.( ( +.+.%.o.W } W E E W s v.@X^ R T } Q | F G T H J H E J E %.%.&.( ( / E E L o.+.+.T T T o.o.o.( Q ( ",
"W W R W E E E / / / / ] R J J R @.@.o.W W / Q Q ] -.;.&.E E k s s.@X/ / } | o.| T E T T T T T T K %.%.&.( ^ / E E K o.+.+.K E L [ o.$.Q ( [ ",
"W ] W R E L W W / W W W E G K L &.%.o.Q W W T E R >.>.:.P E a s g B.@.@.@.| | | [ [ ( @.#.*.W / / W W W ^ ^ E E E W Q [ Q H G H o.+.+.( Q Q ",
"W W R E ^ L E W W W W W E F F L %.&.o.W W W E E ( >.>.;.R E p i.p.B.@.V @.| %. .@.o.o.$.;.*.W / / R E E ^ E T Y W W W W W J H G o.o.$.W Q Q ",
"| #.@.| W / / | [ [ | | W K K T ( ( ( E E E E E ( -.;.+.E i.g.i.s.b.h.a.a o.} | [ o.{ $.&.&.R / / W W R E E E Q Q Q W W W H H F o.%.%.Q W W ",
"| =.#.| W W } | | +.+.+.} K E T T H E E E J J G L E R W V B g.m.s.v.h.C.g T E R +.+.( T T E E E W +.+.&.E W ^ ( [ [ | | } H H H / Q ( W E W ",
"@.=.=.[ W W [ | [ +.@.@.Q L E E T H E E ^ E G G E ^ W Q s s.s.a.d i h.C.s s P R o.o.o.T H L E E R ;.;.&./ W W | [ { o.o.o.T E E H E L K W W ",
"[ o.[ [ Q } Q Q } o.| [ Q T E E T H E E E L J G L / E s d s.a.a.a.p.a.C.a.a.s T o.o.( T T J E L W &.;.-.W / / | { [ o.o.o.R T E L H H R E E ",
"W W W ( | | ^ T L / ( } W W E E E W | o.o.W K K T E ^ s.s.i.s.s.i m.a.a.a.a.d } L R J J T T Q W Q | } [ ( ( ( ^ W Q o.o.( E E E T T T W W W ",
"Q W W ( | ( E T L / Q Q W R W E R T ( o.o.E H T E ^ d C.C.a.C.i i V.a.a.C.a.a.( H H H J H T ( Q ( W W W | | o.T T T Q | ( W Q E E T R o.o.o.",
"E E ^ / / / E T E Q ( ( W W W W T E o.o.o.W H L E ^ s.C.C.i i C.s c.dXa.C.a.a.W G G r T H T Q o.} W R Q | | ( T E T ^ ( Q R W E T E E +.@.o.",
"T T T E T T %.&.@.[ Q W W [ W W E E R T T | *.$.( E s C.a.a.C.i s d B.a.a.a.i | P P ^ E E E W Q W R W W ( ( ( E T E ( Q Q E Q Q W E E %.o.o.",
"T E H H T G o.| &.W W W Q Q W W W E H H H | ;.;.o.E i i a.a.f.a.s s m.i.a.i i [ W W / / ^ Q Q W W L H H J H T +.o.o.W / Q Q Q W W W E E H H ",
"J L K T G T o.&.%.W W / W ( Q W E E J T H *.;.*.} E W W i p v.p f j.b.4.s s s o.} ( ( E E W ~ W ^ L J T L H L @.+.@.Q W Q Q Q W W E E H r T ",
"/ / W [ o.o.W Q ( T T T ( ( ( | o.( T G F o.&.&.Q W Q W R M i f f a.a.M N Z @.[ | | } E E W Q W E E H T H L T &.$.%.W E W Q Q W E W E H J T ",
"( [ Q o.+.%.E W W H H T | ( ( | %.%.T G G | o.o.} Q Q Q Q p f.s d.g m.b % K L | ;.q.%.E E W ( ( | ( ( ( o.o. .W Q ^ T T T ( | ( o.( ( H H J ",
"/ } Q @.@. .Q W W K L H | ( o.o.%.7.G J F ( o.o.[ Q Q Q / ( f.s.s s.V.Z.r L K o.;.:.@.E E E | | Q o.( ( o.+.o.W W W T G T ( ( ( %.( %.r G T ",
"E R W  .| | E E R W E E Q [ | ( / ( J H T ( [ o.Q W Q Q ( ( V.s.s.s.#Xv W E L o.;.-.| E E W | o.| ( ( | @.@. .W ^ E T T T ^ ( o.%.%.o.T H G ",
"E T E Q | Q R E R | } [ [ Q ( L ^ E E E ^ ^ W ^ / E W >.>.>.b.p.s.c.#Xv { ..o.| [ [ | #.=.{ Q Q Q E W W | o.} E ^ W W E W | ( ( ^ ( / T T H ",
"H L T } } / P K R } } | Q ( ] L J L L T ^ W ^ ^ ^ E W ;.e.>.j.C.C.C.V.N...@.@.} W [ o.#.&.o.{ Q W E E E | } } E E E o.( | ( | Q E T E E T T ",
"( Q ] [ | | W W W  .} | W ( } P E L P E ^ E E ^ W W R q.r.e.Z.V.2XJ.v.v ..@.%. ./ } o.&.#.| | | W E E E } Q Q R E W | | ( Q Q W E E ^ ^ E E ",
"q.;.;.;.;.#.| Q | @.}  .K J G -.#.%.P E E J J T ( |  .} | [ L.1X4XL.j.z R W E W R R W ( ( } | } | Q Q | o.o.[ W W W | | o./ Q W E E T E E E ",
"-.-.-.-.-.#.} | | #...] F J G &.&...P E ^ H H T | | | W Q z <X2X4X,XD.n T F H K K L R K K W W [  .-.;.*.$.;.*.| | | &.o.o.F T T *.*.o.^ ^ E ",
"q.-.;.-.=.#.| |  .@.[ [ G K G #.&.@.R W E T H T | |  .W Q Z.,X2X4X2X3XL.K J F K E L L K K W } [ ..;.-.;.;.;.#.[ |  .o.%.o.F r T &.&.o.^ E E ",
"W R { $.$.Q E E R W ( [ | | } K E E ( Q W E L E Q } } W ;X,X<X5XqXqX<X<XK F F K T T T T T W Q [ +.=.-.-.;.;.#.| | @...%.X.G H K &.#.&./ ^ E ",
"W E [ @.o.+.E E R W / Q o.o. .E E ^ ( ( W E E E [ Q Q W.:X>X1X0X4X4X3X>X>XE.~ W Q E ~ o.o.o.o.+.[ W R | +.+.@.R R W W / W %. .| T R R / / W ",
"R W | o.$.W E E W W W } o.@.@.L E E / Q / E E E W [ X.U {.>X3X3X0X0X8X}.{.A.Q W R R Q o.| +.+.+.W W W  .&.@. .E R W W W W +.@.} T T T ( ( ( ",
"E W o.o.$.Q W W W W W W W / ( W W W Q Q Q E E E [ Q } G.{.}.7X}.8X9X7X}.G.`.D W W R ( o.[ @.+.o.W W W | %.@. .R E / W W [ ......T T E Q | Q ",
"W W %.@.@.} W Q W Q [ K J J Q @.&. .W W R E E W ] ( z.F.F.[. X[.7XoX[.].`.'.x.^ | ( ( ( [ W E ^ W E W  .&.@. .W W W Q W W R [ W W W Q Q Q W ",
"W W o.@.%.( Q ^ W Q [ T T T Q @.&.| W W W R R W | b l.G.F.`. X].oX X].'.G.H.l.c.o.( | ( ( E E E E W W  .#.@. .W ^ W Q Q W K K W &.+.+.W Q Q ",
"W W  .| ( / ^ E / W Q E E E [ @.+.| W W W T E E V j.j c k.|.`.`.|.'.`.F.x.x h j.b ( ( Q ( R T T W W W X.&.&.X./ / Q Q Q T T K W $.+.$.R E W ",
"/ Q L L H T T T E E E Q ( W @.#.&.o.} } Q E T T j j y C k.x.x.x.`.H.D.H.m V 1.$ Q Q Y Q Q ( [ | W ( W ( X.%./ E E W T W W R K ] +.$.+.Q Y W ",
"} W L L L J J J L E L / ( ( @.#.*.o.( } W K T R e < 0 C R.v m j.k.z j.z.D 1 6., W W E T K $.;.;. ./ / E K K K J J T T T T ( Q o.&.$.o.( ( Q ",
"} ( E L L J J L J P E ^ ( ( @.@.&.o.| Q ( E E L T 7 6 > n w & A.k & l n e 0 6.2 1 ^ E T H =.$.;.} ( X.P L K J K J T T T E ( Q { &.$.+.| ( Q ",
"&.&.&.&.%.| |  .R ^ E / ( Q W W W E P T E E E W E 8 ; 2 $ > 1 x & 7 < C t 4 2.2 8 ^ E T T @.*.*.| } ( R K P E L J E T T Q Q E o.*.&.o.( ( ( ",
"@.+.+.#.#.+.|  .E P E / Q Q R W E E G H E W W W ( 3 ; 2 > 3 0 ; * q 4 < 5 2 2 2 8 E ^ W W W R R { @.#.#.@.&.%...o.E E E W Q Q W E E R T R W ",
"+.+.#.@.#.{  .| W E ^ / Q W E E E H T H R Q W ( ( 3 @ = 4 9 9 , 4 9 0 4 , ; : ,.8 E / / / W W R o.+.+.+.#.-.@.| o.Q E E / ( ( W T T T T T T ",
"R Q o. .| [ Q W L E P ( } | Q W ^ T T E E Q W W / 3 = = > , 5.0 4 5.0 , ; ; - ,.3 ^ / / W W W W | @.+.+.&.&.@...o.Q E E / ( Q Q E E T T H T ",
"T T | | } T K E J J E ( ( | o.$.o./ Q E W Q W E E 3 - o # > , , > > ; ; ; @ o : , H E E E / W ( ^ E W @.%.X./ / Q W T T / ( ( Q Q W W T T T ",
"R K [ | [ T E E E J E ( o.( $.$.&.( Q Q Q Q Q E L < O # o @ ; , > > ; # ; @ : @ - L E W W / / / T E E ( o.| E T T E T T W ( o.o.+.+.o.Q ^ ^ ",
"K P [ @.( T T E E E E ~ W ( =.#.#.( W W W W Q T E e 3 - O o @ @ ; # @ @ O = 6 2 < L E R W W W } T J E ^ | [ R R L E J J ^ ( %.o.$.+.+.Q Q Q ",
"P W =.=.$.( | W E E E E E E ;.;.;.T E E W Q Q E T T 2.- @ @ o . . . . O = = 3.3.7 H E P R [ ] [ T E T ( o.| R T L L E T W ( ( o.{ #.o.W Q W ",
"T ] =.#.+.Q Q Q E T T E T W ;.;.e.E H T Q ( / E L H <.6 - = : o X   O = = 2 3.3.^ ^ | W ] :.>.:.T E E %.$.*.| [ ( E E E E T E @.;.=.&.T T E ",
"R W =.$.+.[ Q Q E T E E T W q.;.-.T H T W ( / E L H <.2., = = $ X     = : 2.3.2.^ E } ] [ :.:.;.T E E &.$.*.[ [ / W ^ E E T T @.;.;.;.T T T ",
"W [ +.{ +.+.+.| E P R / Q W W W / E H H } [ [ W R W 6 2.9 = @ t # O o @ 4 <.3.<.W W ( ( ] q.q.;.E E T $.*.*.Q Q Q W E E T R T o.;.;.@.H L T ",
"W | +.@.{ +.+.o.E R W W W } F H G E E E | | | @.o.@.3 <.2.9 ; t w w + @ 9 <.<.6 W W Q Q / P K P Q E E o.&.@.{ +.{ R T E E Q Q Q ( ( T E T E ",
"W | #.#.$.$.$.| L L W Q Q W G G J J E L | %.| @.+.o.t 9 <.2.: ;.[ Q [ ; 2.9 9 4 W W W W / J J H W W W $.+.+.{ $.$.Q E R ^ ( / E G G J T T E ",
"W Q } | { +.o.[ W W } W W E H H J J E E X.|  .@.+.o.Q , 6 2.5 r.| Q ] $ <.9 6 W W W W / / H G L E Q W o.+.+.$.$.$.R E E / ( ( T H H H E T E ",
"W T T L K E R [ ;.+. .K R L L H L R W W X.%.o.@.o. .W t y ! 1 P W [ Q t y ! < T W W W / ^ ] ] W W W E ( [ ( ( ( | Q E E ( ( ( T r H J E T E ",
"W T L E R E E } q.-.} E P E K L K W W W o.@.@.@.%.%.W e Q._.w G W W W u ` _.C W E E E W W %.%...Q Q / E E E ^ E E o.*.;.W E E T H T T E E / ",
"( T E T E E P  .-.;.[ L L L K K K W W W o.@.@. .&.%.E e (.~.J J / } (  .S XX` W E E W W W ..%.} Q W / T E E E E ^ &.*.-.^ E E T T H E W W Q ",
"o.Q ( ^ E L K %.@.&.] P P W } [ ( Q W ( @.#.@.( | } E r &X(.R / W W W  .&.&X' E E E P ^ ^ ....} Q Q / T E ^ E E E &.*.$.E E E T T K E W E | ",
"&./ ( Q E L L  .+.#.W E L W o.X.| [ Q } +.+.#.W W W E ~ eX_...%.R L E ( | wX' T J H H K L L K R +.o.o.W W ^ T E T +.$.@.E E T ( | ( ( / ( | ",
"%./ ( Q L L L  .+.+.W L L W %.%.o.[ [ } +.+.&.Q ( W P ` pX_.%.%.E P E / ( rXT.T J J J G H T L T o.+.o.Q ^ ( E E T +.+.@.E E T ( o.%.o.( ( | ",
"( ^ E ^ W E W  .@. .W E J ( #.@.{ W W [ -.&.+.] ] } K ' aX_.&.@.T E E } } rXeXG J K H H H E E W +.@.o.Q W W T T T ( o.%.E T T ( +.o.} ( (  .",
"~ E E E ^ W W W W W H G H ( @.@.| W W R T W [ :.>.;.K ' pX;XW T o.@. .| | yXyX/ W |  .o.} R E W [ [ ( R E E E E / ( o.o.T T E ( @.+.} [ / | ",
"E T T E W / W W W W H H H ( &.+.| W W W J P ] q.>.:.P W.aX-XP R &.@.&.@.} uXqX} ] @.;.;.| W W ] R W ^ P P E W E W W W / G J T Q o.@.} W W E ",
"Q T T E W W W Q Q Q H H J ( +.o.Q W W W P I ] w.>.q.~ yXiXK.K R %.%.%.| l yXuXU.} ..;.#.} R W W W W W E L E W Q Q W / / J J G | @.&.} / / W ",
"&.( Q W Q o.@.@.o.o.E E E E T T E W / R &X%XR.(.;X(._.sX;X=XW.$X` X.' Q.).eXeX6X~.(.Q.(. .W E W R R R K E E Q E W W W W G T G Q +.o.| / / ^ ",
"*.E Q | o.o.( @.+.+.E E E J H H R %XtX(.XXrX.X.XXX^./.Y.J.K.6XrXE.X.XX6X.XY.!.!.^.^.!.wXwXS.wXtXeXo.&.W Q ( o.o.| o.@.o.E E ^ T E T T E W L ",
"+.Q Q ( | | | @.+.o.T R E J H T E ) Q.Y.I.P.D D _ ) P.I.z C _ _ C X.} _ ) Y.P.D D D D P.I.I.R.!._ ;.$.W W Q ( o.o.o.o.o.R E E L T H E E E L ",
"t.w.t.w.0.w.w.t.t.t.9.9.9.8.8.7.0.0.0.8.7.%.7.0.9.w.u.y.u.w.0.9.t.t.t.8.8.8.t.y.y.9.7.7.8.9.7.t.*Xu.u.0.0.t.t.t.y.y.y.y.8.8.9.7.7.7.9.0.9.7."
};
