/* XPM */
static char *xpm_[] = {
/* columns rows colors chars-per-pixel */
"67 70 218 2 ",
"   c #01060F",
".  c #010A0D",
"X  c #00180A",
"o  c #010C13",
"O  c #020B17",
"+  c #081417",
"@  c #02141D",
"#  c #031A1D",
"$  c #11191F",
"%  c #23090D",
"&  c #33271B",
"*  c #011522",
"=  c #071627",
"-  c #021C24",
";  c #021C2B",
":  c #06242A",
">  c #03232C",
",  c #17262A",
"<  c #1B2A2D",
"1  c #032433",
"2  c #0B2434",
"3  c #042A33",
"4  c #0A2A35",
"5  c #032E3C",
"6  c #132B33",
"7  c #132838",
"8  c #03313C",
"9  c #09383F",
"0  c #1A363A",
"q  c #2A2B29",
"w  c #3E2527",
"e  c #342D2D",
"r  c #3B312B",
"t  c #262E32",
"y  c #2B3638",
"u  c #5A0307",
"i  c #590A04",
"p  c #571618",
"a  c #770203",
"s  c #7B0103",
"d  c #681605",
"f  c #730E14",
"g  c #492414",
"h  c #522718",
"j  c #48341C",
"k  c #583619",
"l  c #6A2C0E",
"z  c #7B260B",
"x  c #692B17",
"c  c #772C15",
"v  c #683919",
"b  c #783512",
"n  c #5D192E",
"m  c #5B1936",
"M  c #711422",
"N  c #542628",
"B  c #55392A",
"V  c #492D32",
"C  c #72282F",
"Z  c #663926",
"A  c #6A3D23",
"S  c #3D541D",
"D  c #3E5222",
"F  c #3E443C",
"G  c #7A4B10",
"H  c #5A462F",
"J  c #415426",
"K  c #445B26",
"L  c #435729",
"P  c #465C2B",
"I  c #495E2D",
"U  c #41493F",
"Y  c #584735",
"T  c #495D31",
"R  c #694428",
"E  c #744426",
"W  c #694C36",
"Q  c #785735",
"!  c #47602A",
"~  c #4B632D",
"^  c #4F692E",
"/  c #516A2F",
"(  c #54702F",
")  c #4E6631",
"_  c #4F6831",
"`  c #506731",
"'  c #526B33",
"]  c #566F39",
"[  c #567135",
"{  c #597436",
"}  c #5C7937",
"|  c #577138",
" . c #5A7439",
".. c #5A7539",
"X. c #5E7A39",
"o. c #5E7B3A",
"O. c #5F7C3A",
"+. c #617E3A",
"@. c #617E3C",
"#. c #617E3D",
"$. c #627F3C",
"%. c #022543",
"&. c #023441",
"*. c #0D3641",
"=. c #033A43",
"-. c #013D49",
";. c #702B43",
":. c #054143",
">. c #0A5760",
",. c #5F7940",
"<. c #7A6049",
"1. c #637E40",
"2. c #8A030C",
"3. c #830610",
"4. c #8E0510",
"5. c #860813",
"6. c #9C121A",
"7. c #A90717",
"8. c #A50A1A",
"9. c #882A07",
"0. c #9C3D06",
"q. c #8D2D13",
"w. c #853412",
"e. c #A93C08",
"r. c #B12B15",
"t. c #801822",
"y. c #991C29",
"u. c #B3172A",
"i. c #8C2A34",
"p. c #943031",
"a. c #A62736",
"s. c #B9273B",
"d. c #C31D3B",
"f. c #8C4B0C",
"g. c #924A0F",
"h. c #924C18",
"j. c #AE4E0B",
"k. c #B64A05",
"l. c #BE5707",
"z. c #A84711",
"x. c #A15914",
"c. c #9C6F1C",
"v. c #BA6F10",
"b. c #844E26",
"n. c #8D5325",
"m. c #865F25",
"M. c #9A5925",
"N. c #925E36",
"B. c #A75726",
"V. c #B25F35",
"C. c #9D6627",
"Z. c #94702B",
"A. c #976936",
"S. c #AA6727",
"D. c #B16B2A",
"F. c #BA722B",
"G. c #A86532",
"H. c #B46B34",
"J. c #AC7C30",
"K. c #B87639",
"L. c #C55709",
"P. c #C85B14",
"I. c #CE650D",
"U. c #D4690C",
"Y. c #CB7509",
"T. c #DD790B",
"R. c #D36617",
"E. c #DC7416",
"W. c #C1722E",
"Q. c #C77833",
"!. c #E27B22",
"~. c #983A4A",
"^. c #B23446",
"/. c #C23149",
"(. c #8F654A",
"). c #BA7941",
"_. c #B17D59",
"`. c #C17B45",
"'. c #63823D",
"]. c #66853F",
"[. c #66863E",
"{. c #68873E",
"}. c #67893E",
"|. c #68883E",
" X c #668341",
".X c #668541",
"XX c #678541",
"oX c #688642",
"OX c #6B8A42",
"+X c #708E46",
"@X c #6F9143",
"#X c #AF841E",
"$X c #B88731",
"%X c #CC800F",
"&X c #D5840A",
"*X c #D89406",
"=X c #DB930D",
"-X c #E89E18",
";X c #EBA51A",
":X c #F0AB1F",
">X c #DA9325",
",X c #C88A33",
"<X c #E88521",
"1X c #F19325",
"2X c #EEAA23",
"3X c #F3A824",
"4X c #F5B028",
"5X c #AF825E",
"6X c #D98844",
"7X c #CE924E",
"8X c #E19A43",
"9X c #E59C59",
"0X c #DBA344",
"qX c #E0AC49",
"wX c #E3B249",
"eX c #EBB258",
"rX c #D39F65",
"tX c #BA7985",
/* pixels */
" X X.X.X[ _ _ ] O.O.'.O._ ' ' ' ' / ' ' ~ ~ ~ ` I ~ I ~ +.@.+.} [ ' [ ] ) _ _ _ ^ ^ _ [ }..X}.( ! ~ ~ ! ' | | _ ) I P ~ ' ' _ .X].].].",
".X.X.X]. ._ _ _ O.O.,.O.' [ ' ' ' ' ' ' ` ~ ~ ` I ~ I I '.+.@.o.| [ [ [ _ _ ' _ ' ^ ^ o.}..X}.( ~ ~ ~ ~ [ [ | ' I I I ^ ^ ' ) .X].].].",
"].].].].| _ ` ` O.'.O.O.' ' ' ' ' ' ' ' ~ ~ ^ ~ I I I I @.+.O.@.{ [ [ ' _ _ _ _ ^ _ ` [ }.}.}.[ I ~ ~ ~ [ | [ ] ! P P ~ ' ` ' .X].].}.",
" X].'.]. ._ _ ` o.,.,.O._ _ ] ' ' ' ' ' / ~ ~ / ~ I I ~ +.+.+.N ~.[ [ ' ' _ / / ' _ _ [ }.}.}.[ ~ ~ ~ ~ | [ [ _ ! ~ ~ ^ ' ' ` .X.X'.].",
"' ( / ( ^ ~ ~ ~ ' ' ] _ ~ ~ ! ~ $.$.$.$. X1.oXoX{ {  . .@.$.'.C i.P ~ ^ '.'.O.'.O.'.o.'.}..X}.} [ [ { { '.O.,. .I P I '  .o. .' ' [ ' ",
"' ' [ ' ^ ~ ~ ~ ] ' ' ' ! ~ ! ! $.+.+.+.oX].oX$.{ { { { $.$.,.M i.~ P ^ '.'.'.O.O.'.'.'..X.X.X} { { | { O.o.O. .P I I /  . . .' ' [ ' ",
"[ ' ' ' ^ ~ ~ ~ ' ' ' ' ! ! ) ! $.+.'.+.].{.{.oX{  . .{ $.$.$.p p.V ~ / @.'.O.'.'.O.'.'..X.X}.} [ { [ { O.'.o. .I P ~ ' ..{  .[ [ _ ) ",
"[ ' ( [ ~ ^ ~ ~ _ ' ' ' ! T ) ! @.+.+.@.@.].{.$.[ [ { { $.$.$.s a.C I ! O.O.@.O.O.o.} '..X.X].{ ' ' [ ' { { | { ` / ' ' ' ' ' [ [ [ { ",
" .{ } { _ ' / ` ~ I ~ ~ ~ ~ ~ ~ @.'.'.+.{ [ ] [ I I ~ I } } } a M ^.T K _ ' ' _ ) ) ) ] { { { ' ^ ! ! ~ ' ` ^ [ @.@.o.' T I I { { } [ ",
" . .} } [ / ' ' I I ! ! ^ ~ ~ ^ @.+.@.+.[ [ ] ] ~ ~ I I } { N a 5.^.! ! ' ' ' ' ) _ _ _  .{ { _ ~ ! ^ ~ ' / _ [ @.o.o.' I I I  .o.{ } ",
" . .} ( ' _ ) ' ! ! ~ ! ~ ~ ~ ` '.+.@.+.[ [ [  .~ ~ ~ ~ o.o.p 2.s ~.D ! ' ' ' _ ^ _ _ ' { { { _ ^ ~ ~ ^ / / _ [ o.@.o.' I P I  .{ { o.",
" .} } } [ _ ' ' K ! ! ! / ~ ~ ~ 1.+.+.+.| | [ ..~ I ~ ^ o.o.p s 3.a.T r ' ' ' ' ^ _ ) ] { { { ' ^ ~ ^ ^ _ ^ _ [ o.+.o.' ~ ~ ~  .o.o. .",
"'.O.O.O.[ ' ' ' $.$.@.'.{.{.{.{.~ ~ ! ) ~ ~ ~ ~ I I I P ^ 2.7.2.5.y.8.4.p ] ' ] _ ' ' [ O.O.o. .+.{ { | ~ P I ! ' ` ' [ | | | o.O.O.,.",
"o.o.O.O.[ ' ' ) $.$.'.@.{.{.oXoX~ ^ ^ ~ I ~ I T I I I I w M 7.u.5.t.8.d.f ' ' ' ' ' _ [ o.o.O.{ / { .. .P P I ~ ' ` ` [ ] [ [ +.O.o.O.",
"O.O.O.O.[ ` ' ' $.'.@.@. XoX{.oX~ ~ ^ ~ ) I I ) I P I I a 5.5.4.s u 8.d.a a ) ' ' ' ' [ o.{ +. . . . ...P ! I ^ ` ' ' ' ]  .[ o.O.O.O.",
"{ o.o.{ ' ` ' ` o.$.'.@.oX XoX@.~ ) ) ~ ~ ~ ~ T ) ~ ) a a 5.4.4.4.5.4.d.4.4.a ' ' ) ' [ |  . .o. .|  .| ! K K ! ` _ ' ' ] ' ' 1.o.,.o.",
") ~ ~ ) ! P D ! ~ I ~ I ) ) ~ ) [ [ [ ' ~ ~ ^ ~  .{ { 5.5.4.5.5.u u.4.4.4.4.a ! O.o.'.[ D P L ' ( [ [ [ ( [ [ ( ' [ [ ' ` ' ' ` ) ) _ ",
") ) ~ ) P D ! D ~ ~ I ~ ) ) ) ) ' ' [ ' / ~ ~ ~ | { a d.d.4.d.u u s.4.4.d.4.4.P O.} } ' T D P ) [ [ [ | [ ( [ [ ' ] ] ' ' ` ' ` ) ~ ) ",
") ~ ~ ) ~ D T D T T ! I ) ) ) ) [ [ [ [ ) ) ^ ~ [ { 3.d.d.u u d.a r.tX4.d.4.4.~ O.O.o.] D T P ' [ [ [ [ [ [ [ [ [ ] [ ' ' ` ` ` ) ) ) ",
") ~ ~ ~ ) _ _ | ] ' ' ' ) ! ) ~ ~ ~ / ~ ]  . .[ o.} s d.4.4.d.u s s a.4.4.4.u ' [ [ ] ] ' ] ` ' ` ` ` '  .{  .[ ' ' ' ` ` ) ` I ! ~ ~ ",
") T ! ! ,.'.,.'.o.+.o.'.I I I I L L L L .XOXOXOX'.$.u u 4.4.6.2.s a u.5.4.u u @.~ ~ I _ +.'.@.' I ~ ~ I } }  .[ / ` ) ^ ) ~ ~ P I P I ",
"T T D ! ] '.o.'.+.o.o.@.~ T I I L L L L {.OXOXOX$.$.$.+.u i t.i d 9.6.;.a s a '.! ~ ! _ +.'.+...~ I ~ I } } +.{ _ / _ ^ / ) ^ I P I P ",
"! T P P ' '.'.o.o.o.o.@.I I I I L L L L OXOXOXOX$.$.+.+.' n u d d 5.5.n m V '.+.~ ~ ) _ '.'.@.o.I ! ~ ! } +.+.{ ` ` _ ^ ~ ^ ~ P P P T ",
"! T ! ! [ ,.,.'.@.o.@.o.~ ~ ~ I P P L L oXOXOXOX$.$.+.} ! i 6.s 5.5.u.b % { {  .) _ ) ] / / '  .~ ~ ~ ! ! ! I ! ~ ^ ) ' | | [ ^ ) ) ) ",
"[ ) _ ) ` ' ' / [ [ | [ ` / / ` I I ~ I ~ P ~ T _ ' ] _ P I y.5.a 5.s.g.r ) ' ' ] [ [ ' ` ` ^ ) ~ ~ ~ ~ L L J P P P ~ [ +.@. .` ) ` ` ",
"[ ) ) ) ` ' ` ' [ ] [ [ ` / / ^ ~ I I ~ I T P ! ] _ [ ' I P a.2.5.5.^.c ' ' / ' [ [ { ' ~ ` ` ` ~ ~ ~ ~ K L L K T I P / +.@.+./ ` ) _ ",
"| _ _ _ ` ' ' / ] | [ [ / ` ` ` ! I ~ I I I I ~ ' ' _ ' P I a.5.5.r./.h ' ' ' ' | ] ] ' ` ` ` ` ~ ~ ~ ~ J L J K P I I { o.+.} ` ) _ ) ",
"[ ) _ _ ` ' ` ' | | [ [ / ` / ~ ! ~ I ~ P P ~ ~ ] [ _ ' ~ P 9.d./.d.d.p.` ) ' ' ] ] | ' ~ ~ ~ ~ ~ ~ P / K K K P ~ ! K { o.o. .` _ ) ) ",
"D ! L L T ` ~ ~ @.@.$.$.+.+.@...} } { { ' [ [ ' _ _ ' _ ' ' f.u.;Xx.M x / ~ _ ' ~ ~ ~ T K I I I / / ` ~ o...o.@.OXoX{.' I I I L L L L ",
"P T L L I ) ~ I @.'.$.$.+.+.@.@.} { { } ' [ ' [ ' ' ' ' ' ' v.;X;XY.9.g ~ ' _ ~ I ~ ~ T I I K I / / ^ / o. ...o.{..X{.[ T I T L T L T ",
"P P L L I I ~ I $.$.$.$.+.@.+.+.{ { } ( ' [ ' [ ' ' ' ' ' j =X;X2X-Xj.G ^ ^ ) ) ~ ~ ~ ~ K I I I ~ / ^ ^ } O.} @..X].{.' T I ~ L P P D ",
"! T T ) [ @.+.+.+.[ +.[ +.+.+...} } } +./ ` ` _ ) ) _ ) ' f.*X;X;X;X;XF.' / ' ' ` ` ` ` ' / / ' / ' ^ ^ { { { | o.o.{ ' ~ I ) I T ! ) ",
") ) ` ` '.@X@X@X/ ' ' [ o.} o.o.@.@.@.@.I I I P ~ I ~ ~ $X=X=X>X4X2X*X=X[ ( [ [ [ [ [ { { } { { ` _ _ ` ' [ ' ' ` ` ) ) ) ~ ~ ` _ _ _ ",
"' ' ` ' +.@X@X@X( [ ' | } +.o.o.@.@.@.'.I I I I I ~ I Z.%X&X-X4X3X:X2X&X&XC.Y [ ] [ [ [ } { } { ' _ _ / [ ' | ' ` ` ) ^ ~ ~ ~ ` _ _ | ",
") ) / ' '.|.+X@X( [ ' ' o.o.o.o.@. .+.@.I I ~ I ~ ~ I G Y.&X;X-X3X3X1XT.Y.g.[ [ [ [ | |  .{ } { _ _ _ _ [ ' | ' ' _ ` ^ ) ) ` ` _ _ _ ",
"_ [ [ / +.].1.@./ / ' ' [ ` ' ` [ [  . .] [ [ [ ` ` ` v.I.T.1XT.;X1X<XT.l.L.Z ^ ~ ^ ` ` ' [ ' [ OXOX|.OX[ ' ] ' _ _ / ! J J J o.} } } ",
"] 1.o.O.' / ~ / ' ~ / ! ` ~ ` ` ' [ [ [  .}  . .` ' w.k.k.I.E.U.!.!.U.I.L.P.e.! ) ~ ) ` [ ' ' / @X@X@X+X[ ' [ ' ` / ` P J J D ,.} '.} ",
"' o.O.O.' ` ) ) ~ ~ ~ ~ ` ~ ) ` ' [ ' [  . . .[ / x 9.L.k.I.U.I.!.E.I.P.l.z.q.r.T ) I ` / [ ' [ @X@X@XOX[ [ | ' / ` ` P J J J ,.} '.} ",
"' @.o.O.[ ` ` ~ ~ ~ ~ ~ ` ` ` ` ' [ [ [ { {  . .V 9.g z 0.P.L.L.R.P.L.k.0.x g 9.c T ) ` / { ' ' @X@X@X@X' [ ' ' / ` ` P J J J ,.'.'.'.",
"{  . . .' ~ ~ ` ` ~ ~ / ` ` ` ` ` ` ` ~ _ _ _ ) g p 0 Z 0.e.e.e.L.k.j.z.b g *., ` ~ ) ' +.+.1.o.S D S S ` ' _ '  .}  .] T ) ) ` ^ ^ ' ",
"O.' ^ [ ~ ~ ~ _ ~ ` ~ ` ` ` ' ` ~ I I I / ` ' _ e , *.B B.x b 9.0.h 9.w.A 6 >.> / ~ ` ' o.o.@.o.J J J D _ _ _ _  . . .' ` ` ~ ' ' ' ' ",
"} [ [ ] ~ ~ ) ~ ~ ~ ~ ~ ' ' ` ' I I I K ` ` _ _  .7 8 > v q & g.h q j v e 9 >.3 < ` ' ' o.@.+.o.D D J D ) _ _ _ .. .@.' ~ ` ~ ' ' ' ' ",
"} ' ' ' ) ) ~ ) ' ~ ~ ~ ` / ' ` ~ I I I ) ` ' ) ..7 - 3 $ , 6 l & 6 < B t 3 =.1 6 ) ) ] o.o.1.o.J J D D ' _ ) ] ..+.[ ' ~ / ~ ' _ _ ' ",
"} [ [ } ' ' ' ) / ' ' / I ` ~ ~ ` ' / ` ) I ) ) ) 2 - ; : > 9 - & 0 3 < 2 1 1 1 7 @X@X].' _ _ _ ) ) ^ ~ _ ^ ) ) K P J ~ ` ` ` { { [ } ",
"[ ..} }  .| | [ [ [ [ / ~ I I ) / [ [ [ ) ~ ~ I I 1 @ = 3 8 8 > 3 8 =.3 > - ; %.4 @X@X}.) ' ` _ T ) ~ ~ _ _ _ ) P P P ! ) ) _  .{ | { ",
"| .... .| [  .' [ { [ ' I I T T / ' { [ I I ~ I I 2 * * - 3 :.:.3 :.9 > - - = %.1 @X@X}.` ) ` ` ) ) ~ ~ _ _ _ ) D T D ) ) ' ' [ { { | ",
"[ .. . .| ] |  .[ | | ' ~ I I ~ ' { [ | ~ ~ I ~ ~ 2 = o # : > - > > : - - @ o ; 1 OXOX'._ ) ) ` ~ ` ` ~ ) ) _ ) T P I ) ^ ) ~  . . .{ ",
"^ / ~ ~ ~ ^ ~ ) ' ` ' ) ^ ~ ~ ~ ) ' ' ' ` ' ` ` ` , O - o @ - > - > # # # @ ; @ = ' ' / I P P P T ~ I I '..X.X'.O.,.o.O.o.o.O.~ ) ) ' ",
"I I P I ~ ~ ~ ~ ) ) / ) ^ ) ^ ~ _ ' _ ' ' ' ' ' ' y 2 - O O @ # - # @ @ O * &.1 , ~ ) ! D ! T D I T I ~ .X.XOX].'.'.'.@.$.o.$./ ) ~ ) ",
"I I I P I ~ I ~ ` ) ) ) ^ ~ ~ ^ _ _ ' ' ' ' ' ' [ ' &.; @ @ . . o . . O @ * -.-.6 ) ) ~ T T D P I I I ~ .X.X.X].'.'.@.@.$.o.o.^ ~ ) ~ ",
"~ I I I ~ ~ ~ ~ ` ^ ^ ` ~ ^ ^ ^ _ ] _ _ ' ' ' ' ' ' &.8 = * - O . . O * * 3 -.-.~ ~ ~ ! D T D P I ~ ~ P .X.X}.].@.@.'.1.1.@.@.^ ) ) ) ",
") ) ) ) ' | | | ' ' ' ' ' |  .' ~ P ~ ~ ' ' ' ' ~ I &.=.1 * * $ X     * ; &.-.&.^ _ _ _ _ _ ) _ }  .} @.K P P ~  . .| ~ L J P o.o. .o.",
"~ ) ) ^ ' [ { | ' ' ' '  .| { / ) T P P ' ' ' ' P ~ 5 &.8 - @ t # + . @ 3 &.=.&._ ' ^ ' ) ) ) _ +.o.O.1.P P P P [ | ' ) P L P o.o.o. .",
"~ ) ) ) ' [ ' [ ' ' ' ' ' [ { ( ) ! P ! ' ' ' ' I P 4 8 &.5 * t q q + @ 5 &.&.&._ _ ' ` _ ) _ _ '.o.O.o.P I I ~ [ | | T L P L ,.o.o.o.",
") _ _ ) ' ' { [ ' ` ` ' ( { { ( ) P ! P [ _ _ [ P I t 8 &.&.> ) ` ` ` - =.&.&.3 _ _ _ ' ,.T _ _ o.o.o.'.I I P ~ [ [ ` ) L L P o.o.o.o.",
"{ O.@..X' ^ ~ ~ @.+.@.+.].'.'.'.| ) ) ) O. X'.'.OXOX|.> &.=.4 L I ~ ~ # 8 5 5 O.'.'.'.{ D ! T ! ~ ~ ~ ~ ) ' ) ) ~ ' ^ ~ I P I T I ~ T ",
"[ +.'.'.` ~ ~ I '.@.$.$.$.$.'.'.[ ) ) ~ '.'.'.o.OX|.OXt F F 6 L I I I t y U , o.'.'.o.| ! ! T ! _ ~ ~ ^ ^ ^ ` _ ` ) ~ I I P I I I I I ",
"{ '.@.'.' I ~ I @.$.@.+.+.'.'.'.[ ) ) ~ '.o.o.'.OXOXOXe A.K.q L I I T e W K.H o.'.'.'.[ ~ D ! T ~ ^ ~ ^ ` ' / ` ^ ) ^ ~ P I P I I I P ",
"{ '.'.@.' ~ ~ / +.o. .} +.+.$.+.[ ^ _ ^ } o.'.'.'.'.@.e V.S.P P T I ~ ! Z Q.W | O. .[ [ T T ! P _ _ _ ^ / ' ` ` ` ' ) ) ~ ~ ~ ~ ~ ~ ~ ",
"~ P I ~ ' { | @.I I I ~ ' [ [ [ ' [ ' ' { { { [ ! ^ ~ r `.F.[ _ ` ^ ^ ) T 6XW I D L P ! ) ) T ' ` _ ` ^ ' [  .' ` ` ) [ ] [ ' ^ ~ ) ) ",
"~ P P D ' +.o.+.~ ~ ~ ~ ' [ [ [ [ ' [ [ [ [ [ { ^ ^ ~ H 7X).| [ ~ ~ ^ _ ~ 6XQ I P L P P ~ ^ ^ _ ' ' _ _ ' [ ' ' ' ' ' ' [  .' ` / ~ ~ ",
"~ D D T / +.} +.I I K I ' | [ | [ _ ' [ [ } [ | ~ ~ ) W qX)._ ' ) ) ^ _ I 8XA.I L L L ! ) ~ ) ) ' _ _ ' [ [ [ ' / ` ' ' [ ' [ ) ) ) ) ",
") D ! D [ o.@.+.! ! I ~ [ [ ] ] [ ] | [ { { |  .! ~ ~ Q eXK.' ' ^ ! ^ ! ! 8X7X~ K L L I ^ ^ ) ) ` ` ' ' [ ' ' ` ^ ) ^ `  .' '  .| { [ ",
"o.,.1. X[ ` ` / [ / ' ' I I I I ~ ) ) ) ! ~ I I ) ~ ~ Q eX$X) ^ .X}..X.X'.0X0X@.' ' ' ' o.o.O.o. . .' ] ' ' ` ^ I ~ ~ ) ` ` '  X.X{.{.",
"| o.o.o.' _ [ _ ' ' [ ' _ ! T ! ) _ ) _ I I I I ~ ~ ~ Z.eX$X^ ~ $.]. XoX'.qXwX$./ ' ' [ ..@.@.@.] ] [ ] ` ` ' ` I I I ^ ` ` ' .X].]..X",
"o.o.o. .| _ [ _ ' ' _ ' ! ) ) T ~ ) ~ _ T ) I I ~ I H 0XwXc.) ~ ].].{.oXj qXwXm.' ` ' [ @.@.@.[ [ ' [ | ' ' ' ` I I I / / / ` .X].]..X",
" .'.o.'.| / _ _ ' ' ' _ ) ) ) ) ~ (.).5X5XK.S.G.K.D.).rX,X#XZ.(.Y ].Q A.J.7X7X,XH.D.A.H._.<.N.).(.| | [ ~ / ` ` I I I ` / ` /  XoXOXoX",
"[ | [ | ' ^ _ _ ' ' _ | ! D D ~ ' ).9XH.Q.6XF.F.Q.F.G.M.x.c.,X8XG.' Q.,XW.h.S.S.F.F.S.6X7Xf.6X9X).I I I '.+.+.[ I I I ' {  .{ ' ' ' ' ",
"' { { { [ _ _ _ ' ' ' ' ! T ! K ' H G.M.n.b.E A R A b.n.k B E E B ) ~ E R M.b.A A A A b.n.n.B.S.R I I I $.o.$.[ P I I ' ....} / [ ' ' ",
"' { { | _ _ _ ^ ' _ _ ' ! D ! ! ( o.o.o.~ ~ ~ ~ [ [ [ [ O.o.@.'.~ ) ~ ) I I I I ` ` ` [ { } } { P I I ~ $.o.o. .I P I ' ....} / ' [ ' "
};
