/* XPM */
static char *xpm_[] = {
/* columns rows colors chars-per-pixel */
"70 70 235 2 ",
"   c #32261A",
".  c #493820",
"X  c #533D27",
"o  c #6B3D2F",
"O  c #374D1F",
"+  c #364A22",
"@  c #3B4D25",
"#  c #3B4D29",
"$  c #3E5226",
"%  c #3E5229",
"&  c #58472B",
"*  c #415527",
"=  c #435926",
"-  c #42552B",
";  c #455A2C",
":  c #495D2E",
">  c #4F443B",
",  c #5C4537",
"<  c #435631",
"1  c #465B31",
"2  c #475D31",
"3  c #4A5E31",
"4  c #664D2C",
"5  c #634938",
"6  c #69553A",
"7  c #73593D",
"8  c #785839",
"9  c #4B612E",
"0  c #50692F",
"q  c #4D6333",
"w  c #4D6537",
"e  c #4F6836",
"r  c #516635",
"t  c #516636",
"y  c #536A35",
"u  c #586E36",
"i  c #526738",
"p  c #546A39",
"a  c #586F3A",
"s  c #587036",
"d  c #577139",
"f  c #5B733B",
"g  c #6D633E",
"h  c #77643C",
"j  c #7B633E",
"k  c #627B3C",
"l  c #5B4640",
"z  c #5E544B",
"x  c #6E4E45",
"c  c #765E42",
"v  c #795F42",
"b  c #74574B",
"n  c #556642",
"m  c #5A6C45",
"M  c #5A6C47",
"N  c #5C7145",
"B  c #5D7048",
"V  c #766245",
"C  c #7B6345",
"Z  c #7D6847",
"A  c #74624B",
"S  c #7D6549",
"D  c #7E694C",
"F  c #617744",
"G  c #627941",
"H  c #62764B",
"J  c #667A4D",
"K  c #746950",
"L  c #766856",
"P  c #677A51",
"I  c #7A6B61",
"U  c #8B341D",
"Y  c #913A30",
"T  c #A93729",
"R  c #B93A29",
"E  c #EA2F1D",
"W  c #FB2915",
"Q  c #FD251E",
"!  c #FC2C1C",
"~  c #F7341C",
"^  c #FC341D",
"/  c #FD391C",
"(  c #C3382C",
")  c #D53828",
"_  c #C23C31",
"`  c #FD2620",
"'  c #F52E23",
"]  c #FD2C23",
"[  c #FE2E29",
"{  c #E9392A",
"}  c #FD3424",
"|  c #F53D25",
" . c #FD3B24",
".. c #F53728",
"X. c #F4352B",
"o. c #FD342B",
"O. c #FD3A2C",
"+. c #EA3630",
"@. c #FD3632",
"#. c #F33D32",
"$. c #FD3B32",
"%. c #FC3C3A",
"&. c #904F36",
"*. c #865C35",
"=. c #8C5B3C",
"-. c #9B583C",
";. c #BC472A",
":. c #A65738",
">. c #B5583C",
",. c #8A643C",
"<. c #996A3A",
"1. c #AA703C",
"2. c #FA481D",
"3. c #D64127",
"4. c #C44736",
"5. c #D8493B",
"6. c #C65539",
"7. c #D8563C",
"8. c #E64225",
"9. c #FD4324",
"0. c #FB4B24",
"q. c #F44528",
"w. c #FD432B",
"e. c #F34B2C",
"r. c #FD4B2C",
"t. c #FB5028",
"y. c #FD532C",
"u. c #FC5A2D",
"i. c #EB4838",
"p. c #F44734",
"a. c #FC4332",
"s. c #FC4D32",
"d. c #FD433B",
"f. c #F44C3A",
"g. c #FA4B3B",
"h. c #EA5338",
"j. c #FD5332",
"k. c #FA583C",
"l. c #C6723C",
"z. c #F96537",
"x. c #F06938",
"c. c #FB3E46",
"v. c #885844",
"b. c #995B41",
"n. c #825250",
"m. c #AF4B41",
"M. c #A35D43",
"N. c #AB5A43",
"B. c #B35848",
"V. c #826544",
"C. c #896242",
"Z. c #81664A",
"A. c #826A4D",
"S. c #886A48",
"D. c #986549",
"F. c #87714E",
"G. c #8D724C",
"H. c #977648",
"J. c #856D52",
"K. c #886E53",
"L. c #886E5D",
"P. c #867154",
"I. c #8A7254",
"U. c #857259",
"Y. c #8B745A",
"T. c #8E7A5D",
"R. c #927657",
"E. c #937B5D",
"W. c #A46141",
"Q. c #B86250",
"!. c #8D7B62",
"~. c #987B61",
"^. c #90726E",
"/. c #B87A6C",
"(. c #CC5A44",
"). c #CA524B",
"_. c #D45748",
"`. c #D95B4D",
"'. c #FA4746",
"]. c #E65446",
"[. c #F85747",
"{. c #F2534E",
"}. c #CE6245",
"|. c #D36752",
" X c #F8634B",
".X c #F86656",
"XX c #F16F53",
"oX c #C47767",
"OX c #D47771",
"+X c #F86766",
"@X c #F87663",
"#X c #F36E73",
"$X c #6D8250",
"%X c #8E805A",
"&X c #B08C4C",
"*X c #A58352",
"=X c #8F806C",
"-X c #9C8562",
";X c #988469",
":X c #998775",
">X c #9B927B",
",X c #A28B66",
"<X c #A38B69",
"1X c #A89779",
"2X c #BDA57F",
"3X c #F9804A",
"4X c #D78571",
"5X c #F88D73",
"6X c #F6877B",
"7X c #9A9481",
"8X c #A59684",
"9X c #AB9C85",
"0X c #B7A587",
"qX c #AFA694",
"wX c #B7AD94",
"eX c #B2B0A7",
"rX c #C88B80",
"tX c #F8908F",
"yX c #CAB595",
"uX c #F6AA98",
"iX c #FA97A3",
"pX c #C9BDA9",
"aX c #F6A8A9",
"sX c #F9B7AA",
"dX c #F8AFB2",
"fX c #F6BAB8",
"gX c #CCC3A9",
"hX c #D4C4A1",
"jX c #D7C5B3",
"kX c #FBD0BC",
"lX c #F6BEC3",
"zX c #C8CBC3",
"xX c #E9DACB",
"cX c #F0E4DB",
"vX c #EDECE7",
/* pixels */
"# < ; ; y y e d e d = < < 2 9 2 @ + + - - * 3 6 q i y i 9 % w d N f 9 9 9 2 q % ; ; ; ; 2 q % % = % = ; y a i y y e - - % ; 2 ; 3 r i < - * ",
"$ ; ; ; i i y p d y = - % q 2 2 @ + + - - * r 3 q i i i 9 9 9 N f k 9 w % q % q ; ; ; 2 ; ; $ @ O 9 ; ; r y y y y d : ; < ; : 3 # + + - * - ",
"; 2 ; 9 3 q q i w e 9 ; ; 3 3 1 @ @ # - * * 3 q w w y i 9 ; q N $XN 0 % 9 ; w 9 ; ; ; : ; 9 $ + $ % ; ; e r y y y y ; = * 1 : : # # # % - # ",
"e ; < 2 % - # # % $ d d a ; - - # # - - - - i r r y y i 9 % 9 % $ $ 9 9 9 w w w ; ; ; ; ; ; ; q w 9 ; ; 2 9 q q 9 9 9 = ; ; : : # # # # - - ",
"e ; ; 1 % % - - - - a d y * - - @ - - ; ; - u r y i q y ; - % % % # 3 ; 9 e i i - - - - * ; i i w 9 q % % % % % - * u s a ; < < * * . - 2 - ",
"q 9 9 : - - - < % ; d d y * - - $ $ $ - ; ; r r y q y q ; < % @ + $ 2 2 2 e i p 1 - : ; : - i n p % % q % % - < - * a d a * - - - - # - : - ",
"; i e w 2 3 < - % - p y y % # % r q w 3 : : y p y 9 9 3 # % ; w 9 ; ; ; ; i i w - * - - - - 3 3 w 9 9 q ; % % % - % p u p - - - - * * - - = ",
"- i y w 2 3 < - % ; e y y % % % r y i 3 q 3 p a y : = ; % ; % p y e * ; * r 3 3 * @ # # # # - - $ p w e w q 2 % - % y y p $ - - 3 i r q 3 : ",
"2 p y e 2 3 < % % 1 p p w $ % ; 0 r r 3 3 w y y y - 9 ; < % - p y i - - * q 3 : + + @ @ @ # - @ * i r p 3 3 < - % $ r y y * * - r r y 3 3 & ",
"; ; = = - - - 2 2 < ; 9 % @ @ % y r r : ; : : : 9 d f f ; % < 3 q 2 ; 9 q q q r - * * * - $ * - * i p i 3 < 1 - - % y y r * % $ r r r : 9 9 ",
"; ; ; - % % ; < 1 ; ; ; % + $ $ g r r : : - - - = k k f % ; < % % = e y y q q r q q q s y d ; < 1 ; ; 1 < < - < - - 3 : ; + # @ q y y 1 : : ",
"- 9 $ ; < % % ; ; ; ; ; % O $ $ i i r ; - ; - - q G k f = % - - % = r e r q q y r 9 r u f f ; < : - - < - - - 1 : ; ; ; ; @ @ @ r y y ; : : ",
"q y y 9 ; ; 2 q 9 9 q q 9 @ $ - 1 : : ; 1 - - # 2 d f w ; ; ; ) { ..{ o.X.} o.O.} ] ..] ' ' E ) R ; = - * - - 1 : ; ; ; ; + # O r i i : = : ",
"e d y q 2 ; q q r r r r 9 $ - $ * # * - - # # # $ % ( { o.o.o.o.O.$.$.d.#.O.O.o.} } }  .o.] ` Q Q Q o.) - : - q 9 9 q q q $ @ @ : 3 3 : - - ",
"r s s 9 ; ; 9 q 0 0 e e 9 $ - % # # - - - - @ ) ' } ] ] X.o.@.o.X.) ;.7.].f.$.O.O.} } } } } ] ] ] ! Q ! ! .._ 3 9 0 q y r * ; - @ - - $ ; - ",
"9 r 9 q : q ; 3 q w q q 9 - ; * * @ - - R E ~ ~ / } } o.o.o.O.o.o.+.-.V.8 =.>.e. .w.r.s.r.w.r.r.s.r.] ! ! ! ! ~ ) r r r r * * - $ + @ ; ; - ",
": ; ; 3 q q ; - % 2 3 2 2 - = - = - ;...} ] ] } ' } o.@.$.O.@.@...O.].b.V.V.h >.y.y.u.t./ / /  .^ 2.} ^ ! ! ! ^ ! | R q q = - - * * * 2 ; ; ",
"; ; ; 3 q 3 - * % 2 2 9 9 ; ; ; R r.0. . .} ] [ ] ..} $.o.O.$.h.h.{.`.C.C j C.<.j.y.u.0.e.O. ./ / 9.9. .! ^ ! ^ } ! } { 9 % ; = - = * r w y ",
"; - ; < < 1 - * * ; 9 : ; ; Y 8.2.9. .! ! ] } o.O.o.X.5.3.O.7.=.C.D.C.h D ,.V.*.h.2.y.t.;.6.f./  .y.u.r.s. .W } }  .~ ! q.- ; ; = - * r y r ",
"* * * - - * i i y 9 ; : ; 3.9.2. .! } o.o.o.o.o.o.%.+.6 ;.g.b.V J.U.P.A.D V.Z h (.p.j.z.>.h -.h.} 2.y.9.~ 0.9.^ r.~  .O.! | ; ; - - ; r r q ",
"@ - $ @ * + r r y : ; U 0.2.9.' [ ] X.o.o.O.X.@.' @.+.T p.d.b.Z.A.Z Z.S D V.Z P.8 W.l.l.1.,.Z.:.O.~ r.0.W / j./ 9.r.! ! w.o.#.; ; - - - # # ",
"% % $ @ + * r r p 3 T q.0.9.W ` o.] } } ] } #.:.:.f.$.a.O.h.v.D Z S J.Z.Z.A.Z V.C Z G.&X&X,.j :.O./  .s./ W r.9.^ y./ W ~ } ! 8.; ; ; @ + # ",
"2 2 : 9 r r : : : _ r.9.} ! ] } o.o.} o.o.#.-.A V :.(.(.(.b.Z.D Z.S Z.J.A.A.V.A.V.V.V.S.G.S.,.h.O.} } 0.w.^ 9.0.^ y.9.^ ^ } | / ( - - # @ $ ",
"3 9 : r r r - ; _ | 0.! ` ' o.o.o.] o.o.O.N.8 C Z.S Z.V C S Z.D K.C Z.Z.A.F.V.Z Z F.j V.,.*.6.o. . . .y.r.9. .r.^ 9.r.r. .^ 9.0.O.q < # = + ",
"2 3 9 y r r : R w.9.} ! o.o.o.o.o.o.} } i.7 C v S Z.C S Z.S Z.D Z.Z.Z.A.A.Z A.A.A.A.V.V.V.6.p.@.o.o.} r.y.9./ r. .9.0. .s.^ 0.r.2.7.q @ + # ",
"* ; - w q q * 0.w.! ] ] ] o.o.o.o.O.o.} >.C C v C Z.v C v S Z.Z.C C A.Z C Z A.A.A.A.V.A.,.e.O.o.} } ^ r.y.w.^ 9.w. .r.~ r.^ 9.9.r.f.q # # + ",
"- * * q y 1 q.w.` } ] ] ] o.o.o.o.o.o. .b.n.v c b S Z.c S S K.J.Z.A.J.A.C P.A.Z.A.A.A.A.b.f.o.O.o.} } w.s.w.}  . . .0.0.w.^  . .u.| Y # @ # ",
"% % $ 3 q 3. .^ ] ! ] ` [ [ [ [ ] o.o.$.b.Z.v S Z.v S c v S S J.J.J.S Z Z A.A.Z Z V.A.A.=.p.O.O.} O.} }  .} } | } } } }  .} } ^ y.q.m.- - - ",
"2 : 9 9 T 0.} ] ' ` [ [ [ [ o.o.o.X.o.@.b.J.C C v C C S c D S v S C Z A.A.j Z Z A.;XT.C.=.h.o. .}  .o.o.a.a.O.O.O. . . .w. .} } r./ (.; - - ",
"N f d s i.~ ! Q ` ] [ [ [ @.o.$.o.[ o.O.-.S A.S v C c S S c v C A.Z S Z I wX%XZ >XvXgXK c N.[.p.@.o. .} O.} }  . .s.O. . .} }  .y.0.`.- - - ",
"d d f T } ! ] ] ` [ [ [ o.[ o.$.o.] O.O.N.S C c v S v c c v A S D Z Z V qXcX9XV A.;XP.Z.C v D.-.>.i.] ..O. .O.} w.a.}  .O.}  ./ u.u.`.< < - ",
"N f d { ` ' ] ] [ [ [ [ [ [ @.o.o.o.$.O.m.J.A.Z.S C c c S S C S C S F.P.g U.D D A.J.G.C K.Z.Z A.V.:.$.$.o.o.} } w. .}  . . . .9.z.r._.& - - ",
"= ; q $.[ @.o.[ [ [ o.[ @.o.o.o.O.o.O.O.6.A Z.c C C C J.V S V S C D D J.D P.D A.Z A.I.A.Z A.F.F.S :...o.} o. . .O.w.O.w. .} w.9.z.u.).< - - ",
"; : T $.o.o.[ [ [ [ @.[ [ [ o.} o.o.O.o.5.c C C C C c S 7 A S D D D S D D C A.A.A.F.P.A.A.V.F.C.>.i...o.o. .o.O.a. .O.w. . .0.z. X} &.1 : : ",
"* ; _ d.o.[ o.@.o.o.o.o.[ o.o.o.o.o.o.o.i.8 C C v J.S J.S Z V S S S V D J.A.A.h A.Z Z Z F.J.A.:.g.....o.O.w.O.o.a.w.O.O. .2.2.3Xk.$.o : 3 3 ",
"; ; 5.$.o.[ [ o.@.@.[ o.o.@.o.O.O.@.O.} #.v.Z Z S C P.D C V V S D D P.D D Z Z C A.A.A.A.S.Z.C :.g.$.@.} o.a.r.w.O.O. .O. .9.z.XXo.[.- 9 3 3 ",
"; ; ].'.%.o.o.o.@.@.o.$.o.@.o.@.o.o.O.@.$.4.A Z S S Z.S D D S D S S J.J.D A.A.C Z A.P.A.F.G.*X1.h.O.@.} o. .a.a. .o.}  . . .s.g.X.).; : : : ",
"- ; {.f.@.[ o.@.o.o.o.o.o.@.o.o.@.o.O.$.$.7.C P.Z.S v D S Z D D A.S S S S P.A.A.F.Z A.A.D G.*X1.7.$.O.o.o.o.O.o.O.O. . . .w.a.^ #.y y ; ; & ",
"; 1 `.[.%.@.O.@.$.$.@.o.o.o.@.@.$.O.$.$.@.p.S.S S S Z.c S A A J.D C J.C Z Z C F.A.I.C Z h ,.H.H.6.a.O.O.O.o.o.o.O.o.O. . .s. .! _ a y ; ; ; ",
"3 2 `.g.d.$.$.O.@.$.@.$.a.@.O.$.$.@.O.O.o.$.=.S J.Z.J.A P.S D C J.S Z.A.J.I.Z A.A.P.C F.F.S.H.H.,.7.O.@.O.@.o.O.O.o.} O.g.a.g.i.i u y : : ; ",
"3 3 B.d.%.$.$.%.@.o.@.$.@.O.o.o.@.O.O.O.O.w.-.C S D D D D D J.C C J.c S J.J.S J.K.Z.A.K.Z.j G.H.H.,.}.d.O.o.o.o.} o.} g. X..' Q.a u r : : : ",
"2 3 b '.d..X{.@.O.@.@.a.@.o.o.a.a.$.@.o.O.a.M.A V S D D D D S Z.C J.J.S Z.Z.J.Z.C Z.Z.Z.J.A.Z.Z.P.V.,.N.f.O.o.O.o.} [.5XO.W |.9 u i i 9 3 : ",
"i a p +X$..X[.d.$.$.$.$.$.@.O.$.a.@.a.O.@.a.N.K.S S J.D L C C C J.S S K.K.Z.Z.J.A.K.A.Z.C Z.J.K.A.P.R.Z N.f.O...} @XtXy. .i.~.3 a i r 3 3 3 ",
"y y y /.%.%.[.[.%.d.$.d.$.@.$.$.o.o.o.$.O.O.M.D A.A b Z.Z.L.C J.C C C S S Z.v S Y.V.C A.V.A.Z I.S F.V.A.S B.s.k.uXuXe.x.7.~.: : ; - - * : = ",
"y y p x +Xq.d. X{.c.$.$.a.$.@.@.O.@.O.O.@.$.-.P.S J.Z.A U.D P.D D J.J.Z.S A.A.S A.V.A.V.A.A.A.A.C A.C V.F.Z 4XkXsXj.e.5./.: 3 ; * * * * + * ",
"; ; i w rX Xr.'.+X+X'.d.$.$.@.$.@.$.o.@.O.p.=.D K.U.D J.D D D D D K.A.K.S J.K.I.A.K.K.A.A.A.A.Z.C A.A.S.R.pXhX@Xu.8.@X1X; : 3 ; * * * * * - ",
"$ = q q L 4Xk.j..XsXfX#X'.o.@.@.$.@.@.%.@.c.R.K.U.D J.K.J.D D P.D U.A.J.K.D J.A.Z A.Z.A.I.S.v A.V.A.R.2XhX0Xh 7.h.|.L.- : 3 3 3 ; ; < * * - ",
"% $ 2 w w ^.OX Xk.@XcXcXfX#Xc.@.$.$.@.@.%.].J.K.U.J.D U.P.D S D A C U.J.K.K.S L.J.Z.A.Z.A.A.Z.I.A.,X2X,X,.8 4 Q./.!.* - - q w q u y r : ; < ",
"% $ e 0 9 * - OX[.j.XXsXfXaXaXtX{.c.%.o.d.`.J.U.J.J.Z.Z.P.A.Z J.J.P.U.J.K.E.L.Z.A.A.K.K.A.I.E.;X<X,XA.7 , 5 x % % % % % < 3 r r u u y ; : : ",
"% 9 d d i 9 9 : OXg.$. X6XkXtX#XfXaXtX'.'.`.^.L.!.L.J.Y.S P.P.P.P.U.J.K.C I.I.A.I.A.A.E.R.-XE.P.G.7 5 l o I I 2 % % - % - i 3 r 0 y r ; : : ",
"= 9 d y y : 9 : * ^.+X$.g. X@XaXaXiXtXdXlXjXeX7X>X:X^.=XE.T.L %XY.U.!.E.I.Y.J.R.R.R.~.T.Y.Z.V c 6 , 5 l d d 9 q w % ; % * * * y f f a * * * ",
"* = s s y 9 : : * * b OX.X#.O.[.6XtXtXiXfXxXvXzXzXeXqX8X:X:X;X,X;XP.I.-X-X,X,X,X-XE.I.J.D D K , , L.z a y a 9 9 q < % < - * - q f a a $ * * ",
"; 9 y y 0 y y q * * * 1 b OXi.` [ o.@.%.'.oX7X9XqXqX9X1X0X9XgXxXgXwXhXyXyX2X,XF.D D A A >     L > $ % p d f q ; : = - * - = * r f f 0 @ $ % ",
"; q y y y y y q - - ; 1 1 3 x B.].' ` ` p.`.D L U.;X1X1X2XwXgXxXpX1XE.R.Z D Z 6 & ; 2 9 9 % $ $ ; - = i y p 0 0 y = - - ; ; : : q 3 = - $ * ",
"; q y y y s y r - - 1 : 1 ; + # @ v.Q._..X_.o & X X & & & & h ;X!.c A 6 . & % 9 2 ; 2 ; 2 @ # # ; ; ; y y y y s u = - = 1 3 3 # + + # - - * ",
"; 9 q q 0 y y 9 ; ; 1 : : < + + # - - % l x yX0XyXgX2X1X%X6 1XP.A K 2 9 % 9 9 % ; ; ; 2 2 @ + $ ; ; ; y y y s y u : - - 1 3 3 - # + # - - - ",
"1 * $ $ = % % 9 a a e $ - % $ $ $ = ; 2 e e r y p e ; 9 ; $ $ = ; 2 9 q w w w * ; ; ; 1 < 2 9 = 2 ; * q 3 3 q 3 q ; ; - ; : 3 * . + # # - - ",
": * * - ; - - q f a q ; % % $ $ % ; ; ; i e r i e e % % % @ % # ; ; ; q e y q ; ; - - ; ; e e w : ; 1 - - - - < - i a f ; - < * # * # < * 3 ",
": * - - % % % y d d q % % $ $ $ $ % 2 % e r y w p i % 2 % $ # + 9 9 q w y y 3 - - - ; ; ; p w w : ; 1 % - - - - - p a a - - - * * # * ; ; 9 ",
"r : 1 1 - - $ i y y ; % % ; w 9 2 2 9 2 y y y q q w 2 % % 9 ; 2 2 % 2 w r r 1 - - - - ; ; w w w ; 9 1 - - - - - ; p a a < - - * * * * 1 - q ",
"i : 1 1 - # % r e s ; % % % n p q 9 9 q e s d = 2 9 % % - i i i ; % * 3 q q - @ # + # % % $ $ = y y w ; - 1 - - % p y y - - * : 3 3 3 3 : q ",
"i : 1 3 - - $ w e y ; % % 9 p e q 9 9 9 e e p 9 ; % % % - i i y ; % - ; 3 q - # # # + @ % $ $ ; r y y ; : 1 * - % y y y - - * 3 r r i 3 3 w ",
"& < - ; ; - * w e e ; - # ; e e q 9 9 q d p 0 9 9 9 ; ; - i p p $ % * q q 9 % @ # $ $ + # % $ ; y r w ; ; - - - $ y r y * @ * 3 e e q q 3 w ",
": - - < 1 ; ; ; ; ; + @ # q y d q = ; = = % 9 f k N = % - * ; * y y q q q q 3 3 ; w w y 9 - - ; 9 9 q - ; - * * * q q r - & - 3 e e q : : q ",
"- - * - ; : : - ; : @ @ @ 3 y y q ; ; ; $ - 9 k k f = - < * - * p r p q q r 0 9 9 y f f 0 ; ; = ; ; ; % % ; ; ; 3 ; ; ; @ # * 3 i i w ; ; % ",
": - * - ; ; ; ; ; : @ # # 3 p y 3 ; ; ; % % q N k f * * - * - * p r y r 3 q 9 9 0 y u u 0 ; ; ; ; ; ; - % - ; : ; ; 3 1 # + + 3 r u q 1 < ; ",
"p : ; : q r r i i r - - - * * * - < 1 * $ # ; w 9 e q 9 : ; * ; r r e 9 : q 0 r q y y y q ; - ; = ; ; * - - : - = ; : - @ + * 3 y r q 1 2 2 ",
"a 1 : 3 q q 9 y y p - * - # @ + % - - % + + # - = ; e e 9 : ; - q q q % * * w r y ; * @ * - - ; s s y ; ; 3 q r r r r r - - - * - = $ - % % ",
"i = ; : r q q i y y - = - * # * ; ; % % $ + % 2 ; : i r r ; ; ; w q q ; % % w r y - - % - - - : s a y ; : 1 r 3 9 y w r - - - - - @ * * ; # ",
"J H H B M B B J H H m m n n n n M B M m i n n M M B P P J m F m H H B m M m P P J m n n n m n J $X$XP H m H H H J P P P m m m n n n M M M m "
};
