/* XPM */
static char *xpm_[] = {
/* columns rows colors chars-per-pixel */
"67 70 233 2 ",
"   c #281E14",
".  c #2D2216",
"X  c #382A1B",
"o  c #3B3026",
"O  c #49311E",
"+  c #7B2D16",
"@  c #483828",
"#  c #533E26",
"$  c #653E38",
"%  c #58462A",
"&  c #445C27",
"*  c #465C2B",
"=  c #485E2D",
"-  c #594436",
";  c #544A3A",
":  c #694A32",
">  c #674A39",
",  c #68543A",
"<  c #745C3D",
"1  c #7A5A39",
"2  c #47612B",
"3  c #4B632D",
"4  c #4E692E",
"5  c #516C2F",
"6  c #4E6630",
"7  c #4F6931",
"8  c #526B32",
"9  c #586F38",
"0  c #567135",
"q  c #597536",
"w  c #5A7538",
"e  c #5A7539",
"r  c #5E7B3A",
"t  c #75623A",
"y  c #7B623E",
"u  c #617E3B",
"i  c #595048",
"p  c #624B42",
"a  c #6B5844",
"s  c #765E42",
"d  c #7A5E43",
"f  c #695D56",
"g  c #756244",
"h  c #7B6345",
"j  c #7D6846",
"k  c #77664B",
"l  c #7D6549",
"z  c #7E694B",
"x  c #796656",
"c  c #736955",
"v  c #7C6C52",
"b  c #8C2C1C",
"n  c #AD311C",
"m  c #8E2E20",
"M  c #AA3628",
"N  c #BA3125",
"B  c #DF2F1E",
"V  c #FC2A15",
"C  c #FC241D",
"Z  c #F42B18",
"A  c #FD2C1C",
"S  c #F8341B",
"D  c #FC331C",
"F  c #FB3A1E",
"G  c #C22F23",
"H  c #C93829",
"J  c #D9392A",
"K  c #D83D31",
"L  c #FC2622",
"P  c #FD2D24",
"I  c #FD2E29",
"U  c #E5382A",
"Y  c #FD3425",
"T  c #F63A21",
"R  c #FD3B24",
"E  c #F4342B",
"W  c #FD342B",
"Q  c #FE352D",
"!  c #F53829",
"~  c #FD3A2C",
"^  c #E93C34",
"/  c #FD3532",
"(  c #F43C34",
")  c #FE3B32",
"_  c #FE353C",
"`  c #FD3D3B",
"'  c #8B4B2F",
"]  c #895E2E",
"[  c #9A4D38",
"{  c #865839",
"}  c #8B5C3C",
"|  c #9A573B",
" . c #925C3C",
".. c #B14E34",
"X. c #AA5739",
"o. c #A45B3E",
"O. c #B8573A",
"+. c #84633E",
"@. c #89663B",
"#. c #9A6438",
"$. c #957037",
"%. c #AC773A",
"&. c #E9421E",
"*. c #FB461E",
"=. c #CE462B",
"-. c #D84C38",
";. c #C9563A",
":. c #D7573C",
">. c #EB462B",
",. c #F54427",
"<. c #FC4425",
"1. c #FC4A24",
"2. c #FD422C",
"3. c #F44A2C",
"4. c #FD4B2C",
"5. c #FC532C",
"6. c #FA592E",
"7. c #E74636",
"8. c #EB4C3B",
"9. c #F44436",
"0. c #FD4332",
"q. c #FE4D32",
"w. c #FB443B",
"e. c #F54939",
"r. c #F44B3C",
"t. c #E75739",
"y. c #EB533E",
"u. c #FD5432",
"i. c #F65639",
"p. c #E16738",
"a. c #F36B3D",
"s. c #FB3643",
"d. c #8F4E48",
"f. c #895A44",
"g. c #995A44",
"h. c #A75843",
"j. c #B95742",
"k. c #826544",
"l. c #886646",
"z. c #81664B",
"x. c #826A4D",
"c. c #8B6E4B",
"v. c #976547",
"b. c #86744D",
"n. c #8C724D",
"m. c #977549",
"M. c #846D51",
"N. c #896E52",
"B. c #866D59",
"V. c #867154",
"C. c #8A7254",
"Z. c #85735B",
"A. c #8B745A",
"S. c #8C795B",
"D. c #977755",
"F. c #90775A",
"G. c #937B5C",
"H. c #B66344",
"J. c #8D7A62",
"K. c #877669",
"L. c #957B62",
"P. c #B0756D",
"I. c #C55E48",
"U. c #D85942",
"Y. c #D1564E",
"T. c #F84A45",
"R. c #EA5544",
"E. c #F65444",
"W. c #F4524E",
"Q. c #C96249",
"!. c #CE6752",
"~. c #FA6543",
"^. c #EC6852",
"/. c #F66459",
"(. c #DB7269",
"). c #F36C6C",
"_. c #F87A64",
"`. c #F77877",
"'. c #65833E",
"]. c #66853F",
"[. c #67893E",
"{. c #68883E",
"}. c #668341",
"|. c #668441",
" X c #688542",
".X c #B2843E",
"XX c #9C825D",
"oX c #A9874C",
"OX c #AD8952",
"+X c #8F8167",
"@X c #9B8362",
"#X c #9A8568",
"$X c #938776",
"%X c #978977",
"&X c #A68B67",
"*X c #A38C6C",
"=X c #A7906C",
"-X c #A48A78",
";X c #A79779",
":X c #B69C79",
">X c #BDA47D",
",X c #D18D75",
"<X c #F78A75",
"1X c #FC977D",
"2X c #A59987",
"3X c #ABA18C",
"4X c #B8A684",
"5X c #BCAE95",
"6X c #B8B4A5",
"7X c #B5B1A8",
"8X c #C79684",
"9X c #E99786",
"0X c #F78E90",
"qX c #F89799",
"wX c #CAB491",
"eX c #E8A093",
"rX c #F8A798",
"tX c #F89DA3",
"yX c #C7BBA6",
"uX c #F8A8AA",
"iX c #F3AFB4",
"pX c #F8B4B4",
"aX c #C9C1AA",
"sX c #D5C7B4",
"dX c #D7CAB1",
"fX c #F7C9B3",
"gX c #FDBDCD",
"hX c #CCCFC7",
"jX c #EDD0C6",
"kX c #F6D9D6",
"lX c #E6E4DB",
"zX c #F6E8DE",
"xX c #F3EFE8",
/* pixels */
"|.|.|.].0 7 7 7 u u r u 8 7 9 7 8 8 8 8 3 3 6 6 = = = = r '.r q 5 q 0 0 7 7 7 4 5 7 5 0 {.{.[.0 4 3 3 4 0 0 0 7 = = 2 3 8 8 8 }.].].].",
"|.|.|.].0 8 8 7 u r r u 7 9 7 9 8 8 8 8 3 3 6 3 = = 3 3 '.r '.q 0 0 0 0 7 7 4 7 4 8 7 0 {. X[.5 2 2 2 3 8 9 e 8 = 3 2 3 5 8 8 '.].].].",
"].].[.'.0 7 8 8 u u u u 7 8 9 7 8 8 8 8 3 3 6 3 = = = = '.r '.r 0 0 0 0 7 7 7 7 8 4 7 q {.{.{.5 3 = 3 3 9 9 9 7 = 3 = 3 8 8 8 '.].].{.",
"|.].'.'.9 7 7 8 e u r r 8 8 8 8 5 8 5 5 5 4 4 4 3 = = 3 r '.r q 5 q 0 5 7 7 5 8 4 8 4 q {.{.{.0 3 3 3 3 e 0 0 8 2 = = 4 7 7 8 }.}.'.].",
"8 5 5 0 5 3 3 3 9 8 8 8 2 6 = 2 u u u u |.|.|. X9 u e e u u '.+ b m M N H K K K K K H N n n [.q 0 0 e q r u u e = * = 8 e u 9 8 8 0 5 ",
"8 0 8 8 4 3 3 4 8 8 8 8 2 6 6 2 '.r u u |.|.|.|.9 9 m M H J E ( E Q E Q Y Y ~ Y Y Y Y Y L E Y P E J H M u r r e * * = 8 e e u 8 0 5 8 ",
"8 5 8 0 4 3 3 3 8 8 8 8 2 2 = * u '.u u ].].|.G E E W W / Q Q Q Q ( ) ( ( W Y W Y Y Y Y Y E P P C C L C P E J n * = * 8 9 u 9 8 5 0 0 ",
"0 0 0 5 3 3 3 3 8 8 8 7 2 * 6 2 u u u b N K ( / P I Q / / Q Q 2.,.9.9.( ~ ~ W W ) Y W ~ Y W Y Y A P C C A L L E ^ H 7 5 8 8 8 9 0 0 0 ",
"r q q q 8 8 7 8 = = 2 2 3 3 3 7 u N B T Y Y P I Y W Q / / Y E J ....O.;.-.t.w.Q ~ Y R W Y W R ~ ~ ~ R Y Y A C P A A ! J n 2 * q q q q ",
"e q r q 8 8 7 7 * 6 2 2 5 3 M B T S A D T Y Y Y Y W Q ~ W W W U ..{ 1 1 @.| ;.3.R <.2.4.4.q.q.4.4.4.4.q.q.R A Y A A A A S U 3 e r q q ",
"e e q q 8 8 7 5 = 2 = 3 3 U Y P C Y Y P Y W Q ~ / Q Q Q / / ~ Q 7.j.f.k.k.h y ;.5.4.5.u.5.1.R F F F *.R ,.2.D D A A A A D Y T J q q q ",
"e q q q 8 8 5 5 & 2 &.>.F S F W Y Y P P L W Q ~ / / ! ~ W W Q ) _ ^.v.k.y { y #.i.5.6.6.5.*.D F T R R D V D D D A A A A S Z Y A ! r q ",
"'.r r r 0 5 8 4 k >.3.<.2.R R Y P P W P S W Y R ! ~ Q 0.y.:.U.R.^.h.h y y l.l.@.p.4.5.6.5.*.3.R ~ Y F R *.1.4.2.S D D V A Y D A A Y 7.",
"r r r '.0 8 8 =.&.*.4.R R A A P Y P Y W Y Q R 7.H >.) 7.o.+. .v.v.d y x.k.k.x.@.:.<.<.5.6.>...;.8.2.D <.5.6.5.4.4.2.F V A D Y R R A A ",
"r '.r r 5 5 >.1.1.*.Y Y Y Y P W Q W W Q E _ ( [ ' >.w.j.t k M.C.B.x.j z.k.+.j y H.r.R 2.6.t.X.@.o.:.<.S <.5.1.*.R <.4.F A 4.<.S R T P ",
"q r q q J 1.<.1.<.V C Y Y W W Q ) W I I Y ) ^ ' [ 3.w.h.g l z.v z.x.x.x.x.k.l j #.I.t.t.a.p.#.t y | R.Y S 1.5.3.V D 4.4.D D 5.F A R ~ ",
"4 4 3 &.*.4.R A P W P Y P W P ~ W Y ( J E ) ( J 7.R w.h.t x.z.h x.z.l z.k.j j k.k.+. .#..X.X.Xv.l.y O.2.Y F 5.4.D V F u.1.V 4.u.F V D ",
"3 4 <.<.6.<.V C I Y P W P Y I ! W 7...X.E.) ~ ( ~ Q y.| j j h d M.N.l z.x.k.g j t y k.n.OXOXoX@.f.t ;.2.R D 4.u.F V D u.1.V R u.<.A V ",
"3 3.<.<.P A V P I W W Y W Y W P -.h.< g O.:.E.R.r.U.O.l.v z l x.z.M.x.x.x.C.j x.k.j j x.%.oXm.n.y ] i.2.R D R 4.4.F D <.5.D D 4.2.V V ",
"<.1.<.A P P P W W I Y W W Y ~ 9.h.< d g < } g.g. .f.l.z.h l z.z.z.z.M.x.z.x.y k.k.k.z.l y y y l.] :.,.~ Y R R 4.4.R D R 5.F Y 4.5.<.2.",
"1.R A P L E W W Y Y W Y W W / j.1 d d l l h h g g g l l.x.M.c.l M.z.M.x.z.x.l k.j z.x.j h n.y ] ;.9.Q ~ Y R R u.4.1.<.R 5.2.D <.4.2.i.",
"~ A P P I Q W W W W W Y Y / -.{ l l h l l x.h g z.l l z.l z l l z.g x.M.l b.x.x.b.x.b.k.k.x.+.;.e.( Q ~ W Y R 5.q.4.F F 2.5.Y <.4.F 4.",
"A A A P Y W W W Q Q W W Y ,.O.1 d l d h z.x.h l l h z z.g l l l b.z.h l l j x.x.b.k.k.l h y ] 7.~ ~ Q W Y Y D 4.5.4.R D <.u.R F 4.S R ",
"P P P P W W W W Q Q R W Y 9.[ z.d l d d d l l d g l l x.M.z.g l x.x.z.l x.V.z.l x.x.k.x.C.x.| 9.W ~ W Y Y Y Y 4.u.q.R D Y q.R R 4.R 4.",
"P A P P W W W Q I W W W P 7.{ l x.d s d d z.x.d s v d B.V.z.M.z x.V.x.l z V.h h b.x.x.x.x.k.h.i.~ ~ W Y Y Y Y 4.4.4.R R Y R Y R 2.4.4.",
"P P L I / P I P P I Y W Y 7.} z.h s d l l l z.d d d z.z.z.z.M.M.z.l h j b.x.l l z.j z.k.b.k.| 8.~ ~ ~ Y R W I W R Y D Y T T R Y D Y T ",
"L P P I / P I I Y I Y W W ^ f.B.l d v d l l h g d g z l g x.l l j z.l x.b.k.k.j b.h V.j k.l.| 7.Y Q ) W ~ W W P ~ 2.2.R 2.~ R R ~ R R ",
"L I I I Q / Q W / W I Y Y ^ f.M.M.l l d s s l B.l l l l d g l g l j x.z g g j j z 3XsX6Xx.l.} :.0.Y ~ I W R Q W ~ ~ ~ ~ ~ ~ R 2.R R ,.",
"I I I / / I Q 0./ I Y Q W 7.{ d l v h s l g s l z g s s l l M.z h l z J.6XaXS.t k aXxXaXk x s h.U.8.r.9.W R R Y ~ ~ Y Y W D 2.q.R R Y ",
"I I I / I I / ) ) I P Q Y 9.g.x.x.l s h l v l h d s l h l v z.h h l g 2XxXxX%Xg j z K.g z.l h 1 +.| o.I.y.R W Y Y W ~ ~ Y Y 2.0.R Y Y ",
"I I I I I I Q Y W W Y ~ ~ ( [ v l s d h d s s s s h l g d l l z l V.j v 2X;Xk k x.x.c.n.c.z.x.b.v z g { X.7.I ~ ~ ~ R Y Y ~ 2.2.Y Y Y ",
"I I I I I Q Q / / Q Q ~ ~ 9...l B.z.l l d h s g h l l h l l h z z V.V.j z j j j l z.N.C.l l x.k.x.c.z.l t -.( ) Y Y ~ Y A ~ 2.R ~ R R ",
"I Q I Q W W W Q W Q W ~ ( ) ;.a x x.s h s h s M.l g k s z k g l z j M.j v x.b.z.l z.C.b.z.x.l k.x.n.x.z. .-.Y Q P Y W ~ Y 0.2.2.~ 2.2.",
"Q Q I I I W W W W W Q ~ W Y -.s d d k d h s s l s < l l z z l z z j V.z l j x.M.x.b.x.V.x.V.k.k.x.l.l.X.-.,.Y Q W Y R ~ W 2.0.~ R w.0.",
"Q Q W I W P W Y W Y I Q ~ Q 9.1 z.s d d x.l h l g h l h z g h l l g z z l l M.l x.x.z.z.j l C.x.x.j H.y.! Q Q E ~ R ~ R W ~ R ~ 2.R ~ ",
"Q I I I Q Q W W Q Q W Y ~ W 0.f.N.g z.x.l C.s M.v l g g k l M.z k l V.V.V.b.C.< x.l g l V.k.x.C.C.+.!.q.0.Q Y P 0.0.0.~ R R 0.0.2.~ Y ",
"W Q Q Q Q / Q Q Q Q ( ~ ~ R ) o.h h g z.z.v B.z.l g l g g z z z V.M.z x.l j b.l j x.V.V.z.x.b.l.k.t O.i.) ) Q E ~ R 0.0.q.0.~ ~ R ~ D ",
"Q Q / Q ) ) Q Q W W ~ W Q ) ) -.< l h l z.l x.l l M.z g l z z l x.V.z x.x.z z.l z z V.n.z.x.x.c.oX$.%.6.Q ) / Y Y ~ ~ 2.w.R Y R R ~ R ",
"Q / Q Q / Q Q Y Q Q W Q Q 0.Q 7.{ j N.x.h h l l z z M.z z l l l M.x.x.z.x.V.j l x.x.z.x.M.x.x.n.oXOX$.t.0.) Q Y W W ~ ~ ~ ~ ~ Y ~ R Y ",
"Q Q I Q Q Q / W ) ) ~ ~ ) ) Q 9.| l l l M.s l h l s z v l l v l z z l l x.j h z.x.l x.z.l b.j l.m.m.] ;.w.) Q Q W W W Q W Y ~ ~ ~ R S ",
"/ Q Q ) Y Q ) Q ) ) ) Q ) ~ ) 0.j.M.l h h l z.g l l g k z M.z l V.M.l l k.g z.V.C.z.C.l z.h t @.l.oX$...r.Q W ( W Q W W Q Q ~ W Q R ~ ",
") ) ) 0.( / Q ) ) ) ) W ) ) ) 2.;.g b.l s B.z.l V.B.l j g z z l z M.l V.C.x.z.M.x.b.x.h z.V.x.n.OXm.m.@.:.9.Q ) Q ) E / Q Q W E Y ~ R ",
"Q ) ) Q ( Y Q ) Q Q ~ Q ~ Q Q ~ -.s l z l M.l l M.l z.C.l l z M.d l M.x.B.z.d N.C.z.z.k.A.n.k.h n.XXc.$.] Q.r.) ~ ~ Q Y Y Y Y ~ E P i.",
"Q ) 0.Q / Q Q Q ) ) 0.Q Q ~ ~ 2.y.f.k l l l z v M.l v l l l h l g g l x.B.x.d x.C.x.l x.M.x.b.k.+.c.n.D.m.@.O.R.0.~ Q Q Q / Q Y P w._.",
") ) ) Q / Q Q ) 0.0.) ) ~ ~ Q 2.R.f.l g k l M.x l l z l z z j z.x.M.x.z.z.z.M.M.l l z.k.z.z.x.z.h c.x.x.l.h +.| :.9.W ~ ~ W E Y ~.1XE.",
") ) 0.) ) Q Q ) ) ( Q 0.) ~ ) ~ R.z.M.x.l k M.z z z g g l l M.z.l M.M.B.z.M.z.M.z.x.C.x.z.h l k.x.F.B.c.N.N.D.l | R.,.~ ~ Y Y /.rX^.<.",
"~ ) w.0.~ ~ ) ) ) Q ~ ~ ) ~ ~ ~ 8.l.B.M.l a l v z l M.s M.l l l d l M.M.M.l s d C.n.h l M.l h x.z.M.x.h V.M.x.M.x o.t.0.<.1.<XpX_.5.~.",
"w.) w.` _ Q ) ) ~ W Q ~ Q Q Q ~ U.f.v d l l l d V.v V.h V.B.l l l l M.h M.M.l l C.C.z.z.x.z.x.x.d z.N.l z.z.z.k.B.d j.u.~.jXjX^.&.~.7.",
"T./ Q 0.( ) Q Q Q ~ ) ) ) Q Q ~ :.k.B.z.x.B.v d B.B.M.M.V.z z V.A.l z.z l M.z.l z.z.z.z.z.z.x.z.x.x.x.z.k.z.h k.x.x.D.,XfXfX1X1.3.t.!.",
"T.T.) ) ~ ( ) ) ) ( ) Q ) ) Q ( ;.g z.M.F.M.l x.l l z l z z l v C.l C.z.M.C.V.C.V.M.C.n.z.x.x.c.x.z.k.z.x.z.c.k.M.*XyXdX9X~.6.3.^.9XB.",
"qX`.W.` ( / / / ) ) ) / ) ) ) ) I.V.z.B.C.v z.B.B.M.z j M.V.z B.B.h C.V.M.M.z.B.z.z.C.z.z.N.N.x.y h z.l x.c.n.&X:XdXyXD.p.6.i.:.6 6 6 ",
"zXzXpX`.` I / / / / W ) ) ) / T.Q.C.B.A.M.M.v z.M.l z z V.z h l M.x.l M.M.l B.M.l V.x.x.x.z.N.x.g z.C.z.b.D.=XwXwX*Xk.t ;.y.Q.,Xe r r ",
"0XzXzXzXkX).( _ ) ` ) / _ _ s.T.g.x B.B.M.v M.Z.Z.M.x.z g z g g A.S.V.V.B.M.h A.x.M.g z.s C.x.x.k.M.N.C.#XwX>Xn.1 , 1 $ f.,X8Xc r r r ",
"a.<XjXpXtXkXiX`.W.W.s./ / Q 0.E.v.B.B.B.A.C.z.v V.M.l l j V.M.z v A.M.C.F.G.x.z.N.z.z.C.z.C.c.C.c.@X&X&X&X@Xx.< > : : p yXP.* r r e e ",
"<.i._.rXuXtXqXtXtXqX`./.T.s.` R.F.A.B.A.A.x.M.M.z M.Z.M.V.V.V.A.M.V.M.v C.F.A.x.C.N.x.x.F.G.C.F.G.@XG.XXc.< > p > - f K.f * * e u u u ",
"T.w.w./._.rXuXqX0X0XuXpXuX`.).(.$XL.J.J.Z.J.Z.Z.V.M.V.Z.V.Z.Z.V.v A.B.M.l.F.A.x.C.N.C.F.@XC.G.L.A.z.l < , : p $ p K.i = * = = 2 = = = ",
"(./.T.w.0.~.<X0XtXtXuXuXuXpXgXjXhX7X2X2X2X2XK.+XJ.J.J.M.G.G.S.z C.+XD.C.D.V.C.S.XXS.G.@XG.V.M.z.h h s > - p p - K.i 6 = = * * = = = = ",
"9 L.9X/.r.W F E.<X0X).0XpXjXzXlXxXxXhXhX7X7X7X2X2X%X-X#X#XXX+XXXG.G.XXXXXXb.=X#X=X#X@XC.s l b.V.K.B.; @ a 2Xi 3 6 6 6 = = = * = = = = ",
"9 r u P.(.w.( Y E E.Q _ ^ W./.eXsX7X7XsX7X7X2X2X2XL.#X:X4X4X=X+XXX&X=X:X>XwX4X=XC.z V.v J.L.c ; @ . X ; $X; 8 8 6 7 7 6 2 6 = = 2 2 2 ",
"6 = * * $ P.Y.T.Y L Y P I 0.q.Y.N.%X-X;X3X7X5XwXyXyXdXhXzXxXlXdXdXwXwX:X&XD.n.g g k , - % @ . . . f 7 7 7 6 0 8 8 6 7 9 9 9 9 7 6 6 6 ",
"= * * * 0 q p d.Y.U.( I L L w.W.{ x l k V.D.=X=X=X:X4XyXdXdX6X%XZ.v k.t 1 z.s , - O . .     3 7 9 8 7 7 8 0 8 9 8 4 7 8 9 0 9 6 3 4 3 ",
"2 * * * 0 r e r * $ [ Y.Y.R./.R.[ # - % O # % & : % , t +X#XS.g < v , % % % O X @ o o = 6 6 6 6 7 8 8 7 0 8 0 8 8 8 7 9 0 9 9 6 6 7 7 ",
"* * * & 0 r r r * * = 3 O p L.h.8X2X4X:X;X=X+Xj j % , +X+Xg c a O % @ X - c 2 4 & & & * 3 7 7 7 8 7 8 7 8 9 9 9 3 7 6 7 9 9 7 e q 0 q ",
"e e 9 9 9 7 8 7 8 7 8 9 3 = = 6 @ c i c 2X3X;X$X4X$X% k 2Xv c $Xo X |.[.e u '.u 8 8 7 9 r r r r 9 9 9 9 5 8 4 3 2 2 2 4 7 7 7 }.'.'.'.",
"e r r r 0 7 7 0 7 9 7 9 2 2 3 3 6 7 6 7 = = = = 3 3 3 3 3 3 6 3 '. X]. X'.u '.u 8 8 8 9 r r r r 0 0 0 9 8 8 7 3 = = = 3 8 8 5 [.[.].|.",
"e r r r 0 7 7 7 0 7 8 8 3 3 = * 3 6 3 7 = = = = 3 = 3 3 3 3 6 3 '. X]. Xu u u u 8 8 8 8 r r u r 0 0 9 9 5 8 8 7 = = = 7 5 8 5 {.].].|.",
"r r r r 0 7 8 8 0 7 7 7 3 6 * 6 3 4 4 3 = = = = 3 2 3 3 4 6 3 3 |.|.{.j '.'.u u 8 8 8 0 r '.'.r 9 e 8 9 5 4 4 4 = = = 7 5 8 5 k }.|. X",
"0 e e 0 0 7 7 7 7 7 0 0 2 * * * 0 r r r 3 3 3 = 9 9 0 9 u u u '.5 3 4 3 * 2 = 2 8 7 7 9 q q q q = = = = u u u 0 * = * 8 e q w 8 0 7 0 ",
"0 0 e 0 7 7 7 6 7 0 7 7 * * * * 5 r r r 4 2 3 3 9 9 q 9 u u u u 4 3 3 6 = 3 3 & 4 8 4 9 q q r q = = = 2 u r u e = * = 8 q q e 8 8 0 8 ",
"7 e e 0 0 7 7 6 7 7 7 0 * * * * 5 r r r 4 3 3 = 9 5 q 9 u u u u 4 4 3 6 & = 3 3 3 8 8 9 q q q e = = = 3 u u r 9 = = = 8 e e q 8 0 7 0 "
};
