/* XPM */
static char *a9631344a09543a7fa24f4ae305d35e7oSbL0PiCeCYfpu6r[] = {
/* columns rows colors chars-per-pixel */
"67 70 141 2 ",
"   c #1D0E02",
".  c #1E1204",
"X  c #1F1A03",
"o  c #1E140A",
"O  c #1D1C0C",
"+  c #1A1511",
"@  c #1F1C15",
"#  c #1E1B18",
"$  c #220E04",
"%  c #231304",
"&  c #291707",
"*  c #231B05",
"=  c #2B1A07",
"-  c #241509",
";  c #29160A",
":  c #251B0B",
">  c #2B1C0C",
",  c #331D03",
"<  c #321E0C",
"1  c #231B13",
"2  c #2B1D11",
"3  c #201D19",
"4  c #321E11",
"5  c #25220A",
"6  c #2D210D",
"7  c #332406",
"8  c #392605",
"9  c #372901",
"0  c #3D2903",
"q  c #33220E",
"w  c #39230E",
"e  c #372A0A",
"r  c #3A2D0B",
"t  c #2E2212",
"y  c #2B2D17",
"u  c #2C231C",
"i  c #2D2C1C",
"p  c #332312",
"a  c #3A2412",
"s  c #352816",
"d  c #3C2A16",
"f  c #32251A",
"g  c #392619",
"h  c #34291C",
"j  c #3C2B1B",
"k  c #3E301C",
"l  c #272320",
"z  c #2B2623",
"x  c #2E2825",
"c  c #352D24",
"v  c #3B2D22",
"b  c #362E29",
"n  c #343422",
"m  c #3D3024",
"M  c #3C342D",
"N  c #3F382D",
"B  c #442B0F",
"V  c #492E0F",
"C  c #453304",
"Z  c #4C3207",
"A  c #46320C",
"S  c #4B340A",
"D  c #412714",
"F  c #412A15",
"G  c #422E1C",
"H  c #443115",
"J  c #493010",
"K  c #45311D",
"L  c #48321E",
"P  c #422F22",
"I  c #443221",
"U  c #4B3421",
"Y  c #48392A",
"T  c #4A3C31",
"R  c #4E401A",
"E  c #52431C",
"W  c #5C491F",
"Q  c #6E5914",
"!  c #7A671E",
"~  c #405326",
"^  c #425628",
"/  c #465C2B",
"(  c #495F2D",
")  c #494036",
"_  c #484139",
"`  c #50483F",
"'  c #4A5F30",
"]  c #625023",
"[  c #695320",
"{  c #735E2A",
"}  c #6E5C37",
"|  c #4B632E",
" . c #4F692E",
".. c #516C2F",
"X. c #4E6631",
"o. c #4F6931",
"O. c #506B33",
"+. c #536C33",
"@. c #536D33",
"#. c #556F31",
"$. c #526B35",
"%. c #546F34",
"&. c #586F37",
"*. c #586F38",
"=. c #547031",
"-. c #547033",
";. c #557136",
":. c #567434",
">. c #587234",
",. c #597636",
"<. c #5A7637",
"1. c #5D7A37",
"2. c #577138",
"3. c #5B7539",
"4. c #5A7639",
"5. c #5A763A",
"6. c #5E7B3B",
"7. c #5F7C39",
"8. c #5F7B3C",
"9. c #756429",
"0. c #6E6139",
"q. c #776832",
"w. c #607D3B",
"e. c #617D3C",
"r. c #607D3D",
"t. c #607C3E",
"y. c #514942",
"u. c #5F7940",
"i. c #947E3D",
"p. c #8D7843",
"a. c #64833D",
"s. c #66833F",
"d. c #66853F",
"f. c #67883F",
"g. c #68883E",
"h. c #658343",
"j. c #668541",
"k. c #688741",
"l. c #688543",
"z. c #9B8B4D",
"x. c #A4924A",
/* pixels */
"h.j.j.d.;.O.O.O.8.w.r.w.@.@.@.@.O.O.O.O.| | | | ( ( ( ( w.w.w.6.;.;.;.%.O.O.O.O.O.O...>.g.k.f.-.| | | | ;.;.2.$.| | / | ..O.O.h.j.d.d.",
"j.d.j.d.;.O.O.O.8.w.r.w.@.@.@.@.O.O.O.O.| | | | ( ( ( ( w.w.w.6.;.;.;.%.O.O.O.O.O.O...>.g.k.f.-.| | | | ;.;.2.$.| | / | O.O.O.h.d.d.d.",
"d.d.d.d.;.O.O.o.6.w.r.7.@.@.@.@.O.O.O.O.| | | X.( ( ( ( w.w.w.7.;.;.;.%.o.o.O.O.O.O.O.,.g.g.f.-.| | | | ;.>.;.$.| | / | O.O.@.j.d.d.d.",
"h.s.h.d.;.o.o.o.6.r.r.6.O.@.@.$.#.@.@.@.|  . . .| | | | w.w.w.7.-.;.;.@.o.o.O.O.O.O.O.:.g.f.g.-.| | | | ;.;.>.O.| | / | O.O.O.h.h.h.h.",
"#...@.@.M M M m v m v v v v v v v v v v v v v v v v v v v v v c v u u u v v v v v v v v v v v v v v v v v v v v m v m M M M 4.%.#.#.#.",
"@.#.#.#.b c v j k k k j j j j j j j j G G G G G G G G G G j j j v u : 1 j G G G G G G G G G G j j j j j j j j k k k j v c b 4.#.#.#.#.",
"@.#.#.#.m v j d d j d s s s s s s s j j j j d d d d j j j d s j j u - 1 s j j j d d d d j j j j s s s s s s s d j d d j v m 4.#.#.#.#.",
"%.#.#.#.m j s w w a q q p p p p p p p p p p p p p p p p a q q p p 6 : 1 q p p p p p p p p p p p p p p p p p q q a w w s j m %.;.;.;.;.",
"4.4.,.4.v j a w w q > > > > > t p p p p f f t t t t f p t 6 q p t = : 1 q t p f t t t t f f p p p p 2 > ; > : > < q w a j m ( ,.,.,.,.",
"4.4.,.4.v j a a < : .   $ $   -   : p p p p p u : - % % % : . % t > 2 1 : % % % - : u p p p p p -   -   $ $   . : > a a j m ( 4.,.,.,.",
"4.4.,.,.v j a p > - . % % % % % % : p p p p > > - % % % % % % * t > 2 1 % % % % % - > > p p p p : % % % % % % . - > p a j m / 4.,.,.,.",
"4.,.,.,.M j p 2 - o % : : : : > j j p p p 2 : - : > > & & > s p p > : 1 > * * : > : - : 2 p p p g j > : : : : % o - 2 p j M | 4.6.6.1.",
"7.7.7.6.b h f 2 o o : > > > > > v P p p p > % % > > > > > q I j p 2 2 1 q > > > > > $ $ > p p p P v > > > > > : o o 2 p h b >.r.8.8.8.",
"7.7.7.7.x h f 2 o o : > > > > > j j p p p > % % > > > > > q K j p p 2 1 q > > > > > $ $ 2 p p p j j > > > > : : o o 2 f h x ;.7.7.7.7.",
"7.7.7.7.z c u 2 o o : > > > > > k j q p p > % % > > > = = q K j p 4 2 1 q = = > > > $ $ > p p q j k > > > > > : o o 2 u c z ;.6.7.7.7.",
",.1.1.4.y.T f 2 o o : > > > = > k j q p p > $   > > > > = q K j p 4 2 1 q = = > > > $ $ > p p q k k > = = > > : - o u f T y.%.r.r.r.r.",
"X.| | | ) Y p 2 o - : > > = = 6 k k q q p > % o > > > > = q H j p p 2 1 q = > > > > o % > p p q j k 6 = = > > : - o 2 p Y ) O.X.X.X.X.",
"X.| | X.h j q > o o : > > > > 6 k j q q q >   o > 2 > > = q K G p p 2 1 q = > > 2 > o   > p q q j k 6 > > > > : o o > q j h $.| | | | ",
"X.| | X.h j < < o o : 2 > 6 > 6 k d q q p >   o > 2 > > > q K G p p 2 1 q > > > 2 > o   > q q q d k 6 > 6 t 2 1 o o > < j h O.| | | | ",
"X.| | | v j a < o o : > 2 6 > q K K q q p >   o > 2 > > < q K G p 2 2 1 q < < > > 2 o   > q < q K K q 6 6 t 2 : o o < a j v X.| | | | ",
"| / / ( c j a 4 o o : 2 t 6 q q K K < < p >   o 2 t t q q q K j p 2 1 1 q q q t t 2 o   > p q q K K w q 6 t 2 : o o 4 a j c | / / / / ",
"| / / / c j a 4 o o : t t t w a U K < < q >   o u p p q q w K j p 2 1 1 w q q p p 2 o   > q < < K U a w t t t : o o 4 a j c | / / / / ",
"| / / / c j a 2 o o 2 u t t q a U K < < < >   o u p p q q w L G p 2 1 1 w < q p p u o   > q < < K U w w t t t 2 o o 2 a j c | / / / / ",
"| / / / c j a 2 o o 2 u t t q q K K < < < >   o u p p a q w L G p > 2 1 w q q p p 2 o   > q < < K K q q t t u 2 o o 2 a j c 2.| X.X.X.",
"%.X.o.X.c j a 2 o o 2 p 4 4 a a K K q q a > o o 2 u p p w d K G p > 2 1 d w a p u u - . > q q q K K a a 4 4 p 2 o o 2 a j c 7. .O.O.O.",
"%.X.o.o.c j p t o o > p 4 4 a a K K q q a >   o 2 u p p a F K K p > 2 1 F a a p u 2 o   = q q q K K a a 4 4 p > o o t a j c 8. .O... .",
"%.X.o.o.c j p t o o > p a 4 a a K K a q a >   o 2 p p a a F K K p > : 1 d a a p p 2 o   > a q w K K a a 4 a p > o o 6 p j c 6. .X.X.X.",
"%.X.X.X.b j p t o % 2 p a a a a K K a a a >   o u p p a a F K K p > : 1 F a a p p u o   > a q a K K a a a a p 2 % o 6 q j b 4.X.X.X.X.",
"/ / ^ ^ b j p 6 - - t f p a a a L K a a a > o % t p p a w F K H w > : 1 F w a p p t % o > a a a K L a a a a f t - - 6 p j b ( / ^ ^ / ",
"/ / / / b j p > - : p g p a a a K G q a a > % : t p p w w F H H w 6 > 1 d w w p p t : % > a a q G K a a a p g p - - > p j b ( / ^ ^ / ",
"/ / / / b j p > - : p g a a a a L G < a a > % : t p p w w B H H w 6 2 1 B w w p p t : % > a a < G L a a a a g p - : > p j b ( / ^ ^ / ",
"| ( ( ' b j p t : : p g a a a a L G q a a > - : p p a w w F H H p 2 2 1 F w w a p p : - > a a q G L a a a a g p : : t p j b | ( ( ( ( ",
"X.o.O.O.b v p t : : p j d d F G G F < q a > - : g G D B V J H H w > 1 1 J V B D G g : - > a q < F G G F d d j p : : t p v b | O.O.O.O.",
"X.o.o.$.b v p t : % p I G G U L G d q q p > - : j G B Z Z S A H e 6 2 1 S Z Z B G j : - > p q < d G L U G G I p % : t p v b | O.O.O.O.",
"X.O.o.$.c f p > t > p g g d D d d d p a p p 2 4 w A p.i.Q [ W R e q 2 1 [ Q i.p.A w 4 2 p p a p d d d d d g g p 6 t > p f c | O.O.O.o.",
"O.-.-.-.u f p > t t p p q a a a a w p p p p p a 7 C z.x.! { ] E e 6 > 1 { ! x.z.C 7 p p p p p p w a a a w q q p t t > p f u ^ 4.6.6.6.",
"%.r.6.7._ T p t t t p p q w w w w w p p p p p p 7 9 q.9.C 0 8 8 7 q > 1 0 C 9.q.9 7 p p p p p p w w a a q q p p t t t p T _ ~ 8.7.7.7.",
"%.8.7.7.` T p p t p p a a q a w w p p p p p p 6 = r 0.} 8 , , 7 w a 2 1 , 8 } 0.r = 6 p p p p p p w w a q a a p p t p p T ` ~ 8.7.7.7.",
"@.7.8.7.N m p p t > % % % % % % % & > p p p p > . % > & % $ ; % a 4 2 1 $ % & > % . > p p p p > & % % % % % % % > t p p m M ~ u.7.7.7.",
",.4.4.,.b s p p - : % % % % % % & & p p p p > : . . % % - ; ; > p p 2 1 ; - % % . . : > p p p p & & % % % % % % - - p p j b X.O.......",
"6.@.#.%.c s p p . . % > > > > > s s p p p p . . - : : > > 4 j j g > > 1 4 > > : : - . . p p p p p s > > > > > * . . p q s c | @.O.O.O.",
"1.@.#.%.c j q p . . : > > > & > k s > q p p . . - : : ; ; ; j G a a > 1 ; ; ; : : - . . t p p > s k > & > > > : . . p q d c | @.O.O.O.",
"1.@.#.%.n j q p o . : > = = > > k d q q p p . . : : > > > 4 G j a 4 > 1 4 > > > : : . . p p p 6 j k > > = = > : . o p q j n X.@.O.O.O.",
"4.;.;.;.h k p p - o : > = = = > k j q p p p . . : > > > > 4 G j p < : 1 4 > > > = : . . p p p 6 j k > = = = > : o - s s k h o.4.,.,.,.",
";.4.,.,.c m s s * % : > > = > > k j q p p p % . : = > = = a G G w > > 1 a = = > = : . % p p p q j K > > = > > : o % p s m c X.2.,.,.,.",
";.4.4.4.u m s p o % : > > > > > G j p a t p % . : = = = = q G G q > : 1 q = = = = : . % p p p p j G < > > > > : % o p p m u X.4.:.:.:.",
";.4.4.4.+ m p p % % > > > > > < G G a p p p % . > > = = = w G G q 6 : 1 w = = = > > . % p p a a G K < > > > > = % o p p m +  .2.4.4.4.",
"| | | | @ v p p % % > > > > > < G F a p q p % . > > q < < a G H w 6 : 1 w < < q > > . % p 6 a a G K < < > > 6 > o o p p v @ 6. .o.o.o.",
"| / / / 1 v s t - o = t p q < q K G a a p p % . > 6 q < < a K H w 6 : 1 a < < q 6 > . % t p p a G K q < q p t > o % t s v 1 r.| | | | ",
"| / / / 1 v f u - o > t 6 6 < q K G a a p p % . > 6 q < < a K H q > : 1 a < < q 6 = . % t p p a G K q < 6 6 t > o - u f v 1 r.| | | | ",
"| / / / 3 b f p % o 2 t 6 6 q q L G q a p p % . > 6 q a q a L K q > : 1 a < a q 6 > . % t p p q G L q q 6 6 t > o % p f b 1 r.| | | | ",
"X.X.X.X.3 b f p % % > p q q q q U G q a p 6 % . 6 6 < a q a L K q > : 1 a q a < 6 6 . % 6 p a q G U q q q q p > % % p f b 3 / 4.6.6.6.",
"| X.X.| 3 b f f - % > p q q w a U G w a a q * % 6 6 p a q a L K p > : 1 a q a p 6 6 % * q a a w L U a w q q p > % - f f b 3 / 8.6.6.6.",
"| o.| | 3 b h f : % > p q q w a U G w a a q * % 6 6 p a a a L K p > : 1 a w a p 6 6 % * q a a w G U a w q q p > % : f h b 3 / 4.6.6.6.",
"| X.X.X.# c h f - % > q p q w a U U w a q a % % > 6 p a a a L K p 6 : 1 a q a a 6 > % % a a a w U U a w q p q > % - f u c # / 8.w.w.r.",
",.s.r.r.+ 1 2 f - % > p p q w a U U a a q a $ % > t p a a a K K p 6 : t a a a a p > % % a q a a U U a w q p p > % - f 2 1 + ( | | | | ",
",.s.s.s.# b h f : % > q p q w a U U a a q a % % > p a a a a L K q > : 1 a a a a p > % % a w a a U U a w q p q > % : f h c # / ( ( ( ( ",
",.s.s.s.z y.m u : ; a p p q a a U U a a a a % % > p a a a a L K q > : 1 a a a a p q * % a a a a U U a a w p p a ; : p m y.z / ( ( ( ( ",
"4.s.r.r.l _ c f % % a a p q w a U G q a q a % % p p a a a d L K q = : 1 d a a a p p % % a q a q G U a w q p p a % % f c _ l | | | | | ",
"X./ / / 3 b u f % % p a p q q s K K a a q a & % p p p g a d K F q = : 1 a p p p p p % & a q a a K K d q q p p p % % f h b # ;.| X.X.X.",
"| ^ ^ ^ 3 b h f : & p p g s s G K j p p q p ; % p p g g g d K F q = > 1 s g g g g p % & p q a p G K G s s p p p & : f h b 3 %.| | | | ",
"| ^ ^ ^ 3 b h p > > p j j j K I I j p q q p > % s j j j j j K F < & > 1 j j j j j s % > p 6 q a j I I K j j j p > > p h b 3 %.X.X.X.X.",
"| ^ ^ ^ 1 c h p > > p s s p j j g a q p p p = % j G G P I G G j < = > 1 G I P G G j % = p p p q a g j j p s s p > > p h b 3 %.>.;.;.:.",
"6.8.6.8.@ c h t > q q p p q q < q q q p p p p q p p p p p p p p 4 > 2 1 p p g p p p q p p p p q q q > q p p p q 6 > t h c @ O.h.d.d.d.",
"6.6.6.6.i i : * * * = = = = : : = 6 t t p p t p t t t t > 2 2 2 > > : 1 2 > t t t t p t p p t t 6 = : : = = = = * * * : i i ..h.d.d.d.",
"6.6.6.6.n y 5 * . . . * * * * X X X * * * * : * * * * - - : - - * * : O : - - * * * * : * * * * X X X * * * * . . . * 5 y n O.h.d.d.d.",
"6.6.6.8.;.O.O.O.@.O.O.$.| | | | |  . . .( ( ( ( | | | | | | | | k.k.j.k.r.h.s.r.O.O.O.;.r.r.w.6.&.2.%.>... . .o.( ( / X...O...h.k.k.k.",
"@.4.,.:.@. . . .O.O.O.$./ / / / -.6.6.6.| | | | *.;.;.;.w.s.s.r.X.| | | | | | | O.O.O.@.,.4.,.4.( ( ( | r.r.w.2./ / ( @.4.4.,.#.%.%.%.",
"%.,.,.,.@.o.o.X.O.O.O.$./ / / / #.6.6.6.| | | | ;.;.;.;.w.r.r.s.| | | | ( ( ( | O.O.O.@.,.4.,.4.( ( ( | r.r.w.2./ / ( $.4.4.,.#.#.#.#.",
"O.,.,.,.@.o.o.X.O.O.O.$./ / / / #.6.1.6.| | | | ;.;.;.;.w.r.s.s.| | | | | | | | O.O.O.@.,.,.,.4.( ( ( | r.r.w.2./ / ( $.,.4.,.#.#.#.#."
};
