/* XPM */
static char *xpm_[] = {
/* columns rows colors chars-per-pixel */
"70 70 164 2 ",
"   c #1D0E02",
".  c #1E1204",
"X  c #1F1A03",
"o  c #1E140A",
"O  c #1D1C0C",
"+  c #1A1411",
"@  c #1F1C15",
"#  c #1E1B18",
"$  c #220E04",
"%  c #231304",
"&  c #291707",
"*  c #231B05",
"=  c #2B1A07",
"-  c #241509",
";  c #29160A",
":  c #251B0B",
">  c #2B1C0C",
",  c #331D03",
"<  c #321E0C",
"1  c #231B13",
"2  c #2B1D11",
"3  c #201D19",
"4  c #321E11",
"5  c #25220A",
"6  c #2D210D",
"7  c #332406",
"8  c #392605",
"9  c #372901",
"0  c #3D2903",
"q  c #33220E",
"w  c #39230E",
"e  c #372A0A",
"r  c #3A2D0B",
"t  c #2E2212",
"y  c #2B2D17",
"u  c #2C231C",
"i  c #2D2C1C",
"p  c #332312",
"a  c #3A2412",
"s  c #352815",
"d  c #3C2A16",
"f  c #32251A",
"g  c #392619",
"h  c #34291C",
"j  c #3C2B1B",
"k  c #3E301C",
"l  c #272320",
"z  c #2B2623",
"x  c #2E2825",
"c  c #352D24",
"v  c #3B2D22",
"b  c #362E29",
"n  c #343422",
"m  c #3D3024",
"M  c #3C342D",
"N  c #3F382D",
"B  c #442B0F",
"V  c #492E0F",
"C  c #453304",
"Z  c #4C3207",
"A  c #4B340A",
"S  c #412714",
"D  c #412A15",
"F  c #422E1C",
"G  c #443115",
"H  c #493010",
"J  c #45311D",
"K  c #48321E",
"L  c #422F22",
"P  c #443221",
"I  c #4B3421",
"U  c #48392A",
"Y  c #4A3C31",
"T  c #374D1F",
"R  c #364A22",
"E  c #3B4D25",
"W  c #3C4D29",
"Q  c #3E5226",
"!  c #3E5129",
"~  c #4E401A",
"^  c #52431C",
"/  c #5C491F",
"(  c #6E5914",
")  c #7A671E",
"_  c #405527",
"`  c #445A26",
"'  c #42552A",
"]  c #455A2C",
"[  c #495C2E",
"{  c #495E2E",
"}  c #494036",
"|  c #484139",
" . c #455632",
".. c #465B30",
"X. c #465B32",
"o. c #475C31",
"O. c #475D32",
"+. c #4B5E31",
"@. c #485D32",
"#. c #4B5D32",
"$. c #4C5F31",
"%. c #625023",
"&. c #695320",
"*. c #735E2A",
"=. c #6E5C37",
"-. c #49602D",
";. c #4A612E",
":. c #4A602F",
">. c #4C632F",
",. c #50692F",
"<. c #476032",
"1. c #4B6131",
"2. c #4B6133",
"3. c #4D6333",
"4. c #4E6433",
"5. c #4E6234",
"6. c #4D6435",
"7. c #4F6636",
"8. c #4F6A34",
"9. c #4D6638",
"0. c #506732",
"q. c #506735",
"w. c #516536",
"e. c #536A33",
"r. c #506B34",
"t. c #526837",
"y. c #526A36",
"u. c #546B36",
"i. c #526D36",
"p. c #556D35",
"a. c #536739",
"s. c #536938",
"d. c #546B39",
"f. c #556B39",
"g. c #536C38",
"h. c #556C38",
"j. c #586E3A",
"k. c #587036",
"l. c #577239",
"z. c #5A723B",
"x. c #5A713C",
"c. c #5F763E",
"v. c #756429",
"b. c #6E6139",
"n. c #776832",
"m. c #514942",
"M. c #556642",
"N. c #566945",
"B. c #5A6C45",
"V. c #5C6E49",
"C. c #5C7145",
"Z. c #5D7048",
"A. c #617745",
"S. c #607841",
"D. c #62764B",
"F. c #667A4D",
"G. c #657951",
"H. c #697C51",
"J. c #947E3D",
"K. c #8D7843",
"L. c #6D824E",
"P. c #6D8151",
"I. c #9B8B4D",
"U. c #A4924A",
/* pixels */
"W X.] ] y.8.8.i.i.p.] ] ! @.2.@.E T R ' W ' @.q.w.t.t.t.1.#.] c.c.c.>.:.O.O.2.O.O.] ] ] ] <.Q ] Q Q ] ] 4.h.f.p.q.0.' ] Q ] ] ] #.w.a. .' ' ",
"Q ] ] ] y.y.y.g.h.h.] ! ! <.#.#.E R E ' ' W 5.5.#.t.t.t.1.:.:.c.c.c.:.2.] O.O.] ] ] ] <.] O.Q R T 2.:.] 8.e.t.p.p.j.<.' ! O.:.@._ R R _ W Y ",
"] X.] O.2.7.7.9.8.7.:.{ ' @.@.{ E W W ' ' _ 5.q.w.0.t.t.{ ] { C.S.A.2.] @.] ] <.] ] ] ] ] <.Q Q R ] ] Q 8.e.8.k.p.p.` ' ' @.{ { W R R _ ! W ",
"9.] ] O.! ! ! ! ' ! h.z.p.] ' ' E W ! ' ' ' q.a.q.t.y.t.] ] ` _ Q ' ] :.>.q.7.y.@.] ] ` ] ] ] 2.<.<.] -.<.:.:.3.2.{ 4.` ' ] [ [ W W W ' ' ' ",
"8.] ] O.M M M m m m m n v v c v c v v m v v v v v v m v v v c c v u u u v v v v v v v v v v m v k c n h v v m m v n m M U M  . .E E _ '  .] ",
"5.:.:.] b n n k k k k k j J j j j k j k J F F F F F j F F F j j v t 1 1 j F F L J J F F F F L j j k j j k j k k J k v j n b ! ! } ' _ _ ` _ ",
"] a.4.7.b v j d d j k d j d s s d d d j d d F d S F d j g d g j h t - 1 d g D j d d F d j j d d j d d d s d d d j d j j v m ' ' ' _ _ ` ] ' ",
"] 9.y.q.m j s w w d q q 6 q q p p w p p p p e p p p d w p < p p s t 2 1 < p a s p e q w p p p p 6 p t q p p 6 p w d s s j v ' ' #.a.f.#.[ #.",
"{ f.q.q.L j a a w 6 > ; > ; 2 2 p 4 f p u f t u t y s t t q q s t > 5 1 q 6 s y t t i t t u s f p g 2 ; - > ; ; 6 w a a d v ' ' w.w.e.#.#.#.",
"] ] ` ` v F a D > *     $     -   - 4 f s s f t - - X % % - . - t > 2 1 * % * % - - t f s s s 2 -   -   $ % .   * 6 a a j L W ' q.e.0.[ #.>.",
"] { ] ' L v 4 4 2 - . % $ - % $ - - p p p p > ; - % . % % % % * p > 2 1 % % % % $ - ; 2 p p p 4 - $ $ - - % - % - 1 4 a j L W E w.t.e.{ [ [ ",
"] ` _ ' M j 4 2 - o % - - ; - 2 j g p p p 2 - - 1 - = & & 6 s s p 2 1 1 > * = ; ; ; - - t p p p g v > - ; - - % o - 4 4 j M E R q.y.p.@.] ] ",
"5.h.y.2.b c 4 2 o o - > > > > 2 k m s p s 2 $   ; > > ; = 6 k h p 2 1 1 < - > ; 2 1 $ $ 2 g p s L v > ; - > : - $ + 3 4 c b E E 1.f.a.] ] ] ",
"5.j.k.:.x f 4 # o - 1 : > ; > ; j j t q p 2 $ - > > 2 ; > q P j p 4 1 1 q > > > > ; o $ 2 p p t j j > > > > ; 1 1 o 2 f f x E E { @.#.] ] ] ",
"0.k.k.>.x c f 2 + o : > > : ; 6 k k q w p > $ $ ; 2 > > = 7 k d p 2 2 1 7 ; > > > ; $ $ > s p q k k > > ; > ; 1 + o 2 u g z ' ' Q Q ! Q ' ] ",
">.0.>.1.m.Y f 2 o + : > : = = 6 k k q p p > $ $ 2 > ; > 5 6 J k s 4 2 1 6 = = > > 2 $ $ > p q q k k 6 = > > ; 1 - o 2 g Y m.' ' E W W ] ] ! ",
"{ ] ] #.U U p 4 o o 1 2 > ; = 7 k d q q p > . . 2 2 > > = q k k p p 1 1 w = > > 2 2 . $ > p q q d k 7 5 : 6 : 1 o o 4 p U Y ' ' _ _ _ { ' ] ",
"] ] ] #.j D 4 4   o 1 > 6 > 5 > k k 6 q q 6     ; 2 > > < q K j g p 2 1 7 < > > 2 ; o   ; p q 6 d k 7 5 > : t : -   4 < d v ] ` ' _ _ e.0.t.",
" .'  . .v g 4 <   - 1 2 t 6 > 7 k d 6 q p ; .   > 2 2 > , 7 J G s 2 2 1 w = < 2 2 ; .   > p q q d k < = 6 t t 2 o   4 < g g ] ] ' ' ' 7.y.q.",
"_ _ _ _ v D 4 4 o . > 5 2 6 6 6 J J 7 q p >   o 2 2 > < < q K F a 2 1 1 q 7 < > 2 2 . . ; q q > J K 7 6 6 t 1 :   o 4 4 D v  .] ` ' ' s.5.q.",
"' _ _ E v g a < . o O 2 t 6 6 w J J < < < ; . % 2 p 2 4 7 w J J s 2 2 1 w < q 2 2 2 o   > 4 < 7 J P q 6 6 t 1 : o . < p j v O. .] ` ' ' E E ",
"W W _ E c g 4 4 o   : 2 t 6 w a I J < < 4 >     2 t p p q w J j s 2 1 1 w q q p p 2 $   > < < < J U w w 6 t t O . o 4 a j c { { ] ! ] W R _ ",
"#.#.{ 1.c j a 2 o o 5 t t t q a I J < < 4 >   . 2 f p q < w K k s t 1 1 w < 4 p u 2 o   > 4 , q J U e w t t t u o o 4 p j v { ] ] ] ] R W ' ",
"O.O.[ 0.c j p 4 o o u t t t q < J J < > < >   . 2 f p p q w K F s > 1 1 a < p t s 2 .   > < < < G J q q t t t 5 o   2 p g c { @.5.#.#.W R U ",
"] 2.:.i.c j p t o . 2 p 4 4 a w J J e q q > . - t t p p w d K F p > 2 1 d w p p u t - . > p q q J J a a 4 4 4 2 o . 2 p d c 2.2.w.a.5.W R E ",
"] ' ' 4.b j p > o . 2 4 4 4 a a J J w q p >   . 2 u 4 p a S P J s > 5 1 S p p p t 2 .   > 4 q w J F w a 4 4 4 2 . o t p j c 2.2.w.q.9.E R E ",
"' ' ' 2.c h p t o o 2 p 4 4 a a J J p w p ;     2 p p p a d J J a 6 : 1 D 4 p p u t     ; p q w J J a a 4 4 4 2 o o t t j c #.#.#.#.#.W W E ",
"! Q Q :.c j 6 t -   2 g a a a S J K a p p :   . t u p p a S J J p 6 1 1 D a p p t 2 .   > p a a K J a a a g g 2 % o > p h v >.{ E '  .'  ._ ",
"<.{ :.4.n v p > o - t g a a a a K J a a p > % - t u p a w S J J w > > 1 S a p p p t o . > p a a F K w a a g g 4 - : > p v b [ [ _ ' ' ' ' ' ",
"C.z.z.z.b j 2 2 o : t g a p a a K J < a a > % : t p a w 8 d G G e > 2 1 D 8 w p p p : o 4 4 a w F K w a a a g 2 : - > 2 j b @.` ' ' ' ' ' ' ",
"l.l.l.l.b h p 2 : : 2 g a 4 a a K F < a 4 4 % : 2 p p 4 w B D J p q > 1 B 8 a p p 2 - % > p a < J K a a a p g 2 - O 2 p j b E E B.k.a.' '  .",
"z.z.l.h.b j p t : : p g a a a a K D w a p 2 - - p a a a B B G G p q 1 1 S D w a g 4 : - 4 p w < F K w S a a g p : : 2 p v b W _ f.p.t.'  .' ",
"` ` >.p.b v s t 1 * s j D S S D J S 7 w 4 = $ ; d S S B V A G G w 6 1 1 H V V S S v - $ 2 4 q w S K D D S D j p : 1 2 s c b R ' j.f.t.] ] ' ",
"] ` 4.y.b c p t > o g F L F I J F g 7 a p 2 - 1 v F V V Z A C G q 6 1 1 H Z V V D L - - 2 p p 7 d F K I F L P g - : t g v c 5.@._ _ ' #.{  .",
"] ' 5.s.z 4 p > t 6 p s a S S S S d p p p 4 p 4 < V K.J.( &./ ~ e 6 : 1 ( ( J.K.V q 4 2 4 p p a d a S S a a s p 6 6 6 p s x y.7._ _ _ $.#.#.",
"] ] 5.a.z g 2 > t 6 p 4 4 a a a p w p p p p p p 7 A I.U.v.*.%.^ e 7 : 1 *.) U.I.C 7 p s p p p p a a a a a < p q t t 5 t f u y.1._ _ ' [ #.{ ",
"X.] 9.q.} Y p t t 6 p p a < a a w p p s t s p p 7 9 n.v.Z C , 8 w 4 2 2 B C v.n.9 7 p s s t p q q w w w a < q p t 6 t p Y | 2.:.` [ [ [ >.' ",
"] ] a.f.m.Y p s t y p p < w a w e p s p p s f > = r b.=., , , , w 4 2 1 , , =.=.0 5 q p s s s s e p w w 4 a a q p y t p Y | Q ] a.f.e.[ [ [ ",
"] ] 5.7.M m p t t > * % % % = % % * > p s p t 5 . % = = ; $ ; $ p t > 1 $ $ = = % . > 2 p p t 6 * % % % % $ % & 6 t t p m U Q :.p.k.w.[ ` [ ",
"O.X.Q Q n j p p * * % % $ % % % = = p p p s ; = . % - % ; ; ; ; g 4 2 2 ; % % - . o > : s p p q = = % % $ % % % * : p p h n Q ] a.p.w.` [ [ ",
"O.O.! ! n h p p . . * > ; > = > s e s p q p . . : : * 2 ; 4 g F g > 2 1 4 ; > 1 ; : .   p p p s p d 6 = > > > - . . t p j n :.7.t.j.e.{ #.{ ",
"] 2.! _ n j q p . . * ; > = = 6 J s > q p 6 . . : * * ; ; ; j v p p 2 2 ; ; ; - * * .   q 2 p > s k > = = ; > - . X p 6 j i :.4.j.t.e.#.w.{ ",
"h.s.f.h.n d > s o . * > > > : = k d 6 p p t . . : 5 > > 4 4 L F p 4 > 1 4 < 2 ; 5 = . . q p p < d k = > > > > * . . t q k h ] 1.f.f.w.#.[ #.",
"p.p.t.y.h j s s - . * > > = = 6 k d 6 p p 6 . . : > ; > ; 4 F j p < > 1 4 ; < > : : . . t p p q d k > = > > > - . o s e k h <.:.] { ` _ ' ' ",
"e.p.t.p.n P p s o o ; > > > = > F j < p q t % . : 6 > ; ; a J G q < : : p < ; > : : . % p 6 p < k k > > > > > > o o p s m x <.-._ _ _ E _ _ ",
"] ] 0.7.u n s p X % : > > < > < L D p 4 t p * . : : > = , q F D w > : 1 < = , > : 6 . o t p 4 4 j J 7 = > > q * % X p s m t <.] _ _ _ _ W _ ",
"Q _ 2.q.+ v p s . * > > > q > < J F p p t p % . > 6 > ; ; < J F q 5 = @ w , ; > 6 > . % p t p a F F < < > 6 > > o X t s v o 2.] [ ] ' _ _ ' ",
"_ Q :.2.1 c s s . o > q > > < < F F p p q 6 % . > < < < , S D F e 6 : 5 w < < < 6 : . * t q q p F J < > 6 > 6 > . . s f m @ 8.8.u.u.q.[  . .",
"Q ' e.8.3 v h t % % > 2 p < < q K F 4 a < a % . 6 6 q < < a K J w 6 5 1 a < < p 6 : . % p p 4 a F K < < q > p > . - t h v 3 5.4.p.p.t.{  .] ",
"Q O.k.k.# v f t - . > t 6 6 < q K F 4 4 < p % X 5 6 p < < w K F 6 6 : 1 a < < < 6 6 . * 4 < p a F K q < 6 t t > . - t f b 1 @.y.,.p.e.{ [ { ",
"Q ] k.p.3 b f p - . 2 p 6 q < q K K w 4 p t - . > q < p w a K J q 6 > 1 S < 4 q 6 6 . * q p p < F K < w > q t > . % t f b 1 ' e.c.k.t._ _ _ ",
"_ -.k.p.3 b f f % . 2 2 q q < w K F a a p < % % 6 2 < p w a K J q 6 * 2 S < 4 < 6 6 % % > p a < K K w < 6 p t 2 . - f f b @ ' 0.x.z.j._ _ _ ",
":.>.e.e.3 c f p - $ > p 6 q w a I K < < w q & % 6 6 p 4 w a K K p 6 : @ S w p p 6 5 % * p q a a K I S , w q p > $ - f f n 3 ] 1.z.c.,.E _ _ ",
"] 4.y.e.3 b x f -   > p q q w w K K S < q 6 & & 5 6 < a w S K J p 6 : 1 a a a < 6 6 - * < a w < F I w S q q s > $ % f x b 3 @.@.5.#.` ! Q ' ",
"] 4.y.p.@ c u u - $ 2 p p q w w I I w a w p % % > t p a p a K J p > 5 1 w w p p 6 > % % 4 w < S I I S w 7 p 6 > $ - f u x # @.! R R E ' ' ' ",
"] <.>.4.+ 3 2 f - $ > p e q 8 D I I w a q p $ % 6 t p p w a K K p 6 O u d w p p q > % % a < S < I I S , q p p > $ - f 2 3 + #.' W R E ' ' ' ",
"<.' _ Q # c f f - % > p w q w w I I a 4 w 4 % % > p a 4 w w K J q : : 1 d q a p p 6 % $ w w 4 S I I w w q w q 6 $ - f h c # @.W R R } ' _ ' ",
"{ _ Q ! z m.m f % - p a s w w d I I 4 S 4 S $ = q p p p a d K J p 6 1 : d p p p p < * % 4 a S 4 I I D a q p s p & - t m m.z ] _ W _ E ' ' { ",
"{ _ ' ! l | c s % - p p q q w d I F < a w 4 & % p p p p a a K J 7 = : 1 a 4 a p p q & % a 4 a w J I a w q e w p & % g c Y l ' ' _ W ' ] ` { ",
"q.{ O.X.# b u f ; & q p q q w d P F a p < S & & p p s a a d J F > = : 1 d a a p p q & ; a < w 4 F P d p 6 p p p & - f u b 3 ' ! _ E _ ] ] 1.",
"a.{ [ X.3 b h f * = p p a s d F J j p q q p & & p s d g g a J D < = ; 1 S s g d s a - = p q p p F L F a d s s q ; - f i b # Q 2.@.#.@.@.] 6.",
"a.{ #.#.@ b u s * = p j j j k K L j p p q p = % s j j F F D K D < ; 2 ; F d S F j s % > p > q p j P P P j j d p ; : p h b # Q 2.7.a.w.#.2.7.",
"#. ._ ' @ n i s > > p d s s j j a s < p < p > % j j L L L L F g < ; 1 1 L L L L J j % ; q p q < p a j s s s s p 6 > p h c 1 ' 2.y.8.7.:.2.7.",
" . .' ' @ c f t > q q p p p q > p > p > p q 4 p p g a a g 4 a p p > 2 1 4 p g g p p q p p q p 2 p t < q p p p q 7 > t i c 1 ' :.8.8.6.O.{ @.",
"' _ _ _ f h : > = * = 5 : 5 = 5 : 6 t t y p t p > t 6 t > 2 2 2 > > : 1 2 2 > 6 t t t t p p t 6 6 6 5 : > = 5 > = * * 5 y i W 1.t.t.7.] ] ] ",
"[ ' _ ' n y 5 X . . X X * * X X X X 5 5 * * 5 * * * : * : : : : * * : O : : : * * * 5 5 * * 5 * X X X X X 5 X X . . X 5 y n E 1.p.p.<.X.O.! ",
"a.[ ] [ :.4.4.y.y.y.' ' ' Q _ Q Q ] ' Q W ! _ q.:.4.>.>.@.] ' _ y.7.y.:.] 1.,.7.4.y.e.i.@.{ ' ] ` ] Q Q ' ' ` ] ] ` ` ] Q E Q @.y.e.<.O.X.] ",
"j.[ [ #.q.4.2.e.y.y.] ' ' Q Q W ! ] ' Q R R ! ] ' ] 8.8.1.{ ] ` 4.2.2.! Q ' 8.8.y.` Q Q ' ] ' ] p.z.l.:.] @.5.1.5.7.y.7.' ' ' Q ' ' Q ] ] ! ",
"p.' ] #.5.5.4.y.r.y._ Q ! ! ! Q X.] X.! R E W  .] ] a.q.0.` ] ] 2.2.2.] ! ' 7.y.e.' Q W ' ' ' ] k.l.f.[ ] 1.w.@.4.e.7.a.' ' ' W Q E ' ' ' ! ",
"D.D.D.Z.V.Z.Z.D.D.D.C.B.N.N.N.N.C.C.C.N.9.M.M.V.V.V.H.H.D.V.Z.Z.G.D.Z.C.V.N.G.F.F.B.N.N.N.B.B.D.L.P.H.C.Z.D.D.D.F.F.F.F.B.B.B.B.M.M.B.B.V.M."
};
