/* XPM */
static char *xpm_[] = {
/* columns rows colors chars-per-pixel */
"70 70 101 2 ",
"   c #364B1F",
".  c #3A4D1F",
"X  c #354622",
"o  c #364A23",
"O  c #3B4D25",
"+  c #3C4E29",
"@  c #3E5226",
"#  c #3E5229",
"$  c #3F582B",
"%  c #415427",
"&  c #435926",
"*  c #42552B",
"=  c #455A2C",
"-  c #495D2E",
";  c #435631",
":  c #465B30",
">  c #475C33",
",  c #495B31",
"<  c #485D33",
"1  c #4B5D32",
"2  c #4C5F31",
"3  c #47622D",
"4  c #49602C",
"5  c #49602D",
"6  c #4A612E",
"7  c #4C632E",
"8  c #4C632F",
"9  c #4E652E",
"0  c #51652F",
"q  c #50692F",
"w  c #476031",
"e  c #4A6030",
"r  c #4B6133",
"t  c #4C6230",
"y  c #4D6333",
"u  c #4E6533",
"i  c #4D6034",
"p  c #4F6134",
"a  c #4D6235",
"s  c #4D6435",
"d  c #4F6737",
"f  c #4F6934",
"g  c #4E6538",
"h  c #4F6938",
"j  c #506434",
"k  c #506734",
"l  c #506635",
"z  c #526635",
"x  c #516436",
"c  c #516437",
"v  c #536A32",
"b  c #536A33",
"n  c #526834",
"m  c #526A36",
"M  c #546836",
"N  c #556937",
"B  c #556B37",
"V  c #526D36",
"C  c #556C35",
"Z  c #556E36",
"A  c #586E36",
"S  c #516638",
"D  c #546739",
"F  c #526839",
"G  c #52683A",
"H  c #546B39",
"J  c #55683A",
"K  c #536C38",
"L  c #556C38",
"P  c #566C3A",
"I  c #586E3A",
"U  c #596F3B",
"Y  c #577136",
"T  c #597036",
"R  c #587037",
"E  c #597137",
"W  c #577139",
"Q  c #5A7139",
"!  c #5B733B",
"~  c #5A713C",
"^  c #5D743D",
"/  c #5E743F",
"(  c #5F773F",
")  c #5D7A3B",
"_  c #627A3C",
"`  c #556642",
"'  c #566945",
"]  c #5A6C45",
"[  c #5C6E49",
"{  c #5D7442",
"}  c #5F7C41",
"|  c #5D7048",
" . c #607742",
".. c #617745",
"X. c #617941",
"o. c #62764B",
"O. c #667A4D",
"+. c #657951",
"@. c #697C51",
"#. c #6D824E",
"$. c #6D8151",
/* pixels */
"+ ; = = l m m V V Z & ; $ > > 2 O X O ; % * p p x x N J e > e ^ ( ( u 6 = > 6 = = = = = = e & $ & & & = l B J l m l & ; # = = = 1 p j ; * * ",
"@ = = = m m m V L L & * * > 2 < O O X * O * 1 j j x x B e = 6 ^ ( ( d = > > e = = = = < = w @   o = = = l B Z Z Z I - * * > = , * X X ; * * ",
"= > = w < a a g d u 6 - = < - - O X + * * % < j l l B J = 6 6 { } { e = 6 = > = = = = = > = @ @ O = = = l v m Z v B = & * < - - X + X % + + ",
"d = = > # * + % * $ B ~ I * * * O O * * * * j x l l l m = = = # @ * = e 6 g f F = = = - = = = t w < = = 6 - 6 < 7 - 7 & & - - - ; + X * * * ",
"u = = = # # + ; * * Z R Z @ * * O * % = - % B l J m u l & = ; + # O > = - m F F * - % % * = g F g = e > $ @ + * $ & Z R Z * ; ; X * % ; = * ",
"d 6 6 - * ; * * * = W Z v % * * $ @ + = = = l m v 6 m u = ; * @ O @ 6 > = F L J ; * ; - = = S J K = = w @ # * * * * Z ~ ~ * = * % * % % - % ",
"= S u d < > , % * * V Z m % + # l t l 1 - - l B Z - 6 < $ * * > - = = = & S l l * * * * * * < 2 e e = e * * * * * # J A I % * * * % % * & * ",
"= a m d < , ; % # * F m l + # $ l m S 2 < t D B B = = = $ # & S f l * & * a 2 t O O + + + + * * $ F F F 1 < < $ * O l Z J O * * 2 M x 2 2 1 ",
"> S m d > , = # + > K K r + # = z 0 C , - l B B v = e = * * = J m L & $ * e t 2 o o O O O + * O % F D J , , , * * O l B B @ * % j l x j - - ",
"= = & & * * * > > > = - = O + $ B x n - = - - - - W ( L * $ $ < r 1 = = 6 u t l % * % % * % @ % & l D B , , , * * * l v m @ # @ n x v - - p ",
"= 6 % = # # = ; = = = = * o @ @ D x x - - * * * & _ _ ~ $ * * * $ * F V l u a g t j 2 A A I > = = = * ; ; ; * ; = * - - = O O O j l v = - - ",
"& = % = ; # * = = = = = $   O @ B D B * = = * * < _ _ ~ & * * * # & n m m t d d l l 0 A R W = > = & * ; * * * & = = - = = O O o j B B - - - ",
"a Z m 6 = = > 6 7 7 a 7 = O @ % < 2 ; - = * # # e U ~ m - * = * * = m m l u e r 7 l 0 Z Z J = = > = = & * * * , - = = = = o O O l x D - = = ",
"u ~ Z 7 = = 6 d l l m l - $ * % % O % * = + + o @ & = = x x l - > = a t 6 % & & n l l @ @ * * * = J Z F * * ; 2 - t t n a @ O O - < < - & - ",
"l R A t - = < l 8 0 n m - % * * + O * * * + O o # ; = = D l p ; & > a e 6 & * & n v n # # # * $ & ~ L L - , - - 0 8 l l l % * % + @ # @ = * ",
"- l 7 t < 6 - < 6 d u 7 - % * % @ O * * = * + o # > * 6 D D p * & < a a > % @ & d u 6 + # O # * = L ~ ~ ; - - l 8 8 l l d & % * O O O = = * ",
"- - - 2 p 2 * * # > e 6 = = - % % * n l n = O O * ; ; * X X % % * * ; = > d l 6 + * * + % % , - 6 d u - 2 1 1 ; < - S a t & * * & % % - - * ",
"& - * < p 2 * O # = - > = = * = * % t 0 n = @ @ * * ; O X X % * * $ = * < D D < X + X + O % 2 2 - & = = j 2 2 * % % - t < = = = * * % 0 x x ",
"* * * < 1 - = % * = 6 < = = = = % % < l m = + @ * ; * O X X O ; * = * = = S J > + O X + O % < 2 e = & = t j < % % + - - 7 % = * & * * x v l ",
"% % * * * + l J B - - = = 6 = = * - * % @ t Q J 1 * * * % * ; , 1 * @ $ = F J 7 * * * * * % - - = = = = , 2 2 % % * < - - - * - * * * x l x ",
"# # @ O + @ u u Z = = = - - - = * * O + + t ~ Q j ; = * ; * - j e * O + * I B 7 = - > ; ; , * & = $ @ O O + @ l C x * - = - - - * & * * O + ",
"# # @ @ . @ l F J - = , - - - = - = O O + L ( ~ t % = = & * < 2 a * O O - B B n , e 1 = * - - , * # + O O @ = F v l - - - - - = - ; * % O O ",
"< > = 7 t d = = - @ * * - 2 < 7 t < + O O l J m - - * - - - ; - - - * * & l m t 7 2 < * * ; - - = * O * @ @ % F N x * * - - - = ; * * * O * ",
"> 6 - q m F = = = O O O 2 2 < a F J % X . t f u t - - - - - * * % < l l * @ @ a _ { F * * ; 2 2 < < 2 2 l a a - - - % % % 2 < - 2 1 , X % X ",
"= 6 e K m S = = = @ + @ t 2 t a g F + O . < 0 n - - - - - t = * * - 0 j - % O x R _ m * * = j 2 7 2 2 < m m d = - = + O % 1 , a c a a + X O ",
"& * % d d e * & & = * * 6 - l a < < + O % 2 - j - = < 7 > > * * * t 0 j % % * v R ~ t * * * t t 1 2 2 t m l d < ; ; @ O % 2 r 1 j j l O O O ",
"# * * t t < * & = w < t 4 4 6 # ; * * * * < ; ; ; ; = ( _ _ d 6 - 2 l 0 6 v l t = 7 d Z Z 0 7 7 , = * = a a e * * = = & = < 2 1 , 2 < + O O ",
"# @ & < r = * & $ u a t - 6 > $ + # @ % * ; - ; ; - & Q _ _ t = - 0 0 n f m J t - - a L J n 7 7 = * $ = t 7 < & * * a a a t 7 < % ; * * ; * ",
"< - 3 8 u u = = 6 a 3 u = > > $ * # $ * ; * ; ; = = & { ) X.r < 6 8 8 8 m m L a 6 - F L L f t u > * $ = - 6 - & * = a a < < - - % * * * * * ",
"{ ~ ! ~ R m e e u d f u @ + O W K F * * = + O + < t d 6 t e = * & Y ! ~ & = * = * * = 6 < a e e - < = 7 l B u = = = t t u = - - * * * * * * ",
"W W W Y Y Z e t u n d 6   O o h K V $ * * + O % t t a = < = * * & Y R _ % o O @ @ @ @ % $ = w - f R ~ I Q Q J a d 7 S S a . o % ] B x * ; % ",
"{ W ~ W ~ Z a a d f 9 = o @ O F L F * & = O O % u t d > - = & $ $ ! ) _ % +   O % % $ @ @ = e 6 f ~ W ~ R ~ Z 7 7 l l S g O X % L J A ; ; * ",
"= & 7 Z Z 6 * * & = - 6 a 7 < @ * = < - - * + * 6 e e & = & % % @ 8 d d $ o @ O % O % % * - - - B Y ~ Y ~ ~ Z 6 7 n m S d   o @ N L F = * * ",
"= = 7 B v - * = = & > < l m g * * ; 2 - - * * ; - 6 < $ $ & * % $ @ O + % = - = , * 1 j j l l n 6 = & u m Z n = = = = = > m d a % & = > ; < ",
"& & u m B - - * = = = t m l l # # * , - - * * * 6 - e * # $ $ $ $ @ + + = - = * & * - j n n n B = = = u F m e = * = = = 6 l m t % % * - 2 2 ",
"= = a m m - * - = & = = = > < = = = - - ; % * * 6 6 - % $ @ = = % $ @ + = - * - * & j 0 0 0 n j - = = t F m d & = * = = 6 f f t % % * - 2 - ",
"= = g l J 2 - * - - 6 % + * = B J d = = = * * = - < < % * & g S m Y Z B % * O - 2 2 2 2 2 ; * = = = & a J L a = - * * - = = = - - - = - - - ",
"= = F F l 2 ; - = - 8 * % % - l K a = = & & * & 2 2 t % # & d S l Y Z ~ O O O - p 2 2 2 2 * * % * * = S F Z a = = - - - = @ @ = C x 0 7 * - ",
"= = d a t , * ; * = - * * % - m L a = = = & * * 2 < 2 % @ * a S m A Z L . % O - < j 2 2 2 % * % * & = S L J d = = - - - & @ @ 3 B B B & - & ",
"> > @ @ O * O * * % * - - - v J L m e - - % % % % % % - = < e t t Z B m - * - - - - - - * 2 2 2 > < = < g g > = * = * = = % @ = x A v - , , ",
"- < @ # # + + + + * # ; > - v Z L d e e > & @ $ % . * , & , - 7 e V F m 7 2 2 , = = * % . I ~ _ d 1 < * @ @ @ + + O % % % - - l J Z m - 2 - ",
"6 - $ # # + + # O $ * > - - m Z L l 6 > = * % @ % % * - - * < - e m m m 6 u < , , = * % @ I A Q e r e * # # @ + + * % % * t - t Z Z B - 2 - ",
"F J L S S u a d * = * = 2 < = = = = # = * * * = * * % % * ; - < t l f u > = > ; ; ; * % @ v I A d < - & $ @ # @ O * * % = - - t J J B - 2 2 ",
"Z m Z B J v u a * $ * > 1 = = & * # O o % - - - 2 - - % % * 2 - < = = = * + % # * * ; = = - & & v m Z m m F m d l = * % - 2 - - - & * - * * ",
"m v Z v v q q u & = ; > 6 = * * * % * . % - - - 2 2 < O @ # e > - = = = # # * * * * , ; - ; = & 9 v Z v K W F v j - * * ; 1 - - % % % O % % ",
"& - d d u - = = * * $ > e e - - , O O % * - - * , , * O @ = > w = 6 3 & @ @ @ * * * , ; = - - * u f L J L W f g l , * * - - - - % & % O O % ",
"% & a a e % % * + * * < e e V Z D < , & * , < % + % * = * ; = = 6 = 4 7 W ~ ] @ * O ; * = - - - < = = a F g e < - = % % - 2 , 1 - - * % % * ",
"# @ 6 u e * * * + * + a a a V v L < , 2 - , - % * * * = & = = > = = = f ) ) { . O % * * * ; ; 2 + + * < a e & # # # * % = t e d x B l , , * ",
"@ & u u t % % * * * % ; , < B A B = - - = - , % * * * * = = = = = = - 7 X.} _ . + # * $ & = = - % + * ; 7 t * & # # + * ; 2 1 l A A n - - - ",
"* = Y Z B 2 2 - * * * * * * _ I ^ * # % = - - * % % 2 2 7 - = = = @ % - V v v % @ O * $ & 4 8 6 % * % < n u % % # * * * * a 2 l n v n - < * ",
"& & R Z B - 2 - % * * * % % I _ { @ O % ; < - * % % > n a - = = * O O * d 9 0 @ = ; e w 3 ) ) ~ % * * B I ~ 7 6 > * * * * % * J I Q J % % % ",
"& - R A v - - - % * * * * * _ ] ^ % @ % - - = % . % 2 2 a = & = & O % * u u 7 * ; = e 3 4 ^ ) Y % * * D A I 6 6 6 = * * % * % u _ ~ B % % % ",
"= 7 l v v m m 7 * * & = - = = - , + O O e < t = * & t < a < 6 < * @ @ = d a a & = = < < e { ( ( % * % B B ~ 6 - - , * % % * % 0 I _ j O @ * ",
"= u B v q B Z u * $ = = - - o o X * * * d t t m M x t - 7 ] X.} d < - 6 = = = = = = - - = $ $ $ - * * B B Z n v 0 * & % * - < - j , % * % * ",
"= d Z B Z A C u $ # = 1 1 - X o O * * * a S u m M z 2 - - J _ ( 7 6 6 = = 6 & = > = = = > O o o - = = n l l q Z A & % * - , < # X O O * % * ",
"= = 6 a n n q 7 = = - = - % O O + O * * d a l l x z - 2 = U X.X.u < 6 = = = > = = = = = > # o # * - - n v Z A Z A - * * = 2 < * X % X * % * ",
"= * * @ % * % 6 ~ F l & * # O @ @ * = = S S l l m g = = = @ $ & = = 6 t a l a & = = = > = < 3 = = < = - t a 2 < n - * = = < - % X O % * % * ",
"- % @ % * * * 6 ( W < * $ $ @ @ # = = = d m m S S g * $ $ O + O = - - d m m < = * * * = & g g f - = = # # * * ; * l ~ Q = * * % O * * * ; = ",
"- * * @ * * $ u W W 6 * # @ @ @ $ & = = u n n l S F * = $ @ O + > e w a B v 2 = * * = = = h g u = < > # * * * * * J Z R * * * * * O * = * - ",
"l - , > * # $ S V V = $ $ = e 6 e 6 = < m B m - a e $ = * * * > = = = d l l ; * * * $ & > f d r 6 6 , # * * * * = J I ~ * * * * O * % = * - ",
"D - - - * + # d m Z = # # ; F S u 6 = a n Z Z = = = & $ * S S l * # * - t t * O O O O + O @ @ % u m d = = ; % * # B C N * * O < 2 2 1 , < a ",
"D ; - , * * # a V v = # # > F F v 6 6 e m B Z = < = * * * j m B & $ = < < t * + + O + + + % $ = v l m = - , * % O B x C * % % t l m l < 6 a ",
"2 * * * * * * d a m = * O - m v u = = 6 J L m - 3 6 $ * = D B x % $ * 6 t t # + + + + o O * * * m m l = - * % % * u x C * O * 2 m h d < < u ",
", * * ; > = & = = = O O + > B m 6 - = & % = 6 _ ~ ^ & * * * = % d n d a t t - < - a d F e & & = 6 6 - & * * % * = 7 l j * * % 2 f l t - - a ",
"* * % * , & - , = = O o O 2 Z m 7 = = = @ * - X._ ( % = ; % @ % B l L l t a 9 7 7 B R Q l & = & = = * $ * * - * - = = ; + O O 2 B J a = = = ",
", * % * & , , & - - O + + 2 J l < = = = $ # < _ _ ~ % * $ * % % J l B t t t 8 8 7 C Q Z 0 & - = = = & * # * - - - = ; > + O X 2 Z B a = > $ ",
"D < , - 2 v 0 x l l * * * * % % * * = & + @ * l 6 d 6 7 - - * * l l m 6 < t l n 7 l B B l = * * & = & $ * * - * - = = = X O % - m m w = * = ",
"D , , - l 8 0 x m m * @ * O O O * $ * # o o @ = & = m u 0 - * - l t < $ % & d l B = % O * * * - R R W = - 2 2 l 7 u n d * * * % % * $ * = # ",
"J = = 1 j t t J l m & $ = # + @ ; = $ # o O + ; = = Z l t - = = a a e * $ $ g a v & * + * * * - A A B - = - t a l m n S = * * * * O * = * + ",
"o.o.o.| [ [ { o.o.o.] ] ' ' ' ` [ | [ ' ` S ` [ [ [ @.O.o.[ | ] o.o.o.] ' ] +.O.O.] ` ` ' ' ] o.#.$.@.[ [ o.o.o.o.O.O.O.] ' ' ` ` ` ' ] ] ' "
};
