/* XPM */
static char *xpm_[] = {
/* columns rows colors chars-per-pixel */
"70 70 238 2 ",
"   c #01060F",
".  c #010A0D",
"X  c #00180A",
"o  c #010C13",
"O  c #020B17",
"+  c #081417",
"@  c #02141D",
"#  c #031A1D",
"$  c #11191F",
"%  c #271014",
"&  c #33271B",
"*  c #011522",
"=  c #071627",
"-  c #021C24",
";  c #071729",
":  c #021C2B",
">  c #06242A",
",  c #03232C",
"<  c #17262A",
"1  c #1B2A2D",
"2  c #032433",
"3  c #082834",
"4  c #032E3C",
"5  c #132B33",
"6  c #132838",
"7  c #03313C",
"8  c #09383F",
"9  c #193536",
"0  c #282A28",
"q  c #352C2C",
"w  c #37302B",
"e  c #252F33",
"r  c #3E2632",
"t  c #2D3638",
"y  c #353736",
"u  c #590805",
"i  c #571618",
"p  c #790203",
"a  c #6D120F",
"s  c #790918",
"d  c #472716",
"f  c #522718",
"g  c #583619",
"h  c #742A0F",
"j  c #692B17",
"k  c #683919",
"l  c #7A3715",
"z  c #5B1931",
"x  c #711422",
"c  c #4C312E",
"v  c #55392A",
"b  c #6E2B2F",
"n  c #663926",
"m  c #6A3D23",
"M  c #762234",
"N  c #364B1F",
"B  c #11463B",
"V  c #354721",
"C  c #364A22",
"Z  c #3B4D25",
"A  c #3C4E29",
"S  c #3E5226",
"D  c #3E5229",
"F  c #3F582B",
"G  c #3E443C",
"H  c #7A4B10",
"J  c #5A462F",
"K  c #405427",
"L  c #435926",
"P  c #42552B",
"I  c #455A2C",
"U  c #495D2E",
"Y  c #4F4438",
"T  c #435631",
"R  c #465B31",
"E  c #4A5E31",
"W  c #684428",
"Q  c #744426",
"!  c #694C36",
"~  c #785735",
"^  c #47622D",
"/  c #4B612E",
"(  c #50692F",
")  c #4D6333",
"_  c #4B6535",
"`  c #4F6935",
"'  c #4F6438",
"]  c #506635",
"[  c #516636",
"{  c #536A35",
"}  c #526936",
"|  c #586E36",
" . c #516638",
".. c #546B39",
"X. c #586E3A",
"o. c #597136",
"O. c #577139",
"+. c #5B733B",
"@. c #5A7639",
"#. c #627A3C",
"$. c #022543",
"%. c #023441",
"&. c #0D3641",
"*. c #033A43",
"=. c #013D49",
"-. c #702B43",
";. c #054143",
":. c #0A5760",
">. c #5E5956",
",. c #556642",
"<. c #5A6C45",
"1. c #5A6C47",
"2. c #5D7343",
"3. c #5D7048",
"4. c #7A6049",
"5. c #607743",
"6. c #627941",
"7. c #62764B",
"8. c #667A4D",
"9. c #677A51",
"0. c #665F61",
"q. c #6C6566",
"w. c #8A030C",
"e. c #870611",
"r. c #890E14",
"t. c #9C1519",
"y. c #A90717",
"u. c #A50A1A",
"i. c #882A07",
"p. c #9C3D06",
"a. c #8D2D13",
"s. c #873412",
"d. c #A93C08",
"f. c #B7380A",
"g. c #AD2614",
"h. c #AE2C13",
"j. c #801822",
"k. c #991C29",
"l. c #A91528",
"z. c #B41328",
"x. c #BC1B33",
"c. c #8E362A",
"v. c #8C2A34",
"b. c #9C2A3A",
"n. c #A62736",
"m. c #B9273B",
"M. c #CC1F2E",
"N. c #C41C37",
"B. c #924A0F",
"V. c #914B13",
"C. c #AC4A0F",
"Z. c #B54A05",
"A. c #BC5905",
"S. c #A15914",
"D. c #9C6F1C",
"F. c #B26C09",
"G. c #BD6A10",
"H. c #B77B18",
"J. c #844E26",
"K. c #8B5625",
"L. c #9A5925",
"P. c #905834",
"I. c #A75726",
"U. c #AE5937",
"Y. c #986B29",
"T. c #976936",
"R. c #AA6727",
"E. c #B16B2A",
"W. c #BA722B",
"Q. c #A86532",
"!. c #B46B34",
"~. c #AC7C30",
"^. c #B87639",
"/. c #C45808",
"(. c #D65A0F",
"). c #C85B14",
"_. c #D4690C",
"`. c #CB7507",
"'. c #DD790B",
"]. c #D36617",
"[. c #DC7815",
"{. c #C1722E",
"}. c #C77833",
"|. c #E27B22",
" X c #983A4A",
".X c #B23446",
"XX c #C23149",
"oX c #8F654A",
"OX c #BA7941",
"+X c #B17D59",
"@X c #A85D75",
"#X c #8B6C77",
"$X c #C17B45",
"%X c #C45C63",
"&X c #6D8250",
"*X c #AF841E",
"=X c #B88731",
"-X c #CC800F",
";X c #D5860A",
":X c #D89406",
">X c #DB940C",
",X c #E89E18",
"<X c #EAA41A",
"1X c #F0AB1F",
"2X c #DA9325",
"3X c #C88A33",
"4X c #E88521",
"5X c #F09624",
"6X c #EEAA23",
"7X c #F3A824",
"8X c #F5B028",
"9X c #D98844",
"0X c #CE924E",
"qX c #E39B4E",
"wX c #DBA344",
"eX c #E0AC49",
"rX c #E8B253",
"tX c #D39F65",
"yX c #A37181",
"uX c #BA7985",
"iX c #908A8A",
"pX c #A7A7A7",
"aX c #BCA4AD",
"sX c #B8B8B7",
"dX c #C59CA3",
"fX c #C8B6B9",
"gX c #BBBCC0",
"hX c #BEC1C3",
"jX c #C6C4C7",
"kX c #CECED1",
"lX c #DCCAD4",
"zX c #D5D6D8",
"xX c #E1D4DB",
"cX c #DBDEE0",
"vX c #E4DFE3",
"bX c #DEE2E4",
"nX c #E7EDF3",
"mX c #F2F7FB",
/* pixels */
"A T I I } } { { { O.I P T R ) E V V K P P P ) [ [ [ [  .E R ) +.#.2.[ U U R E R E I I I ^ E K P K L I I ] o...{ ] ( L T D R I I E [  .T K A ",
"S I I I  . .} { O.{ L F F R E E K V V T Y K E E E X. ...^ ) ^ +.+.#.E U U E R I I I I R I R S N N I I I ] { ..] | +.E L P R U E Z V Z K Z T ",
"I R I ^ E _  .E ` ) / I I E E I K V A P Z Z [ [ [ [  .{ I I / 2.6.5.E U U I U I I I I U I ^ S A C I I I } ] } ..{ ..L L K E U U A A A D K K ",
"' I R R D P A K P F ..+.X.P P P C A K I P K [ [ [ { {  .I I I D F K c  X/ `  . .U P I I I I I _ ^ R I I / U U E / U / L I P U U A A A P T K ",
"` I I R D P K T P P O.O...K P K N K P I P K { {  . ./ } I P F A D C M v./ [  . .P P P P I I `  .' ^ ) I F S Z P P L | o.X.P T T K K c K P P ",
"_ / U I P P K T P L O.+.} K P P K Z K P U U [ [ ( ] { [ I I T S A V x v.I  . .X.P P I U I P  .,...R I R F D T K P K ..o.+.P P P P K A S U I ",
"I  .} ` R E T T P P ..} } S D D [ [ [ E U U [ [ { / U U F P I R R I i b.c  .[  .K K T P P P U E ) ) I ^ K P P T P D ..| O.K P P P K P L P I ",
"P  .} ` E R T P S P  .[ ` D D F  . . .) E E X.X.[ I U I P K F [ } ` a b.M _ E E P Z Z A A A P P F '  ...E R E T P D } ....S P P )  .[ E E U ",
"R ..} ` R E P A D R ...._ A D I [ [ [ E E [ } { { I ) I D T P ..}  .p x .X^ _ E Z Z Z V Z Z P Z K  . ...E E Y P A S [ } } S K K [ [ { J / / ",
"I I L L P P T R R R ^ I I C A F { [ [ U U U U U / ..+...P F F E ` f p r..X[ E _ P P K P P K P K S  .....E E E P P D [ ..{ S F P ) [ ( E E U ",
"I I I L P P P R R I I I K C S S .. .[ U U U K K L #.#.o.I P I F P i p s n.[ ) ' [ } [ | O.X.I R R I I P P T P P P P U / I Z Z C [ | } U U U ",
"I I K I T A P I I I I I K N N K ` ..[ I P P P P ) 6.#.+.L F K K D i p e.n.E ) ` / / / | ..+.I R I I P P T T P U U U I I I Z Z Z ) { [ E U U ",
") | } ) I T ^ _ / / ) ) R S S K E E U I I P D D R +.o.} I I L S e.y.w.w.k.u.e.z [ / / O.....I R I I I L P P P P U U I I I C Z C [ }  .I I I ",
"` o.} ) I I ) _ ) { } [ ) S P P K Z P P P A A Z S L I I } }  .r x y.z.e.x u.s i q ] ) S S S F I I ..|  .P T P ) / / / ) ) S S Z E I E U I I ",
"] o.} / I I E ) / { } } U K P D K Z P P T K C C D I I I } } q.kXyXz.N.e.u y.uXzXiX) / D F D D K I +.O.X.T U U / / ( ] ] [ K P P K K K K P P ",
"/ } / ( / ) I U ) } / ) U K P P P Z P P P D A C D T T E ` } zXnXlXl.x.e.e.n.jXnXjXiX` S D S P S I ..+...I U U } / / [ [ [ K K P Z Z Z I P P ",
"I I P [ ) ) P K D R E ) I I I K P L ) [ [ L K K K T T K w sXcXnXvX XN.x.z.@XmXmXY iXD A K K U U ^ / ) / U E E U U U [ [ _ P P K K K K U U P ",
"I U P ) ) ) P K D E R I I I I P I K E [ [ U Z Z K T T K N jXcXnXmX%XN.M.m.yXmXnXY #XA A V K E E U I I I [ E E P K K U E U I I I L P P [ [ } ",
"I P P T T E P K K I U E I I I I K K ) ) [ U Z K T T P Z N sXyXcXxXXXZ.(.h.uXvXbXzXjXC A K K E E ) I L U E [ ) P K K T E U K I I K K P [ { [ ",
"K K P K P K  . ...U U U I ^ I I P I P K Z _ X.X.E P P P K pXhXkXfXg.A.|.f.n.zXkXjXsXA Y P P E U I L I I E E E K K T U U U I I I P P P ' ) [ ",
"D D S Z K Z [ [ ..I I I U U U I T P V A Z [ X.+. .P P P P >.pXsXdXt.V.*XV.z.aXgXpXq./ R E J I I I D Z Z A Z K ..}  .I U U U U U K I K K Z Z ",
"D D S S V K [ [ [ E I I U U U I I T K K Z X.+.X.E K I I T 0 q.#XM j.u u i.u.-.#Xq.y E P P P I U T D K A A Z S  .[ [ U P I U U I I I I K A K ",
"I R U / [ ) U U U K K P U E E ) E E K N Z [ ....U U U I D T c z z r.h a a.k.z z c [ _ P P I U U P K A K S Z K ..o.) P U I U U U E T T V V P ",
"I ` U ( [ [ I P I Z A S E E E )  . .K N N ) ( [ E E U U I E T % u t.Z.F.Z.l.h % X.<. .P P P E ) _ E E E [ [ [ I U U K K P E E U E ) E K V A ",
"E R U { }  .I I I S D A E E [ _  . .A A N E [ / / U U U E E P P l t.A.A.g.m.B.` @.+.} P P I ) ) / [ E E } } ' I I P K V K E E E ' ) ' V K q ",
"P I I ) ) E L P L I P P ) U ) ) E E Z A K E / [ E U E U E E P P J.m.A.G.h.m.j ` +.o._ P P P ` E E E E _ [ { ` I T U Z K K E E ) '  .) K Z Z ",
"A P P E _ E P K L _ ) ) / / I F T T K T T U T T T I I #.#.#.` ^ U.l.`.[.f.XXf [ ^ / ) o.| ( / / U I K I ` _ ) P T I I P I E E  .E E E A Z A ",
"P F S / ) I L K I ^ ) ) I / E F A P Z K T T I T R P I X.#.#.) I c h ;X6Xh.m.c./ I / ) ..} } / / U K P I ) E E P P P ` E ) E ) U K K T P P P ",
"U I / ) / ` I I R _ ^ ` I U / F D P F P P P T P P I K 2.6.6.) R ^ B.:X<XS.j.b ) E ) ' ....) ) ) T P K I ) U U L P P [ E E E U U K P T P P P ",
"2.+.@.+.O.../ U ) ` ` ) A Z Z .. .[ F P P A K Z E ) _ ) ) ) I P L F.,X<X`.s.f L L K I ) ^ ) ) ) E U U _ [ } ) I U U E E ) U E T I K S P P P ",
"+.O.O.O.O.../ ) ) } ` / C C C ..} ` P P T P Z K ) ) ) I I I P P g :X,X1X>XA.k S S S S L S I ) I ` +...o.+.X.| [ _ [ X.[ E N V P <.| { P P P ",
"2.O.O.O.o.} _ } ` [ / U C S S ..O.} L I I Z Z S ) ) ` I E I L F V.:X<X1X<X<XH.S D P F S S I U I ` +.+.+.o.| | U U [ [  .' V K K ....| P Y P ",
"I L ( { } / K P F I ) / ) E ) S P P E I U P A P U ) _ L I I P =X:X>X2X8X8X>X>XF.c S F K K I U / } O.O.+.+.o.| ] ) ] } ..` N C P X.X. .I I P ",
"I L / } | / P T L I I I [ ` ` P T T E E U P P P / I / F F P Y.`.:X<X7X7X6X1X;X'.D.P _ [ [ } } [ / I L ) } } ] L I L / I R ' _ ) K K K U E T ",
"K I [ ..} U I P I L I ) } [ [ D D K E E U P P P I / ) S F S H `.`.1X,X7X5X,X;X`.V.I E ` ) { { } I I I ) ..[ [ P L I I I ^ ` ` ) K K K E E E ",
"P I / ....U P U I I I I E R E I I I U U I K P P ^ / ) S S F )._.'.2X'.5X5X4X[.A.A.n ) ) / } ( { I I I ) ....) I P I P I U } ` ) K K P E E E ",
"I I [ } X.E U P I U U K K A U } .._ I U I F K I U E E S P a.Z.Z._.[._.|.|._.(./.A.h._ R E T I T I P I _ ...._ P I I U I I L U / K P U U E P ",
"I I [ .. .E T U U U U L A S U } ..` I I I L P I E ` E K h i.C.Z.(.]._.|.[._.(.Z.C.g.g.R E T K K P I P ` ....` I I U I U L K S I | [ { U U U ",
"P I } _ ) E P T T I U I P P / } .._ I I L P P P E E E c i.d h p.]././._.)./.Z.p.h d i.h E K K K P I I ' .. ._ R T U I U L S S I | | | I P U ",
"E U P Z V K K K K T K U U U } { | [ E E U L K K K S S f f 9 n p.d.C.d.Z.C.C.C.l d &.< q U / / E U U I _ } [ E P P T I I I K K I { | [ U I U ",
"E R D D D A A D D P P R R E } | ..[ ) E I K F S Z S K U < 9 c I.j h i.p.g s.l k 5 :.> w S | o.#._ E R T S S S A A K K K K U U [ X.{  .U / U ",
"I ) F F D Z A A A D D R E U } | ..[ E E R L K K Z K K U < 4 > k & & B.g 0 d k w 8 :.4 1 S X.+.o.) E _ F D D S S A K K K P E U E {  .| U E U ",
".. .......) ` _ F T T R E U I I I L F P P P I P P U K K 6 - 3 $ > 5 j & 5 1 v e 4 %.2 6 S } +..._ E I L S F P Z Z K K K I U U [ X.X.[ E E E ",
"| } | } ..[ E ` L F P R E U I K P D C Z P U U U E E E K 3 - , , > 7 # & 9 3 1 > , : 4 6 I I L L [ } | | .. .[ ` [ U P P U U U I I K I K U K ",
"{ } ..| } ( ( [ P I P R I U I K T K K K K I I U E E E N 2 * - , 8 8 , , 7 ;.2 , - : $.6 R I I L ( ( } o...O.} ( [ U P P I E E I K K K K K K ",
"L I ) ) [ U I I D P P E ) U U U T V K K I U I U U U P K 2 * - - , ;.;.3 ;.8 > - - * $.2 9 I I I ) .... . .X.} ` [ U K T U U E U K K K K N P ",
"K L ) ` ) K K K A A T E ) ) ..} X.I U P P U U K Z K P P 6 = O # , , > > , , > - - O 2 : B I I E E T I [  . .R E U P K K I E E E L U T K K P ",
"S S / ) E K P P K A S ) ` E } ....E U U E T U P Y P P P < O @ @ # - - - , # # @ + : O = 0 I ) T K A K U _ _ K P P K K P I U [ [ } |  .U U T ",
"D L / ) } K K P I K Z E U E | | X.U I I I I U P P P K P P 3 - O o @ * # # @ + O * 7 , < I I I / Z A K T E [ K K K P A P P E [ [ | | [ U I U ",
"P I o.o.{ U / I P P Y P K P +.| X.K K K I E U K P K E E E %.: * O . . o . . O @ * =.=.5 L / ^ / K T K E ( [ K K S P P A T [ E [ ( { ] I U U ",
"K U o.o.{ U U U K K P P K I +.+.5.K K K E E U P K K E E ) %.7 ; * : o X   O - * 2 =.=.5 / @.#.@.K P P { X.X./ E E P P P P K K } #.X...K K K ",
"L ^ o...} / U U P K P P I I +.2.2.K V P T E U K Z K ) ) ` %.*.: @ - $ X O   @ : *.=.*.5 ^ @.@.+.K P P X.o.+./ U ) P T P K K K [ +.X.X.K K K ",
"I / { { ( { } ) K K K R I L I I I K K V ) U / I J L ) E ) 4 *.%.* * S # o   + 4 7 *.%.< ^ 2.2.+.K P K { X.X.U U U P P K K K K [ X.+.{ Z K K ",
"I ) { { o.{ | ) I F I ^ U ) C Z V T K K _ ) ) } [ } U ) I 3 %.%.4 * ^ 0 I + @ 7 %.%.%.I I D F F I I I } { { ( { { U K K I U U U [ ) L K K P ",
"I ) } { | o.} } D F I R E I C V V T T P _ [ ) [ } ] U U ) e 4 %.*.> ) L ) I - %.%.%., P ^ A A C I I I } { | ( | | L L P T E I P V V A K K P ",
"I / ) ) / ( { / I I E I R K Z Z A A K P _ [ ` [ { [ U U I +., 4 *.7 R I I I # %.4 4 I E R C A D I I I [ { { { o.| U P T I E E K C A A K P P ",
"E K P S K P S / .... .S L D S Z S S I I ..` ` [ [ ' I I R F e t Y 5 U ) ` [ _ t c 5 T R T ^ I I I R L ) / ) [ / [ P P I I U U K q Z A T K P ",
"U K S K P P P ) +.+._ P F P S S F I I I [ [ [ [  .' P F F A q Q.^.I E _ [ [ ) ! $Xv I R F ' ` ` R I R D P K P K P { X.+.I P P P K P K P P U ",
"U K P P P P F _ +.O.^ K F D S S S I I I [ } [ ` .. .T I P A t U.R.^ R ` | } U v }.! T F R ` ` _ I I R D P K P Y P { X.X.P T P K K V K I P U ",
") U E T P P S [ ....I F D I ) / E / I R } | } ) ) ) P F I P r $X^.I I ` ` ..U P 9X! P R R ' ' ` / ) E D P P P P T X.o.X.T P P K K K K I I U ",
"} I E E P A D ` | } I F D T ..' ] U / U } | o.U I I I F F  .v 0X^.D K E U U P Z 9X~ D D S F S K ) } ` I T T K P K { [ o.K P K E E E E E I _ ",
"X.I E T P P D ` } } I D D T } } ) / / ) { ] } I I I F F F ' ! rX~.F I I ) ) P A 2XT.A A A K S I { { [ I U E P K K [ { } L P K E [ [  .E E _ ",
"E P P T P P P ` ` ` P K A I } } ) ^ I ) ..O.} U ^ / D K R ) ~ rXOXF K ) ) / P Z qX0XZ C A F K I } } [ I U P K K K U  .} P K K E [ } _ U E _ ",
"Y P P P T I I I I I A Z A ) } | ) I I L L K / #.+.2.L P T F ~ rX=X_ ) ) ) ) E E wXwX} [ ) K K I ^ U ) L P P P K T ) '  .K P K E } } _ U U [ ",
"U K K P T P U L I U Z Z A E ..} / I I I F F I 5.#.+.L F T K T.rX=X` O.) ) ) ( / wXwX2.@.) L I I I I R D P P I U U I I T Z Z K E  ..._ I I F ",
"U L K K U U U U I U Z Z Z E ..} U I I I F G ) #.#.+.F F T J wXrXD.` ` _ ) ) ( ^ wX8X~ O.) I ^ I I I P R F F I I U I R R Z A V E ....` R T I ",
"X.E U U E [ [ [ } [ P P P K P S F I I K oXOX+X+X^.R.Q.}.E.OXtX=X*XT.oXJ / ~ T.~.0X0X3XW.!.U.!.+X4.P.^.oXP P I I P I I I C Z K U } } ) I T I ",
"..T U E [ ( / [ ..[ P K P Z Z A F I P D $XqX!.$X9X}.W.}.E.!.S.D.R.3X2XQ.F }.3X}.K.R.E.W.{.E.3X9XV.3XtX$XU E [ ) [ [ [ [ P P P K K L S P I S ",
"} L I E [ E [ [ } } L L P A K A P P L D W T.L.K.K.Q m W m J.K.g v Q Q c K n Q W L.Q k m W m J.K.J.R.U.m I E ) ) [ } [ [ I P P K P Z P P P P ",
"8.7.7.3.1.3.3.7.7.7.1.<.1.,.,.,.1.3.1.1.,. .,.1.1.3.9.9.8.3.3.1.7.7.7.1.1.1.8.8.9.2.,.1.,.1.,.8.&X&X8.3.3.3.7.7.7.8.8.8.<.,.<.,.,.,.<.1.1.,."
};
