/* XPM */
static char *_c9552fa02824fafed5c724aa1aaa1e9DW3kDitxHEVlcybG[] = {
/* columns rows colors chars-per-pixel */
"67 70 238 2 ",
"   c #01090E",
".  c #1D0E02",
"X  c #00180A",
"o  c #1E1204",
"O  c #1F1A03",
"+  c #1E1409",
"@  c #1D1C0C",
"#  c #010C13",
"$  c #020B17",
"%  c #081417",
"&  c #02141D",
"*  c #031A1D",
"=  c #1A1715",
"-  c #1F1C15",
";  c #210E06",
":  c #221304",
">  c #281607",
",  c #231B05",
"<  c #2A1A06",
"1  c #241509",
"2  c #251A0B",
"3  c #2B1C0C",
"4  c #321E0C",
"5  c #231B13",
"6  c #2B1E11",
"7  c #2B161C",
"8  c #201E19",
"9  c #321E11",
"0  c #25220A",
"q  c #2D210E",
"w  c #352605",
"e  c #33220E",
"r  c #39230E",
"t  c #2E2212",
"y  c #2C231B",
"u  c #2C2C1A",
"i  c #332312",
"p  c #3A2412",
"a  c #352816",
"s  c #3B2A16",
"d  c #32251A",
"f  c #39261A",
"g  c #34291C",
"h  c #3C2B1B",
"j  c #3F301C",
"k  c #011522",
"l  c #071627",
"z  c #021C24",
"x  c #021C2B",
"c  c #06242A",
"v  c #03242C",
"b  c #18272B",
"n  c #032433",
"m  c #082834",
"M  c #032E3C",
"N  c #132B33",
"B  c #132838",
"V  c #03313C",
"C  c #09383F",
"Z  c #193536",
"A  c #2A2825",
"S  c #352D24",
"D  c #3B2D22",
"F  c #352E2A",
"G  c #373426",
"H  c #3D3023",
"J  c #3C332C",
"K  c #2D3034",
"L  c #353736",
"P  c #581110",
"I  c #790203",
"U  c #701010",
"Y  c #46290F",
"T  c #463209",
"R  c #452616",
"E  c #412B15",
"W  c #432E1C",
"Q  c #522718",
"!  c #45311D",
"~  c #48321E",
"^  c #583619",
"/  c #692B17",
"(  c #702F12",
")  c #7A3715",
"_  c #5B1931",
"`  c #6B1523",
"'  c #432C26",
"]  c #532023",
"[  c #552B2D",
"{  c #443320",
"}  c #4B3421",
"|  c #473C2A",
" . c #55392A",
".. c #4A3D31",
"X. c #513037",
"o. c #663926",
"O. c #6A3D23",
"+. c #722731",
"@. c #7A4B10",
"#. c #554E2F",
"$. c #415427",
"%. c #465C2B",
"&. c #495F2D",
"*. c #474239",
"=. c #53453A",
"-. c #694428",
";. c #744426",
":. c #694C36",
">. c #785735",
",. c #4C632E",
"<. c #4F692F",
"1. c #516C2F",
"2. c #4E6631",
"3. c #4F6931",
"4. c #526B32",
"5. c #567135",
"6. c #567234",
"7. c #597536",
"8. c #5B7737",
"9. c #5A7539",
"0. c #5E7B3A",
"q. c #776832",
"w. c #617E3A",
"e. c #617C3C",
"r. c #022543",
"t. c #023441",
"y. c #033A43",
"u. c #053B47",
"i. c #702B43",
"p. c #0A464B",
"a. c #0A5760",
"s. c #514942",
"d. c #5A5855",
"f. c #6A684E",
"g. c #6C6566",
"h. c #870611",
"j. c #870C11",
"k. c #9C1519",
"l. c #A30616",
"z. c #882A07",
"x. c #9C3D06",
"c. c #8D2D13",
"v. c #873412",
"b. c #A93C08",
"n. c #B02E11",
"m. c #801822",
"M. c #991C29",
"N. c #AF1528",
"B. c #BC1B33",
"V. c #8D2E31",
"C. c #9C2A3A",
"Z. c #A62736",
"A. c #B9273B",
"S. c #C71D33",
"D. c #914A12",
"F. c #B54A05",
"G. c #BC5905",
"H. c #AA4E10",
"J. c #9C6F1C",
"K. c #B77010",
"L. c #844E26",
"P. c #8B5625",
"I. c #9A5925",
"U. c #905834",
"Y. c #AA582E",
"T. c #976F2D",
"R. c #976936",
"E. c #AA6727",
"W. c #B16B2A",
"Q. c #BA722B",
"!. c #A86532",
"~. c #B46B34",
"^. c #AC7C30",
"/. c #B87639",
"(. c #C45808",
"). c #D65A0F",
"_. c #C85B14",
"`. c #CB650A",
"'. c #D4690C",
"]. c #D27609",
"[. c #D36617",
"{. c #DC7815",
"}. c #C1722E",
"|. c #C77833",
" X c #E27B22",
".X c #983A4A",
"XX c #B23446",
"oX c #C23149",
"OX c #8F6E45",
"+X c #B37C51",
"@X c #A85D75",
"#X c #8B6C77",
"$X c #C17B45",
"%X c #C55C63",
"&X c #64833D",
"*X c #66853F",
"=X c #67893E",
"-X c #68883E",
";X c #668341",
":X c #688642",
">X c #AF841E",
",X c #B88731",
"<X c #CC800F",
"1X c #D5860A",
"2X c #DA940B",
"3X c #E89E18",
"4X c #EAA41A",
"5X c #F0AB1F",
"6X c #DA9325",
"7X c #C88A33",
"8X c #E88521",
"9X c #F09624",
"0X c #F3A824",
"qX c #F0AC24",
"wX c #9B8B4D",
"eX c #AF825E",
"rX c #D98844",
"tX c #CE924E",
"yX c #E39B4B",
"uX c #DBA344",
"iX c #E6B050",
"pX c #D39F65",
"aX c #AB7482",
"sX c #908A8A",
"dX c #B18194",
"fX c #A7A7A7",
"gX c #B9B3B5",
"hX c #C7A9AE",
"jX c #BBBCC0",
"kX c #BEC1C3",
"lX c #C6C4C7",
"zX c #D2CDD2",
"xX c #D5D6D8",
"cX c #E0DBDF",
"vX c #DEE2E4",
"bX c #E7EDF3",
"nX c #F2F7FB",
"mX c white",
/* pixels */
";X;X;X*X5.4.4.4.0.w.e.w.4.4.4.4.4.4.4.4.,.,.,.,.&.&.,.,.w.e.w.0.5.5.5.4.4.4.4.4.1.1.1.5.-X;X=X5.,.,.,.,.5.5.5.4.,.,.%.,.4.4.4.;X*X*X*X",
";X*X;X*X5.4.4.4.0.w.e.w.4.4.4.4.4.4.4.4.,.,.,.,.&.&.&.&.w.w.w.0.5.5.5.4.4.4.4.4.4.4.1.5.-X:X=X5.,.,.,.,.5.5.5.4.,.,.%.,.4.4.4.;X*X*X*X",
"*X*X*X*X5.3.4.3.0.w.e.0.4.4.4.4.4.4.4.4.,.,.,.2.&.&.&.&.w.w.w.0.5.5.5.4.3.3.4.4.4.4.4.8.-X-X=X5.,.,.,.,.5.5.5.4.,.,.%.,.4.4.4.;X*X*X*X",
";X*X;X*X5.3.3.3.0.e.e.0.4.4.4.4.4.4.4.4.,.,.,.,.,.,.,.,.w.w.w.[ .X5.5.4.3.3.4.4.4.4.4.5.-X*X-X5.,.,.,.mXmX5.5.mXmXmXmXmXmX4.4.;X;X;X;X",
"4.1.4.4.J J J H D H D D D D D D D D D D D D D D D D D D D D D +.V.y y y D D D D D D D D D D D D D D D mXmXD D mXmXmXmXmXmXmXmX4.4.4.4.",
"4.4.4.4.S S D h j j j h h h h h h h h W W W W W W W W W W h h ` V.y 2 5 h h W W W W W W W W W h h h h h h h h j j j h D S mXmX4.4.4.4.",
"4.4.4.4.H H h s s h s s s s s s s s h h h h s s s s h h h s s P C.X.1 5 s h h h s s s s h h h h s s s s s s s s h s s h D mXmX4.4.4.4.",
"4.4.4.4.H h s r r p e e i i i i i i i i i i i i i i i i p e e U M.+.2 5 e i i i i i i i i i i i i i i mXmXi e e p r r s h mXmX5.5.5.5.",
"9.9.8.9.D h p r r e 3 3 3 3 3 t i i i i d d t t t t d t i e e I m.XX5 5 e t i d t t t t d d i i i i t mXmX3 2 3 4 e r p h mXmX8.8.8.8.",
"9.9.8.9.D h p p 3 2 o . ; ; . 1 . 2 i i i i i t 2 : : : : 2 ] I U XX6 5 1 : : : 1 2 t i i i i i 1 . 1 mXmX; . o mXmXmXmXmXmX&.9.8.8.8.",
"9.9.8.8.D h p i 3 1 o : : : : : : 2 i i i i 3 3 1 ] ] : : : P I U Z.6 5 : : : ] ] 1 3 3 i i i i 2 : : mXmX: : o mXmXmXmXmXmX%.9.8.8.8.",
"8.8.8.8.J h i 6 1 + : 2 2 2 2 3 h h i i i 6 2 1 2 ] ] ] < 3 P I h.Z.5 5 ] ] ] ] 3 2 1 2 6 i i i f h 3 mXmX2 2 : mXmX6 i h J ,.9.0.0.8.",
"0.0.0.0.F g d 6 + + 2 3 3 3 3 3 D ' i i i 3 : : 3 3 3 ] ] ] l.h.h.M.l.] ] ] 3 3 3 3 ; ; 3 i i i ' D 3 mXmX3 3 2 mXmX6 i g F 5.e.0.0.0.",
"0.0.0.0.A g d 6 + + 2 3 3 3 3 3 h h i i i 3 : : 3 3 3 3 ] ] ] N.h.` ] ] U K 3 3 3 3 ; ; 3 i i i h h 3 mXmX3 3 2 mXmX6 d g A 5.0.0.0.0.",
"0.0.0.0.A S t 6 + + 2 3 3 3 3 3 j h e i i 3 : : 3 3 3 g.zXaX] ] I ] ] dXxXsX< 3 6 3 ; ; 3 i i e h j 3 mXmX3 3 2 mXmX6 t S A 5.0.0.0.0.",
"8.8.8.8.s...d 6 + 1 2 3 3 3 < 3 j h e i i 3 ; ; 3 3 d.xXbXzXM.S.h.h.C.lXbXlXsX3 6 3 ; ; 3 i mXmXmXmXmXmXmX3 3 2 mXmXt d ..s.4.e.e.e.e.",
"2.,.,.,.*.| i 6 + 1 2 3 3 < < q j j e e i 3 : + 3 3 gXvXbXcXZ.B.B.N.@XnXnX..sX3 3 3 + : 3 i mXmXmXmXmXmXmX3 3 2 mXmX6 i | *.4.2.3.3.3.",
"2.,.,.2.g h e 3 + + 2 3 3 3 3 q j h e e e < . + 3 6 lXxXbXnX%XS.S.B.aXnXnX=.#X3 6 3 + . 3 i mXmXh j q 3 3 3 3 2 mXmX3 e h g 4.,.,.,.,.",
"2.,.,.2.g h 4 4 + + 2 6 3 q 3 q j s e e i 3 . + 3 6 gXsXvXcX%Xb.).n.aXvXvXxXkX3 3 3 + . 3 i mXmXh j q 3 q t 6 5 mXmX4 4 h g 4.,.,.,.,.",
"2.,.,.,.D h p 4 + + 2 6 6 3 3 e ! ! e e i 3 . + 6 6 fXlXzXgXk.G.{.n.Z.xXxXlXfX3 6 3 + . 3 i mXmX! ! e 3 q t 6 2 + + 4 p h D 2.,.,.,.,.",
",.%.%.&.D h p 9 + + 2 6 t q e e ! ! 4 4 i 3 . + 6 t d.fXgXhXk.D.K.D.N.gXjXfXg.6 t 6 + . 3 i mXmX! ! r e q t 6 2 + + 9 p h S ,.%.%.%.%.",
",.%.%.%.S h p 9 + + 2 t t t r p } ! 4 4 e 3 . + 6 i F g.#X+.j.P P z.k.i.#Xg.L i i 6 + . 3 e mXmX! } p r t t t 2 mXmX9 p h S ,.%.%.%.%.",
",.%.%.%.S h p 6 + + 6 t t t e p } ! 4 4 4 3 . + t i i F _ _ j.U U v.k._ _ X.e i i 6 + . 3 e mXmXmXmXmXmXmXmXt 6 mXmX6 p h S ,.%.%.%.%.",
",.%.%.%.S h p 6 + + 6 t t t e e ! ! 4 4 4 3 . + t i i e 7 P k.F.G.F.N.) ; e p i i t + . 3 e mXmXmXmXmXmXmXmXt 6 + + 6 p h S 8.,.2.2.2.",
"4.2.3.2.S h p 6 + + 6 i 9 9 p p ! ! e e p 3 + + 6 t i i e ) M.G.G.n.A.D.s r p i t t 1 + 3 i e e ! ! p p 9 9 i 6 + + 6 p h S 0.<.2.2.2.",
"4.2.3.3.S h i 6 + + 3 i 9 9 p p ! ! e e p 3 . + 6 t i i e L.Z.(.`.n.XX/ s p p i t 6 + . 3 i e e ! ! p p 9 9 i 3 + + t p h S 0.<.,.,.,.",
"4.2.3.3.S h i t + + 3 i p 9 p p ! ! p e p 3 . + 6 i i p p Y.Z.].{.n.oX/ s p p i i 6 + . 3 p e p ! ! p p 9 p i 3 + + q i h S 0.<.2.2.2.",
"4.2.2.2.S h i t + : 6 i p p p p ! ! p i p 3 . + t i i p p ' ( 1X3XH.A.V.E p p i i t + . 3 p p p ! ! p p p p i 6 : + q e h S 9.2.2.2.2.",
"%.%.%.%.S h i t 1 1 t f i p p p ~ ! p p p 3 + : t i i p r E D.2X4XH.c./ E r p i i t : + 3 p p p ! ~ p p p p f t 1 1 q i h S &.%.%.%.%.",
"%.%.%.%.S h 9 3 1 2 i f i p p p ! W e p p 3 : 2 t i i i r E K.3X5XK.z.Q E r r i i t 2 : 3 p p e W ! p p p i f i 2 1 3 i h S &.%.%.%.%.",
"%.%.%.%.S h i 3 1 2 i f p p p p ~ W 4 p p 3 : 2 t i i p r ^ 2X4X5X3XG.O.Y r r i i t 2 : 3 p p 4 W ~ p p p p f i 2 1 3 i D S &.%.%.%.%.",
",.&.&.&.S h i t 2 2 i f p p p p ~ W e p p 3 1 2 i i p r r D.2X4X5X4X3XK.E r r p i i 2 1 3 p p e W ~ p p p p f i 2 2 t i D S ,.&.&.&.&.",
"2.3.4.4.F D i t 2 2 i h s s E W W E 4 e p 3 1 2 f W E | ,X2X2X6XqXqX2X2XK.| Y R W f 2 1 3 p e 4 E W W E s s h i 2 2 t i D F ,.4.4.4.4.",
"2.3.3.4.F D i t 2 : i { W W } ~ W s e e i 3 1 2 h W Y T.<X1X3XqXqX5X5X1X].J.T Y W h 2 1 3 i e 4 s W ~ } W W { i : 2 t i D F ,.4.4.4.4.",
"2.4.3.4.S d i 3 t 3 i f f s R s s s i p i i 6 9 e T OX@.].1X3X3X0X0X9X1X].D.T.OXT r 9 6 i i p i s s s s s f f i q t 3 i d S ,.4.4.4.3.",
"4.5.5.5.y d i 3 t t i i e p p p p r i i i i i i w T wXG.'.{.8X{.9X9X8X{.G.G.o.wXT w i i i i i i r p p p r 4 e i t t 3 i d y $.9.0.0.0.",
"4.e.0.0.*...i t t t i i e r r r r r i i i i i i w w v.F.F.'.{.'.8X X'.).(._.b.q.w w i i i i i i r r p p e e i i t t t i ..*.$.0.0.0.0.",
"4.0.0.0.=...i i t i i p p e p r r i i i i i i t < ( z.H.F.(.[.`. X{.`._.G.H.x.n.r < q i i i i i i r r p e p p i i t i i ..=.$.0.0.0.0.",
"4.0.0.0.J H i i t 3 1 : : : : : : > 3 i i i i 3 ' z.Y ( b.[.(.(.[._.(.F.x.( R z./ o 3 i i i i 3 > : : : : : : 1 3 t i i H J $.e.0.0.0.",
"8.9.9.8.S a i i 1 2 : : : : : : < < i i i i 3 < Q Q Z o.v.b.F.b.F.H.F.H.) f p.b F o 2 3 i i i i < < : : : : : : 1 1 i i h S 2.4.1.1.1.",
"0.4.4.4.S a i i o o : 3 3 3 3 3 s a i i i i o o 1 b u...Y.( ) z.x.^ v.v.o.N a.v K 1 o o i i i i i s 3 3 3 3 3 1 o o i i a S 2.4.4.4.4.",
"8.4.4.4.S h e i o o 2 3 3 3 < 3 j s 3 e i i o o 1 N V c O.A d D.^ A W o.F C a.M b 1 o o t i i 3 s j 3 < 3 3 3 2 o o i e h S 2.4.4.4.4.",
"8.4.4.4.S h e i O o 2 3 < < 3 3 j s e e i i o o 2 B k v l c N / y N b  .K m t.n B 2 o o i i i q h j 3 3 < < 3 2 o O i e h S 2.4.4.4.4.",
"9.5.5.5.g j a a 1 + 2 3 < < < 3 j h e i i i o o 2 m z v v v C z h Z v b m v v M B 2 o o i i i q h j 3 < < < 3 2 + 1 a a j g 3.8.8.8.8.",
"5.9.8.8.S H a a : : 3 3 3 < 3 3 j h e i i i : o 2 n k k v V C v v V y.n v z x r.B 2 o : i i i e h ! 3 3 3 3 3 2 O : i a H S 2.8.8.8.8.",
"5.9.9.9.y H a i O : 2 3 3 3 3 4 W h i p t i : o 2 m k k z c y.p.m p.y.z z z k r.n Z o : i i i i h W 4 3 3 3 3 2 : O i i H y 2.9.5.5.5.",
"5.9.9.9.= H i i : : 3 3 3 3 3 4 W W p i i i : o 2 B l $ * v v v c v c z k * $ n x C o : i i p p W ! 4 3 3 3 3 3 : O i i H = <.5.9.9.9.",
",.,.,.,.- H i i : O 3 3 3 3 3 4 W E p p e i : o 2 b $ * # * z v z v z k * & x & l A o : i e p p W ! 4 4 3 3 3 3 O O i i D - 0.<.3.3.3.",
",.%.%.%.5 D a t 1 + 3 t i e 4 e ! W p p i i : o 3 q m z & # * k k * * & $ k V v b 3 o : t i i p W ! e 4 e i t 3 + : t a D 5 e.,.,.,.,.",
",.%.%.%.8 D d t 1 + 3 t q q 4 e ! W p p i i : o 3 q t.x k &     #     # & k u.u.N < o : t i i p W ! e 4 q q t 3 + 1 t d D 8 e.,.,.,.,.",
",.%.%.%.8 S d i 1 + 3 t q q e e ~ W e p i i : o 3 q t.V l k x # X   $ z k n u.u.N 3 o : i i i e W ~ e e q q t 3 + : i d D 8 e.,.,.,.,.",
"2.2.2.2.8 S d i : : 3 i e e e e } W e p i q : o q q t.y.n k k % X # $ k x t.u.y.N q : : q i p e W } e e e e i 3 : : i d F 8 %.9.0.0.0.",
",.2.2.,.8 S d d 1 : 3 i e e r p } W r p e e > : q q M t.t.k & ! * $   & M t.y.t.b q : > e p p r W } p r e e i 3 ; 1 d g S 8 %.0.0.0.0.",
",.3.,.,.8 F g d 2 : 3 i e e r p } W r p e e > : q q m t.t.M * ! A 3 % * V t.t.M q q : > e p p r W } p r e e i 3 : 1 d g F 8 %.0.0.0.0.",
",.2.2.2.- S g d 1 : 3 e i e r p } } r p e p : : 3 q K V t.y.v ! p 3 2 k y.V t.c q 3 : : p p p r } } p r e i e 3 : 1 d y S - %.e.e.e.e.",
"8.&Xe.e.= 5 6 d 1 : 3 i i e r p } } r p e p : : 3 i p v M y.m ! i 3 2 * C V M i e 3 : : p e p p } } p r e i i 3 : 1 d 6 5 = &.,.,.,.,.",
"8.&X&X&X- S g d 2 : 3 e r e r r } } p p e p : : 3 i p K L s.N ! e 3 2 5 L *.b i i 3 : : p e p p } } p r e i e 3 : 2 d g S - %.&.&.&.&.",
"8.&X&X&XA s.H i 2 2 p i i e p p } } p p p p : 1 4 i i F R./.! ! e 3 2 5 -./.=.i i e > : p p p p } } p p r i i p 2 2 i H s.A %.&.&.&.&.",
"9.&Xe.e.A *.S d : 1 p p i e r p } W e p e p 1 1 i i p F !.W.~ ! e < 2 5 -.|.:.p i i 1 1 p e p e W } p r e i i p 1 : d S *.A ,.,.,.,.,.",
"2.%.%.%.8 S y d 1 1 i p i e e s ! ! p p e p > 1 i i i J $X/.! E 4 < 2 5 s rX:.i i i 1 > p e p e ! ! s e e i i i 1 1 d g S 8 4.,.2.2.2.",
",.%.$.%.8 S g d 2 < i i i a s W ! h e i e i 2 1 i i f =.tX/.! E e < 3 5 s rX>.f f i : > i e p i W ! W s a i i i < 2 d g S 8 4.,.,.,.,.",
",.%.%.%.8 S g i 3 3 i h h h ! { { h i e e i 3 : s h h :.iX/.! E 4 < 3 5 h yXR.h h s : 3 i q e p h { { ! h h h i 3 3 i g S 8 4.2.2.2.2.",
",.%.%.%.8 S g i 3 3 i s a i h h f p e e i i 3 : h W W >.iX/.W h 4 3 3 5 W yXtXW W h : 3 i i i e p f h h i a s i 3 3 i g S 8 4.5.5.5.5.",
"9.0.0.0.- S g t 3 e e i i i e 3 e e e i i i i e i i i >.iX,Xi i 9 3 3 5 i uXuXi i i e i i i i e e e 3 e i i i e e 3 t g S - 4.;X*X*X*X",
"9.0.0.0.u u 2 , > > < < < < 2 2 < q t t i i t i t t t T.iX,X6 6 3 3 2 5 6 iXiXq q q t t i i t t q < 2 2 < 3 3 < > > , 2 u u 1.;X*X*X*X",
"9.0.0.0.G u 0 , o o o , , , O O O O , , , , 2 , , , #.uXiXJ.1 1 , , 2 @ 2 uXuXP., , , 2 , , , 2 O O O , , , , o o o , 0 u G 4.;X*X*X*X",
"9.0.0.0.5.4.4.4.4.4.4.4.,.,.,.,.,.<.<.+XeX/.E.!./.W./.pX7X>XR.OX:.;X>.R.^.tXtX7XW.~.R.~.+Xf.U.+XOX8.4.5.1.<.<.3.&.&.%.2.1.4.1.;X:X:X:X",
"4.5.5.8.4.<.<.<.4.4.4.4.,.%.%.%.5.0.0.~./.rX}.}.|.Q.~.I.I.J.7XrX!.,.|.7XQ.I.E.W.Q.Q.W.7XrXD.rXyX$X&.&.,.e.e.w.8.%.%.&.4.9.9.8.4.4.4.4.",
"4.8.8.8.4.3.3.2.4.4.4.4.%.%.%.%.4.0.!.I.P.L.;.O.-.O.L.P.^ } ;.;. .,.-.;.-.I.L.O.O.O.O.L.P.L.I.E.-.&.&.,.e.e.w.8.%.%.&.4.9.9.8.4.4.4.4.",
"4.8.8.8.4.3.3.2.4.4.4.4.%.%.%.%.4.0.8.0.,.,.,.,.5.5.5.5.w.w.&X&X,.,.,.,.,.,.,.,.4.4.4.4.8.9.8.9.&.&.&.,.e.e.w.8.%.%.&.4.8.9.8.4.4.4.4."
};
