/* XPM */
static char *e51c6710c6e549af85b12d19d6eca95abOaTmR9X0RMwDK2D[] = {
/* columns rows colors chars-per-pixel */
"67 70 238 2 ",
"   c #010C14",
".  c #000F1D",
"X  c #02131C",
"o  c #07171C",
"O  c #171A1A",
"+  c #2C140E",
"@  c #022A0A",
"#  c #082916",
"$  c #043718",
"%  c #12381D",
"&  c #33281E",
"*  c #021422",
"=  c #021A24",
"-  c #081C27",
";  c #0E1D2C",
":  c #072729",
">  c #02232C",
",  c #0B252B",
"<  c #14242B",
"1  c #1A2629",
"2  c #1B2B2D",
"3  c #0D3C2B",
"4  c #022434",
"5  c #0A2432",
"6  c #022A33",
"7  c #032C3B",
"8  c #082839",
"9  c #192A35",
"0  c #073438",
"q  c #02313C",
"w  c #1B3239",
"e  c #252726",
"r  c #232B2C",
"t  c #342E2C",
"y  c #392A28",
"u  c #28332E",
"i  c #34302C",
"p  c #3C332D",
"a  c #232D33",
"s  c #2A2D31",
"d  c #322E30",
"f  c #263331",
"g  c #23323A",
"h  c #353433",
"j  c #510C0E",
"k  c #6E1814",
"l  c #502E17",
"z  c #58381B",
"x  c #752C0F",
"c  c #683516",
"v  c #5C1D39",
"b  c #731B26",
"n  c #45292B",
"m  c #532729",
"M  c #493729",
"N  c #543B27",
"B  c #4C2931",
"V  c #5C2737",
"C  c #493835",
"Z  c #563C35",
"A  c #6C302D",
"S  c #652E38",
"D  c #762831",
"F  c #0B401F",
"G  c #3E551F",
"H  c #0A4C2B",
"J  c #074736",
"K  c #1B4432",
"L  c #0A5738",
"P  c #3E5322",
"I  c #056138",
"U  c #75471A",
"Y  c #56462E",
"T  c #415426",
"R  c #445B26",
"E  c #435729",
"W  c #465C2B",
"Q  c #495F2D",
"!  c #495D31",
"~  c #684927",
"^  c #7A4726",
"/  c #76552F",
"(  c #47612A",
")  c #4B632D",
"_  c #4F692F",
"`  c #516A2F",
"'  c #54702F",
"]  c #4E6631",
"[  c #4F6831",
"{  c #526C33",
"}  c #566F38",
"|  c #567135",
" . c #597536",
".. c #5C7937",
"X. c #577138",
"o. c #5A7539",
"O. c #5E7B3A",
"+. c #7C612F",
"@. c #617E3C",
"#. c #041D46",
"$. c #032B45",
"%. c #072846",
"&. c #032C4B",
"*. c #122B45",
"=. c #013444",
"-. c #0A3647",
";. c #043B45",
":. c #02344C",
">. c #033C4C",
",. c #143545",
"<. c #022C54",
"1. c #032D59",
"2. c #033352",
"3. c #023A55",
"4. c #093858",
"5. c #133E5A",
"6. c #0A3766",
"7. c #71334C",
"8. c #783C62",
"9. c #04414D",
"0. c #104F48",
"q. c #034958",
"w. c #16415B",
"e. c #304854",
"r. c #0B6742",
"t. c #126F4C",
"y. c #164364",
"u. c #0E566F",
"i. c #096873",
"p. c #6B5A45",
"a. c #5F7940",
"s. c #637E40",
"d. c #8D0C12",
"f. c #960A17",
"g. c #A40313",
"h. c #AB0213",
"j. c #A60F13",
"k. c #A90C1C",
"l. c #B10A1D",
"z. c #993805",
"x. c #892C10",
"c. c #B52E13",
"v. c #9A1021",
"b. c #AE142A",
"n. c #A81828",
"m. c #B61529",
"M. c #B51E31",
"N. c #8D2A34",
"B. c #9B2D3A",
"V. c #A9242A",
"C. c #A82435",
"Z. c #B42737",
"A. c #B43337",
"S. c #C01E3C",
"D. c #9A4309",
"F. c #8B431C",
"G. c #954B19",
"H. c #A34507",
"J. c #B64E0B",
"K. c #B86506",
"L. c #AA7315",
"P. c #864925",
"I. c #885223",
"U. c #995D29",
"Y. c #B45E23",
"T. c #896426",
"R. c #AE6E2C",
"E. c #B66A34",
"W. c #B77534",
"Q. c #C25509",
"!. c #CC5215",
"~. c #C86808",
"^. c #D57708",
"/. c #D66718",
"(. c #CB7214",
"). c #DC7516",
"_. c #E17D1A",
"`. c #C65B24",
"'. c #DA6B23",
"]. c #C67C36",
"[. c #E47B24",
"{. c #8A3449",
"}. c #953748",
"|. c #A93244",
" X c #BB3545",
".X c #C12B44",
"XX c #AE4456",
"oX c #976A48",
"OX c #BE7B45",
"+X c #954964",
"@X c #937477",
"#X c #B16D7F",
"$X c #D27C42",
"%X c #63813D",
"&X c #66853F",
"*X c #68883D",
"=X c #668541",
"-X c #688641",
";X c #6A8941",
":X c #6F9143",
">X c #B48635",
",X c #DA8A0A",
"<X c #D9900A",
"1X c #DA8916",
"2X c #E2950D",
"3X c #E48818",
"4X c #E69C16",
"5X c #F0971F",
"6X c #EAA51B",
"7X c #F3AC1E",
"8X c #CB8F32",
"9X c #D38535",
"0X c #D59839",
"qX c #EB8B26",
"wX c #D5A33A",
"eX c #E7A222",
"rX c #F1A823",
"tX c #B58255",
"yX c #C68249",
"uX c #DB8B43",
"iX c #D08F50",
"pX c #E59B4E",
"aX c #E7B151",
"sX c #C99068",
"dX c #126A83",
"fX c #A4768F",
"gX c #1C8285",
"hX c #8F8A8C",
"jX c #B68D9E",
"kX c #B3A7B0",
"lX c #B7B7B9",
"zX c #CAACB8",
"xX c #C9CBCC",
"cX c #D0CDD2",
"vX c #D5D7D8",
"bX c #DDDCE2",
"nX c #DFE2E7",
"mX c #E8ECF3",
/* pixels */
"=X=X=X&X| { { { O.@.@.@.{ { { { { { { { ) ) ) ) Q ) ) ) @.@.@...| | | { { { { { { { { | *X=X*X| ) ) ) ) | | X.{ ) ) Q ) { { { =X&X&X&X",
"=X&X=X&X| { { { O.@.@.@.{ { { { { { { { ) ) ) ) Q Q ) ) @.@.@...| | | { { { { { { { ` | &X=X*X| ) ) ) ) | | X.{ ) ) Q ) { { { =X&X&X&X",
"&X&X&X&X| { { [ O.@.@.O.{ { { { { { C }.n N.B n Q Q ) ) @.@.@.O.| | | { [ [ { { { { { | &X&X*X| ) ) ) ) | | | { ( ( W ) { { { =X&X&X&X",
"=X&X=X&X| [ [ [ O.@.@.O.{ { { { ` { C  XD B.D B.( ) ) ) @.@.@.O.| | | { [ [ { { { { {  .&X&X*X| ( ) ) ) | | | { ( ( W ) { { { =X=X=X=X",
"{ ` { { _ ) ) ) { { { { ) ) ) ) V V C  XC.Z.B.A. .B y o.@.@.%XO.) Q Q _ @.@.@.@.@.@.@.%X&X=X&XO.| |  . .O.@.@.o.Q Q Q { X. .o.{ { { { ",
"{ { { { ) ) ) ) { { { { ( ) ) ) 7.|.C  Xn.M.M.Z. .S D  .@.@.@.O.) ) ) _ @.@.@.@.@.@.@.%X=X=X=X..| | | o.O.O.O.X.W W W { o.o.o.{ { { { ",
"{ { { { ) ) ) ) { { { { ( ) {.n 7. XA .Xb.l.l.m.n D B. .@.@.@.O.) ) ) { %X%X@.@.@.@.@.%X=X=X=X..| | | o.O.O.O.X.W W W { o.o.o.{ { { { ",
"{ { { { _ ) ) ) { { { { ( ) XXB.}.A.V.M.l.h.h.h.b D C.| @.@.@.O.) Q Q ( O.@.@.@.@.@.@.%X&X=X&X .{ { { { o. . .o.{ { [ { { { { | | | | ",
"o.o. .o.{ { { { ) ( ( ( ) ) XXA.Z.Z.n.l.h.h.h.g.f.n.n.) O.O.O. .Q W W R { { { { ] ] ] { |  . .{ ) ) ( ) { { ] | @.@.@.{ Q Q Q  . . . .",
"o.o. .o.{ { { { Q ( ( ( ) ) |.A.C.C.n.k.h.h.g.g.g.k.n.) O.O.O. .Q Q Q Q { { { { [ ] ] { o.o. .{ ) ) ) ) { { { | @.@.@.{ Q Q Q o. . ...",
"o.o. . .{ { { { ( ( ) ) ] ) B.Z.C.n.k.g.h.h.g.g.g.g.n.) O.O... .Q Q Q Q { { { { _ _ _ {  . . .{ ) ) ) ) { ` { | @.@.@.{ Q W W o. . .o.",
"o. . . .{ { { { R ( ( ( ) ) D Z.n.n.g.h.l.m.m.b.g.g.k.) O.O.O.o.Q W W Q { { { { _ _ _ {  . . .{ ) ) ) _ [ [ { | O.O.O.[ ) ) ) o.O.O...",
"O.O.O.O.{ { { { @.@.%X%X-X-Xn V.n.k.h.m.S.n.f.f.f.f.f.W ] ] ) ) ( Q ) ) { { { { { { { | O.O.O.o.o. .| X.W W W ( [ [ { { X.X.| @.O.O.O.",
"O.O.O.O.{ { { { @.%X%X%X-X=X=XV d.g.l.m.C.+XjXfXfX}.f.W ] ] ] ] ( ) ) ( { { { { { { { | O.O.O.o. . .| o.W Q W ) { { { { | | | O.O.O.O.",
"O.O.O.O.{ { { { @.%X%X%X=X=X-X-Xj f.l.C.zXcXmXmXbXzX}.m ] [ [ ] ( ) ) ( { { { { { { { | O.O.O.o. . .| o.W Q W ) { { { { | | | O.O.O.O.",
"......O.{ { { { @.@.@.@.-X-X-Xp N.f.b.fXbXbXcXmXmXnXkXb { { { { ( ) ) ) { { { { { { { | o.X.X.O. .o.o.{ Q R R ) { { { { } | { @.@.@.@.",
"] ) ) ) W R R R ) ( ) ) ] ] ] M N.g.C.jXnX@X+ vXmXnXxXb { { | | | | | { ( ( ) ( O.O.O.{ R R R [ | | | | | | | | { { { { { { { ] ] ] ] ",
"] ) ) ] W R R R ) ) ) ) ] ] ] A !.m.|.zXbXcXlXnXmXbXxXS { { { { | { { { ( ( ) ( O.O.O.| W R R [ | | | | | | | | { { { { { { { ) ) ) ) ",
"] ) ) ] W R R R Q ) ] ) ] ) y [./.j.C.zXcXvXbXbXvXcXlXS { { { { { { { } ) ) ) ( O.O.O.| W R W { | | | | | | | | { { { { { { { ) ) ) ) ",
"] ) ) ) [ [ [ [ { { { { ] ) U 1X~./.b.#XlXxXcXcXxXlXhXm { { { { ..o.o.o.{ { { { | | | { { { { { { { _ { o.o. .| { { { { ] ] ] ) ) ) ) ",
") W Q Q o.@.@.@.O.O.O.@.) Q p ~ D.J.d.{.@XkXlXlXkXhXS @.) ) ] { @.&X&X&X@.@.%X@.) ) ) { @.%X@.{ ) ) ) Q o.o.O.X.{ { { ) ) ) ) Q W W W ",
") W Q W | @.@.@.O.O.O.@.) Q Q y j x d.b 7.8.8.8.7.V V @.) ) ] { %X&X&X&X@.@.%X@.) ) ) { @.%X@.X.) ) ) ( ....O.X.{ { { ) ) ) ) Q W W W ",
") W Q Q | @.@.@.O.O.O.@.) Q Q n b j d.x.x b v 7.v B @.@.) ) ] { @.%X&X%X@.@.@.@.) ) ) { @.%X@.@.) ) ) ( ..O.O.X.{ { { _ ) ) ) Q W W W ",
"( W Q Q | @.@.@.@.O.@.@.) ) ) B n.W v.c.J.H.D.x j t @. .( ( ) ) ......O. . .| o.] { { { ` ` { X.) ) ) ( ) ) ( ) ) ) ) { o.X.X.) ] ] ] ",
"{ ] [ ] { { { { { { } | [ { { B Z.Q b.A.~.~.~.K.x { { { Q Q W ) | | | | { { { { | | | { [ ] ] ] ) ) ) ) E E E W Q Q Q | O.O.O._ { { [ ",
"{ ] [ [ { { { { } { | { _ { { m Z.) Z.V.~.^.^.K.z { { { W W W ) | | | | { { { { | | | { ] ] ] ] ) ) ) ( R E E W ! ! Q | O.O.O._ ` ` _ ",
"| [ [ [ { { { { { | | | ` { { m N.) .XV.^.,X,XK.y { { { W W W ) | | | | { { { { { { { { ] ] ] ] ) ) ) ) E E E W Q W W | O.O.O._ ] ] ] ",
"{ ] ] ] { { { { X.| | | ` { { _ ( ( Z.V.1X2X1XK.{ { { { ) ) ) ) { { { { { { { { { } } { ] ] ) ) ) ) ) ) R R R R ) ( R | O.O.o.] ] ] ] ",
"W W W W Q ) ) ) @.%X@.@.@.@.@.O. . .b D.eXrX,XK.{ { { { { { { { ) ) ) ) ] ] ] ] ) ) ) ) W Q W Q { { _ _ O.O.O.O.=X=X*X{ Q Q Q W E E E ",
"W W W W Q ) ) ) @.%X@.@.@.@.@.O. . .x (.6XrX,X~.{ { { { { { { { ) ) ) ) ] ] ] ] ) ) ) ] W Q W Q { { _ _ O.O.O.O.=X=X*X{ Q Q Q W E E E ",
"W W W W Q ) ) ) @.%X%X%X@.@.@.O. .L.2X7X6X6X2X~.i { { { { { { { ) ) ) ] ] ) ] ] ) ] s 8 &.&.*.( ` ` ` _ O.O...O.-X-X*X{ Q Q Q W E E W ",
") Q Q ! { o.o.o.o.......O.O.O.Y T.<X6X7X6X6X4X3XG.p ] ] { { { { ) ) ) ) { { { g -.2.&.<.2.2.1.*.*.{ { _  . . . .O.O...{ ) ) ) Q Q Q Q ",
"] { { { %X:X:X:X| { { { O.O.O.Y L.4X7XrX6X2X<X1XQ.l ) ) | | | { W ) Q ( | | ,.5.5.5.4.2.<.1.1.1.1.%.] [ { { { { { { [ ] ) ) ) { { { { ",
"] { [ { %X:X:X:X' { { { O.O.O.N ,X<X<XrX4X4X1X[.!.x.t ) | | | { ( ) Q ) { 9 5.y.y.y.:.&.&.<.1.1.1.<.g [ { { { { { { [ ) ) ) ) { { { { ",
"] { [ { %X:X:X:X' { { { O.O.O.(.,X5X3X5X3X3X).).!.c.y ) | | | { ( ) ) ( | ,.w.y.w.$.$.&.&.%.1.1.1.1.%.[ { { { { { { { ) ) ) ) { { { [ ",
"{ | | | O.@.@.s.` { { { { { z ~.).qX_.qX[././.'.J.c.t 2 ) ) ) ) _ [ [ { ] ,.w.5.%.$.$.$.$.4 %.<.<.<.<.9 { { { { { { ` Q E E E o.O.O.O.",
"{ @.O.O.{ ) ) ) ) ) ) ) _ ] F.~.).)./.'.'.'.`.Y.c.D 9 , r Q Q ) _ { { { ) ,.5.*.4 - ; 2 g { { ' :X8 <.%.{ { { { { { ` W T T T O.O.O.O.",
"{ O.O.O.{ ] ] ] ) ) ) ) ] ) D.Q././.Q.!.`.z.G.P.Z c.A < 5 a Q ) _ { { { a ,.,.> a ) ) ] { { { ' :Xr $.&.9 { { { { { ` W T T T O.O.O.O.",
"{ O.O.O.{ ) ) _ ) ) ) ) ] ] H.J.Q.J.z.H.F.l N h e.m k O 7 8 a t [ { { { - ,.5 2 ) ) ) ] { { { ` :X:X; &.9 { { { ` ` { W T T T a.O.O.O.",
" .o.o...{ ] ] ] ] ) ) ) { c `.z.D.z.k c N f 0.gXdXw.-.9 7 $.7 a ) ) ] ] - w - ) 9 8 %.{ @.@.O.O.G G G 4 *.{ ] { o.o...{ ] ] ] { ` ` ` ",
"O.{ { { ] ) ) ) ) ) ) ) { c J.x c x.& & 2 8 i.dXu.3.4.:.$.$.&.&.*.w g ] 5 5 = 5 7 $.&.%.O.O.O.O.T T T * 4 { [ { o.o.o.{ ) ) ] { { { { ",
"..{ { { ] ) ) ) ) ) ) ) { P.x.+ e F.2 , 8 =.i.i.>.>.5.4.&.:.&.:.2.:.-.0 ,.,.: > 8 %.2.2.&.O.a.O.T T T < 4 { [ { o.o.o.{ ) ) ] { { { { ",
"..{ { { ] ) ) ) ) ) ) ) { c M - < + 5 6 w.-.9.>.=.&.:.4.:.2.2.3.3.3.:.=.=.:.=.0 0 5 &.4.1.%.O.O.T T T P - 9 [ { o.o.o.{ ) ) ] { { { { ",
"o.| | | | { { { { { { ` ) M i > < o 0 7 7 q q q $.$.$.2.2.2.3.3.2.:.>.>.>.>.>.;.J K 5 2.6.<.a [ ) ) ) ) = < [ ] W W R ) [ [ ] X. . . .",
"| o. .o.o.X.| | | | | { ( Q d : : 0 ;.6 6 > 6 7 7 7 %.&.2.3.3.3.:.:.:.:.:.;.q 0 0.0.3 5 1.1.9 [ ) ) ) ) = < [ ] W W R ] [ [ ] X.o. . .",
"| o.o.o.o.| | | | | | { ( Q Q f 0 q 0 > > 6 6 6 6 4 - $.&.3.3.2.:.:.:.=.=.7 # @ 3 0.L , %.1.*.{ ) ) ) ) o ] [ ] W W R ] ] [ ] o. . . .",
"| o.o.o.| X.X.| | | | { ( Q ) ) 1 : X > > > > > > > > - 4 &.:.&.=.=.=.=.6 $ $ @ $ # L 3 8 <.%.[ ) ) ) ) , [ [ ) Q Q W ] ` _ _ X.o.o.o.",
") ) ) ) ) ) ) ) { { ` { ] ) ) ) { 1 X = > > > > > > >   X 4 4 4 7 7 5 : @ $ r.$ r.% F L > %.%.W ) ) ] ( , =X%X%XO.O.O.O.O.O.O._ [ [ [ ",
") W W W ) ) ) ) ] ] ] ] ) ) ) ) { { r   = = = > = = =   X >.q.q.>.7 < # @ H t.H t.L f I J #.#.W Q Q Q ( 2 =X-X&X%X%X%X@.@.@.@.) ) ) ) ",
") W W W ) ) ) ) ] ] ] ] ) ) ) ) { { { d O o o   X X     = 9.q.q.>.q 9 @ @ $ t.r.L I u K I 0 <.2 Q Q Q ( r =X-X&X%X%X%X@.@.@.@.) ) ) ) ",
") Q W Q ) ) ) ) [ ) ) [ ) ) ) ) { { { { { { O   X X X . = ;.q.q.3.=., @ @ @ # L L I f d K L q = ) ( ( Q f =X=X&X@.@.@.s.@.@.@.) ) ) ) ",
"] ] ] ] { X.X.X.{ { { { | | | | ] Q Q Q { { r * * * * * = =.9.>.>.$.# @ @ $ f > 3 J L u < w J > h O.O.s.R R R ) X.X.| ) R R W o.O.O.O.",
") ] ] ) { | | | { { { { | | | | ] W Q Q { { { o * * = * = q >.>.;.$.2 , | 2 # 2 - - - , g e e : 0 g O.O.W W Q ( { | | ] R W W o.O.O.O.",
") [ ) ) { | | | { { { { | | | | ] W W Q { { { o * > 6 > 2 8 ;.=.=.8 1 r X.| | | { { { { [ [ ] 1 o r O.O.Q W W ) | | | ] W W W o.O.O.O.",
") ] ] ] { | | | { { { { | | | ' ] Q Q Q { { { s > ;.;.-.2 , q =.q , { { { | | | { { { { [ ] [ { e o s s.Q Q Q ) } { | ) R R W a.@.@.@.",
"| @.@.@.{ ) ) ) @.@.@.@.&X&X&X&XX.] ] ) @.@.@.@., =.;.;.r f 6 7 7 r Q ( @.@.O.O.@.@.%X .W Q W Q ) r O ) { { { ] ] ] ) ) W W Q ) ) ) ) ",
" .%X%X%X{ ) ) ) @.%X@.@.%X%X%X&X| ] ] ) @.@.@.@.s e.f 9 Q E 2 2 9 ) Q ( O.O.O.O.@.@.@. .Q W W Q ) ) ) ) { { { { ] ] ) ) W W W Q Q Q Q ",
" .%X%X%X{ ) ) ) @.%X@.@.%X%X%X&X| ] ] ) @.@.@.@.u / W.;XQ W M E.C ) Q ( O.O.O.O.@.@.@. .Q W W Q ) ) ) ) { { { [ ] ] ) ) W W W Q Q Q Q ",
"o.%X@.@.{ ) ) ) o...O...@.@.@.@.| { { [ @.@.@.O.t I.9X%X) W M $XC ) ) (  . . .o.o.o.o.| W W W ) ] ] ) ) { { { { [ [ ] ) ) ) ) ) ) ) ) ",
"] Q W W {  .O.O.) ) ) ( { | | | | { { { |  . . .y U.9X_ { { M ].C ) ) ] ) ) ) ] R W W W ] ) ) ] { { { { { { { { { { { { X.| | ) ] ] ] ",
") R R R { O.O.O.( ( ) ) { { { { { { { { |  . .| p W.9X) { | N uXZ ) ) ] ) ) ) ) R R R Q ) ) ) ) { { { { { { { { { { { { | | { ) ) ) ) ",
") R R W { O.O.O.( ) ) ( { { { { { { { { |  .| | C pX0X) { { N pXN ] ] ] ) ) ) ] R R R W ] ] ] ] { { { { { { { { { { { { | | { ] ] ] ] ",
"( R R R | O.O.O.( ) ) ) { { { } { { { { X.X.X.X.Y pX0X) { { ~ aX~ ) ) ) ( ( ( ) R W W W ) ] ) ) { { { { { { { { ] ] ] { { { { |  . . .",
"o.O.O.O.| { { { { { { { ) ) ) ( ) ] ] [ ) Q ) ( Y aXwX) ) ) / aX>X=X=X-X@.@.@.@.{ { { { @.O.O.O.{ | | | { { { ) ) ) ( ) { { { =X&X&X&X",
"o.O.O.O.| { { { { { { { ) ) ) ( ) _ _ [ Q Q Q Q +.aXwXoX) ) R.aX>XC &X-X@.@.@.@.{ { { | O.O.O.O.| | | | { { { ) ) ) ) ) { { ` =X&X&X&X",
"o.O.O.O.| { { { { { { { ) ) ) ) ) ] ] ] Q Q Q p.0X0X8XY ) t 0XwX0Xp.&X*X@.@.@.@.{ { { | @.@.@.O.| | | | { { { ] ) Q Q ) { { { =X&X&X&X",
"o.O.O.O.| { { { { { { { @XyXyXsXOXW.E.].W.tXyX].0X0X8XoXtXY.W.8X8Xz M Z &X=X%X@.{ { { | @.@.@.O.X.X.{ | ` _ _ [ Q Q W ] ` { ` =X-X-X-X",
"{ X. .o.{ _ _ _ { { { { M $XOXE.pX9X9XuXuXsXyXuX].9X9XW.iX].R.>XR.R.].sX/ ( ( ) { { { {  .o. .o.Q Q Q ( @.@.@.X.W W Q { o.o. .{ { { { ",
"{  . . .{ [ [ ] { { { { h ^ P.P.U.I.P.^ ^ ^ R.R.I.I.I.I.R.^ z c c U U.W.~ ) Q ) { { { {  .o. .o.Q Q Q ( @.@.@.X.W W Q { o.o. .{ { { { ",
"{  . . .{ [ [ ] { { { { d i t i i i t t t i p p i t t y p y t t t y p C d ( ( ( { { { {  . . .o.Q Q Q ( @.@.@.X.W W Q {  .o. .{ { { { "
};
