/* XPM */
static char *xpm_[] = {
/* columns rows colors chars-per-pixel */
"70 70 243 2 ",
"   c #010C14",
".  c #000F1D",
"X  c #02131C",
"o  c #07171C",
"O  c #171A1A",
"+  c #2C140E",
"@  c #022A0A",
"#  c #082916",
"$  c #043718",
"%  c #12381D",
"&  c #33281E",
"*  c #021422",
"=  c #021A24",
"-  c #081C27",
";  c #0E1D2C",
":  c #062729",
">  c #02232C",
",  c #0B252B",
"<  c #17252A",
"1  c #1B2B2D",
"2  c #0D3C2B",
"3  c #022434",
"4  c #0A2432",
"5  c #022A33",
"6  c #032C3B",
"7  c #082839",
"8  c #192A36",
"9  c #073438",
"0  c #02313C",
"q  c #1B3239",
"w  c #252726",
"e  c #222B2C",
"r  c #342E2C",
"t  c #392A28",
"y  c #28332E",
"u  c #34302C",
"i  c #3C332D",
"p  c #232D33",
"a  c #2A2D31",
"s  c #322E30",
"d  c #263331",
"f  c #23323A",
"g  c #353432",
"h  c #510C0E",
"j  c #6E1814",
"k  c #502E17",
"l  c #58381B",
"z  c #752C0F",
"x  c #683516",
"c  c #5C1C39",
"v  c #721A26",
"b  c #45292B",
"n  c #532729",
"m  c #493729",
"M  c #543B27",
"N  c #4C2931",
"B  c #5C2737",
"V  c #493836",
"C  c #563C35",
"Z  c #6C302D",
"A  c #652E38",
"S  c #762831",
"D  c #0B401F",
"F  c #364B1F",
"G  c #13482E",
"H  c #074736",
"J  c #0A5738",
"K  c #354622",
"L  c #364A22",
"P  c #3B4D25",
"I  c #3C4E29",
"U  c #3E5226",
"Y  c #3E5229",
"T  c #056138",
"R  c #75471A",
"E  c #56462E",
"W  c #405427",
"Q  c #435926",
"!  c #42552B",
"~  c #455A2C",
"^  c #495D2E",
"/  c #435631",
"(  c #465B31",
")  c #4A5E31",
"_  c #684927",
"`  c #7A4726",
"'  c #76552F",
"]  c #4B622E",
"[  c #51672F",
"{  c #4D6333",
"}  c #4B6535",
"|  c #4E6934",
" . c #4F6538",
".. c #506635",
"X. c #536A35",
"o. c #526936",
"O. c #586E36",
"+. c #516638",
"@. c #546B39",
"#. c #586E3A",
"$. c #577136",
"%. c #597036",
"&. c #577139",
"*. c #5B723B",
"=. c #5C783B",
"-. c #61793C",
";. c #041C46",
":. c #032B45",
">. c #072846",
",. c #032C4B",
"<. c #122B45",
"1. c #013444",
"2. c #0A3647",
"3. c #043B45",
"4. c #02344C",
"5. c #033C4C",
"6. c #143545",
"7. c #022C54",
"8. c #032D59",
"9. c #033352",
"0. c #023A55",
"q. c #093858",
"w. c #133E5A",
"e. c #0A3766",
"r. c #71334C",
"t. c #783C62",
"y. c #04414D",
"u. c #104F48",
"i. c #034958",
"p. c #16415B",
"a. c #304854",
"s. c #0B6742",
"d. c #126F4C",
"f. c #164364",
"g. c #0E566F",
"h. c #096873",
"j. c #6B5A45",
"k. c #586844",
"l. c #596B45",
"z. c #5D7344",
"x. c #637946",
"c. c #63764B",
"v. c #667A50",
"b. c #8C0C11",
"n. c #960A17",
"m. c #A40313",
"M. c #AB0213",
"N. c #A60F13",
"B. c #A90C1C",
"V. c #B10A1D",
"C. c #993805",
"Z. c #892C10",
"A. c #B52E13",
"S. c #9A1021",
"D. c #AE142A",
"F. c #A81828",
"G. c #B61529",
"H. c #B51E31",
"J. c #8D2A34",
"K. c #9B2D3A",
"L. c #A9242A",
"P. c #A82435",
"I. c #B42737",
"U. c #B43337",
"Y. c #9A4309",
"T. c #8B431C",
"R. c #954B19",
"E. c #A34507",
"W. c #B64E0B",
"Q. c #B86506",
"!. c #AA7314",
"~. c #864925",
"^. c #885223",
"/. c #995D29",
"(. c #B45E23",
"). c #896426",
"_. c #AE6E2C",
"`. c #B66A34",
"'. c #B77534",
"]. c #C25509",
"[. c #CC5215",
"{. c #C86808",
"}. c #D57708",
"|. c #D66718",
" X c #CB7213",
".X c #DC7516",
"XX c #E17D1A",
"oX c #C65B24",
"OX c #DA6B23",
"+X c #D2752C",
"@X c #C67C36",
"#X c #E37B24",
"$X c #8A3449",
"%X c #953748",
"&X c #A93244",
"*X c #BB3545",
"=X c #C12B44",
"-X c #AE4456",
";X c #976A48",
":X c #BE7B45",
">X c #954964",
",X c #937477",
"<X c #B16D7F",
"1X c #D27C42",
"2X c #6D8250",
"3X c #B48635",
"4X c #DA8A0A",
"5X c #D9900A",
"6X c #D98916",
"7X c #E2950D",
"8X c #E38818",
"9X c #E69C15",
"0X c #F0971F",
"qX c #EAA51B",
"wX c #F3AC1E",
"eX c #CB8F32",
"rX c #D38535",
"tX c #D59839",
"yX c #EB8B26",
"uX c #D5A33A",
"iX c #E7A222",
"pX c #F1A823",
"aX c #B58255",
"sX c #C68249",
"dX c #DB8B43",
"fX c #D08F50",
"gX c #E59B4E",
"hX c #E7B151",
"jX c #C99068",
"kX c #126A83",
"lX c #A3768F",
"zX c #1C8285",
"xX c #8F8A8C",
"cX c #B68D9E",
"vX c #B3A7B0",
"bX c #B7B7B9",
"nX c #CAABB8",
"mX c #C9CBCC",
"MX c #D0CDD2",
"NX c #D5D7D8",
"BX c #DDDCE2",
"VX c #DFE2E7",
"CX c #E8ECF3",
/* pixels */
"I / ~ ~ o.o.| $.| &.~ Y ~ ( { ( P F P ! ! I ) +.{ o.+.@.] ] ( z.=.=.] ] ( ( } ( ~ ~ ~ ( ~ { U U ] U Y Q o.X.#.o.o...~ ! Y ~ ( ~ ) ..+./ W ! ",
"U ~ ~ ~ +.o.o.X.@.@.~ Y Y } ) ) P L P ! ! ! { {  .+.+.X.} Y ] &.-.z.] ] ~ ( ] ~ ~ ~ ~ ~ ( ~ U P F ] Y ] o.X.o.X.X.*.^ ! ! ( ^ ^ ! K K W ! ! ",
"~ ( ~ ( )  . .+.| | ] ~ ~ ) ( ^ L L V %Xb J.N b ..o...@.] ] } z.x.x.] ~ ] ~ ( ~ ~ ~ ^ ^ ~ ] U L L ~ ] Y o...X.X.X.X.~ Q ! ) ^ ^ ! K K ! ! m ",
"| ~ / ] ! I I I Y Y #.*.#.! ! ! I L V *Xv K.r.K.......+.~ ] Y Y U Y ~ { ] |  . .^ ~ ~ ~ ~ ~ ~ } } ( ( ] ) ^ ] } ] ] ] Q Q ~ ^ ^ I I I ! ! ! ",
"| ~ ~ ( Y Y ! ! ! ! &.$.X.W ! ! C Z N *XP.I.P.U.@.N t ..~ ! Y Y Y Y ) ~ ~ | +.+.~ ! ! W ! ~ { +.| ] ( ~ Y Y Y Y Y Q X.%.#.~ / / ! i W ! E ! ",
"} { ] ~ ! ! ! ! ! ~ #.$.X.W ! ! r.I.V *XF.P.I.I.[ A S  .~ / Y I P L ] ^ ] +.+.@.! ! / ~ ^ ! +.k.@.Y ( ] Y Y Y ! ! ! #.*.#.! ! ! ! W I W ~ ~ ",
"! +.| ..) ) / ! Y ! @.X.o.U $Xi r.*XZ =XD.D.G.G.n S K.) Y ~ Y ] ] ( ~ ~ ~ +.+.+.W ! ! ! W / ) ) } } ~ ] Y Y ! / W Y @.#.#.U ! ! ! W W W W Q ",
"~ +.o. .) ( / ! Y ! o.X...I -XK.%X*XF.H.V.M.M.M.j S L.! Y Y ~ @...} W ~ ! { ) ) W P I I I I / W U @. .@.} ] ) Y W Y ..X.@.U ! ! { +.....) ] ",
"/ #.o.| ) ) / I Y ( @.@.} U -XU.&XI.D.B.M.M.M.m.n.F.L.] ~ Y ! +.X.#.Q Y W { { ) P P P P I I W I Q +.+.+.) E ) ! ! U ..X.X.U W W ....X.) ) ) ",
"~ ~ Q Y ! ! ! ( ( ( ~ ] Y I %XI.P.P.F.M.M.M.m.m.n.n.F.@.Y Y /  .} ( ~ ] ]  .{ ) W W W W W W W W Y +.+.+.) ) / ! W Y o.X...W Y W ..[ [ ) ) ) ",
"~ ] ~ ~ Y Y ~ ~ ( ~ ~ ~ ! L &XI.P.F.B.m.M.M.M.m.m.m.F.=.~ Y ! Y Y Q | o.o.] |  .^ ....O.X.*.~ ( ( ~ ~ ~ ! / / / / ! ^ ) ~ P I P +.X.X.^ ^ ^ ",
"~ ~ Q ! / Y Y ~ ~ ~ ~ ~ ! L S I.F.D.m.m.V.G.G.V.m.m.B.=.Y ~ ! ! Y Q ....o.] {  ...[ ] O.*.&.~ ( ( ~ ~ ! / ! ! ! ^ ~ ~ ~ ~ P I L ) X.X.^ ^ ^ ",
"{ X.X.{ ~ ~ ( { ] ] { | ~ U b L.F.B.m.G.H.F.S.n.n.n.n.O.~ ^ ~ ! Y ~ o.....] { { ..] [ #.#.@.~ ( ~ ~ ~ ~ ! ! ! ^ ^ ~ ~ ~ ~ L P P ..+.+.^ ~ ~ ",
"{ $.X.{ ( ~ { } ......o.{ U ! n S.m.V.G.P.>XcXlXlX$Xn.^ ......~ / ] { { { Q Y ~ ..X.] U U U Y Q ~ X.X.@.~ ! ! ) ] ] ] | { U P P ^ ) ) ^ ! ! ",
"..%.$.] ~ ~ ^ | [ [ ....) W ! ! h n.V.D.nXMXCXCXBXnX%Xn +.....^ ( ] } ) ) Y Q Q ....[ Y Y Y ! ! Q &.&.#./ ^ ^ ) [ ] ......W ~ U P W U U ~ ~ ",
"] ..] ] ) ] ^ ) )  .{ { ~ W W V J.n.G.lXBXBXNXCXCXBXnXv +.+...! ~ ( } } ~ Q U Q ....| I Y I Y W ~ #.&.#.^ / ^ [ ..] ......W W ! P P I ~ ! ! ",
"^ ~ ! ..{ { ! W Y ( { ( ~ ~ ~ V J.m.P.vXVX,X+ NXCXVXmXS U F I ! Y ~ ( / )  ...) U U W I I W ^ ^ ] | { ^ ) ) ) ) / ) ......~ ! W W W W ^ ~ ~ ",
"~ ~ ! ) { { ! W Y ) ~ ] ] ~ ! _ [.G.&XnXBXMXbXCXVXBXmXA L K I ! ! ~ Y Y ) @.+.) L I I I P I ) { ~ ~ ~ ~ { ..) ! W W ^ ) ) ! ~ ! Q ! W ......",
"~ ! / ) / ) ! W ! ~ ^ ^ ~ ~ t #X|.N.L.vXNXNXBXBXNXMXbXA F K I / ~ / ~ ~ ~ +.+.) I L K I I W E ..] ~ Q ~ { { ) W W ! / ) ^ W ~ ~ W W W ....X.",
"W W W W ! W +.+.X.^ ^ ^ ~ ~ R 5X|.|.G.<XbXmXmXMXmXbXxXn I W ! ) ) ! Y U ( +.+.) Q Y ! ! ! ! ^ ^ ~ ~ ~ ~ ) ) ) W W ! ^ ^ ^ ^ ~ ~ ~ ! ~ +.+...",
"Y Y U I P P ....X.~ ~ ~ ~ ^ i _ Y.W.n.$X,XvXvXbXvXxXB ! ~ / ) { { ! I L ~ #.X.[ ( ~ ~ / ^ / ~ ^ ~ Y I P I I ! X...O.~ ^ ~ ^ ^ ^ W ~ W ! P P ",
"Y I U U P W ..+.+.^ ^ / ^ ) ) t h z b.v $Xr.t.t.r.c B Y ! ! ) { { ! U P ! O.O.X.{ { ) / ! ! ^ ! / Y W I P U U o.....~ ~ ^ ^ ^ ~ ~ ~ ~ P P I ",
"( ( ^ ] ..{ ~ ^ ^ W ! W ) ) ^ b j h b.Z.x v c c c N ~ ^ ~ ~ ) ^ ^ ^ ! ! Q ....{ ] { { ! ! / ^ ^ ! Y I W U P W +.O...! ! ^ ^ ^ ^ ! ~ ! P P W ",
"( ] ] [ ....~ ! ~ I P W ) ) ] N F.) F.A.W.E.Y.z h t ^ ^ ~ ) ! W W ) ....~ U U | *.z.+.Y ! ^ ) ) { ) ) ) ..| { ^ ^ ^ W W ! ) ^ ^ { { { P I i ",
"] ] ] +.o...^ ~ ~ I U I { ) { N H.) H.U.{.{.{.Q.z ~ ] ] ^ ) ! ! ! ^ ....~ U W ..%.-.+.W W / ) ....) ) { o... .~ / / W P W ) ) { +...{ i P P ",
"Y ~ Q  .{ } ! Q Q ~ ! ! ] ~ } n P.) H.L.{.}.}.Q.l ] ( ] ] { ! ! ! ] [ { ^ U W ..%.%.{ ! W ^ { ..) ) ) { o... .~ ^ / P W W / { ) +.+.{ ! P P ",
"! Y Y { { ~ Q Y Y } { ] ] ] } n J.W =XL.}.4X4XQ.u ] Y =.x.-.| ( ^ ..[ [ [ X...) ^ ] | o.X.[ ] ] ^ W Q ~ |  .{ ! ! ~ ~ ! / ) ) ) / ) / W P P ",
"Y Y U ) { ( ! ! ~ { { { ~ ] ] Y I Y I.L.5X7X6XQ.Y Y Q z.=.=.] ] ^ ) [ { [ X...{ ^ ~ | #.#...] ^ ^ ! ! ! { ] ] ! ! ! ) ....) { ) W ! ! ! ! ! ",
"] ~ ~ ] | | ~ ~ ] } } { ~ ~ } Y ! ! x C.iXpX5XQ.] Y Q z.z.x.{ ~ ] ] ] ] ..X.#.{ ^ ] +.#.#...{ { ) Y Y ~ { ] ^ ! ! ~ +.) ^ ^ ^ ~ W ! ! ! ! ! ",
"z.*.=.=.*...] ^ { | { { P U L &.X.o.z 6XiXpX5X{.} } } ] ] ] ] Y Q $.=.*.W ~ ! ! ! ! ~ ) ~ ) { { ) ^ ~  .....{ ~ ~ ~ ) ) ..^ ^ ~ ~ ! ! ! ! ! ",
"&.&.&.&.$.@.{ { | ..| ] L P L &.X.!.7XwXiXqX7X{.u | } ~ ] ~ Y ~ Q $.=.*.W F P U W W a <.,.,.<.] | *.*.*.*.*.#.......+.+.{ F P ! l.%.+./ / ! ",
"z.&.&.&.*.X.{ { { | ] ] P P U E ).5XqXwXiXqXqX8XR.i | ~ ] ~ Y Y U *.-.-.W I L f 2.7.,.9.9.8.8.,.<.&.&.&.%.%.X.] ^ [ +.+. .P K W +.O.X./ ! ! ",
"~ W [ O.O.[ ! ! ~ ~ ( ] { | ] E !.9XpXpXiX5X5X.X].k { Q Y ~ ~ U U | | | Y F 6.w.w.w.q.8.7.9.8.7.7.;.#.*.*.*.X...| ..o.+. .L P W #.@.X.( / ! ",
"~ ~ ] X.X.^ ! ! ~ Q ( ( } ..o.M 4X5X7XpX9X9X6X#X[.Z.r Q U U ~ ~ U I I I ~ q w.f.f.w.7.,.,.7.8.8.8.7.f { X.X...Q ~ Q ~ ~ ~ +. .{ W Q Q ( ~ ( ",
"Q ~ { ..X.~ ! ~ ~ ~ ~ ] o...{  X4X0X8X0X6X6X8X.X[.A.t ! Y U Y U U Y Y I ( q p.f.w.:.>.>.7.>.8.8.8.7.>.{ +.X. .Q ! ~ ~ ~ ] X.| { W W W ^ ) ) ",
"! ~ ..X.X.^ ~ ~ ~ Q ~ ~ ] ~ l {..X8X.XyXyX|.OXOX[.A.a 1 U ] ~ ~ ~ Y U P ( 6.p.w.:.>.:.>.:.3 >.7.7.7.7.<.@.o.{ ! ! ~ ~ ~ ] | | ] W W ! ^ ) ) ",
"~ ~ } ..+.) ^ / ~ ] ^ W W ! Z.{..XXX|.OXOXOXoX(.A.J.e , e ~  ...o.&.X.o.U 6.p.2.3 - ; 1 a / / ! ! 7 7.>.+.+. .~ ! ) ) ! ~ ~ ~ ] ~ ~ ^ ^ ^ ^ ",
"~ ~ +.@.+.) ~ ^ ~ ^ ^ Q W ! R.].|.[.].[.oXY.R.~.n A.Z 1 , y  . .o.%.$.*.p 6.6.> a ) ) ) ) ! ! W / e >.>.8 +.{ ~ ( ! ^ ^ Q U U ~ @.....^ ~ ^ ",
"~ ~ +.{ { ) / ! / / ^ ~ W W E.].].W.C.E.Z.k C g a.n j O 9 7 p s +.%.$.X.- 6.4 1 ) ) ) ) ) ~ W W Y ! 4 ,.8 @.{ ( ( ^ ^ ^ Q U U ] #.O.O.Q ~ E ",
"( ( U U P W W W W ! W ^ ^ Z oXC.Y.C.j x M d u.zXkXp.2.9 6 :.:.p | X.$...- q - ) 8 >.8 ^ ~ ) { ..( ) ( 3 <.+.) / / ! ~ ~ Q U U ~ ..O.X.^ ^ Q ",
"{ ~ Y Y Y I I Y Y Y Y ( ) x W.z x z & & e 7 h.kXg.5.w.5.:.6 1.,.<.q f o., 4 : , 7 ,.,.>.W @.*.*.{ ( ) * 3 U I U I U W W W ^ ^ ..+.O...] ) ) ",
"( { Y Y Y Y I I Y Y / ( ) T.Z.+ & R.1 , 9 1.h.h.4.5.w.9.4.9.,.4.4.4.2.9 2.6.: > 7 >.9.7.>.#.#.#.}  .) < 3 Y U I I U ! W ! ^ ^ ..#.O...) ] ) ",
"+.#.@.#.o. .} } Y ( Y ( ) x m - , + 5 5 p.5.y.y.1.,.9.9.,.7.0.0.0.0.4.,.1.4.1.H 7 ; ,.e.8.>.O.#.{ ) ~ Q 3 8 Y U U W W W ~ ^ ~ ..#.+.+.] { ) ",
"X.X.X.X.o.] | +.~ Y / ( ) m r , O o 9 5 9 9 9 0 :.:.:.7.9.0.q.0.4.4.5.0.5.5.5.3.H G ; q.e.7.p Q ..o.#.+.= < @.| ..~ ! ! ^ ^ ^ ~ Q ~ Q ! ! ! ",
"..$.o...X.[ [ ..~ ~ ! ( ~ ~ u : : 9 y.5 5 > 5 5 6 6 :.,.9.q.i.0.4.4.4.5.4.3.0 9 u.u.2 8 8.8.<.Q ..[ X.X.= < ..[ [ ^ ! ! / ) ^ ~ W W W P W W ",
"Q ~ ..+...^ ~ ~ Y ! Y ) { { ^ y 9 9 9 5 = 5 5 5 5 5 * >.,.0.0.9.4.4.4.1.1.6 # @ 2 s.J : ;.8.<.~ | o.#.X.= @.| | ..^ ! ! ^ ^ ) ^ W ! W W P W ",
"W Q { { { W W ! I I Y { { { o.X.< : o > > > > > 3 > - = 6 :.4.:.1.1.1.0 5 $ $ @ $ # J 2 7 7.;.( ) ( ~ { ,  .) ( ^ ! W W ^ ) ) ) ~ ~ ! W W W ",
"U U ] { { W ! ! ! I ! ) { ^ $.[ o.< o o > > > > - > >   X 3 3 5 6 6 4 : @ $ s.$ s.% D J ; >.>./ I I ! ) ; } ~ ! ! W ! W / ) ......O.O./ ^ / ",
"Y U | ] [ W W ! ! ! I ) ) ) #.%.#.^ e X o = = > = = =   X 5.i.i.5.6 < # @ H d.D d.J K T H ;.>.~ I I ! ( 1 { ! Y Y Y I ! / ) { ..X.O...^ ^ / ",
"Y ] $.*...^ ) ^ ! ! I E W ! *.*.*.! W r O o o X X       = y.i.i.0.0 8 @ @ $ d.s.J s.a G T 9 7.1 W ! W ^ 1 { Q U U ! ! Y ! ..) ..X.O.X.^ ^ ~ ",
"Q Q %.o.X.^ ^ ^ W ! ! ! W W *.=.*.W P W ~ ) O   X * X   = 5.i.i.5.1., @ @ @ $ s.J s.d y G G 5 o W ! ! +.y *.{ ] { ! Y ! ! W ! ..%.*.#.W W ! ",
"Q ] %.%.O.] ^ ~ W ! ! ! Q ~ z.*.*.W W W ) ^ e * * * * * = 1.5.y.5.0 # @ @ $ d : 5 J G y < q H > g ! W #.X.#.] ] ] ~ / ! W W ! ..%.*.#.I W W ",
"Q | X.X.[ X.....Y ~ Q ~ ~ Q ~ ~ ) ! I P { ^ ) o * * = * = 6 4.3.4.0 p : | 1 # q - * - 1 q e w : 8 f Y @.&.&.] ] ) Q W ! W W W ..#.%.[ W W W ",
"~ { o.o.X.X.X.| Q Y ~ ~ ) { L L K ! ! I { ) ..o * = 9 5 1 7 3.3.3.7 w e ~ ] ] Y Q ] ] ~ Y Y U 1 X p Q @.+.#.[ [ X.Q ! ! ~ ^ ^ ^ ....Q W W ! ",
"~ } X.o.X.%.O...Y Y ~ ( ^ ^ L L I I ! ! { +.{ a > 3.3.2.1 , 0 1.0 , ] Q ] Y Y ] Y ] ~ Y ] I I I w o a +.X.X.$.%.O.Q Q ! ( ) ) Y K K P ! W ! ",
"~ ~ { o.[ X.[ ] ~ ( ) ( ~ ! P I I I ! W  .{ | ..4 1.5.9 ^ e 5 6 0 e ( ( Y ] } Y ] ~ ~ ] ( L L Y ! e O | ..X.X.X.O.^ ! ! / ) ) ! I K P ! ! ! ",
"~ ! W I Y ! Q ] &.&. .U Q Y U U U ~ ~ ~  . ...o.f g d 8 ( Y < < ~ ( ( |  ... .W ~ Q ~ / / ( ( ~ ~ ( Q { { { { { [ ! ! ! / ] ^ W i P P ! W ! ",
"^ W U ! ~ ! Y { *.&.{ ~ Y Y U U Y Y ~ ~ o.X.o.o.g ' 3X~ Y I m 1X~ ( ~ | o...{ ~ ~ ! ~ ~ Y @.| | ( ~ ( Y Y W ! I ! +.#.-.~ ! ! ! ! K ! ! ! ^ ",
"^ W W ! Y ! U o.&.&.] Y Y U U U Y ~ ~ ~ | X... .g ^.rXY ~ L m 1X( } (  .X...^ ! ~ ! ~ / ] | | } ] ~ ( Y ! ! ! E / +.#.%.! / ! W W W W ~ ! ^ ",
"+.^ ) ( ! Y U o.@.&.~ Y Y ~ { } ~ ] ( / o.X.X.{ g ).rXY ~ ~ C +XE Y ( } ....^ ! ! Y ! ! Y @. .| ] ( ) Y ! ! ! ! ! #.#.%./ ! ! W W W W / ~ ^ ",
"..^ ) ) ! Y Y  .o.$.~ Y Y Y @.@.{ ] ] } X.X.#.~ V '.eXQ Y +.M dXE Y ! ) { { W I I P I U Y Y Y Q | ....~ ^ / W ! W +...O.! ! W ^ ) ) ) ) ~ { ",
"+.^ / ) ! ! Y  .o.o.~ U Y (  .@.{ ] ] ] X.X.+.Q V fXtXY !  .E gXM Y ! ( { ) W I P I L I Y Y Y Q | ..o.~ / ) ! W W +.X.X.! W W ) +.+.+.) { | ",
") / ! / ! ! ! } | | ~ Y Y ( @.| ] ] ] ] #.#.| ] E gXtXY ~ +.E hX_ Q ! ] { { Y I I U U L P Y Y Q ..o.o.~ ~ ~ W W W { +.#.! ! W ) o.| { { ) { ",
") ! ! ! ~ ~ ~ ~ ~ ~ I L I { @.o.{ ~ ~ Q Y ! ~ =.E hXuX/ ! Y ' hX3Xo.{ ] { { ) ^ ~ {  . .{ Q Q ~ ] ) { Q ! ! W ! ~ ) { { ! W W ) | | } ^ ( { ",
"! E W ! ^ ^ ~ ~ ~ ^ U P I ) +.@.{ ~ ~ Q U Y } x.^.hXuX;XU U _.hX3XV O.| ] { o.] ] X.%.=.[ Q ~ ~ ~ ~ ~ Y Y Q ~ ~ ^ ~ ~ ( L I W ) +...} ~ ~ Y ",
"~ W W ! / ~ Q ^ ~ ~ I L P )  .+.] ~ / ( Y Y ] #.tXuXtXE ! & uXuXuXj...o.] { [ ] ] o.#.%.[ ~ ~ ~ ~ ~ ~ Y Y ~ ~ ) ^ ~ ( ( I K P ) #...{ ( ( ~ ",
"#.^ ^ ^ ) X.....o.+.! ! ,XaXsXjX1X'._.sX'.sXsX@XfXeXeX;XaX(.'.eXeXl m E ^ ] | ] [ X.X.X.{ ~ ~ ! Q ~ Q U ! ! ~ ! ! ~ ~ ~ P F W ) o.o.) ( ( ~ ",
"+.~ ^ ^ +.) [ o.o.o.~ Y l rX:X`.gXrX@XtXdXjXsXdX@XrXrX_.fX@X_.3X_._.@XjX' Y } o...~ W P ! ! ! ^ %.%.#.~ ^ ) { +.....o...~ ! ! W W ! U ~ ~ Y ",
"X.! ~ ) { ) { ......Q U g ' ~.~./.^.~.` x ~._./.^.^.^.^.`.T.l x l z /.'._ Y | o...~ ! I W ! ! ^ %.#.+.( ^ ) ) ....o.....~ ! ! W I I ! ! ! Y ",
"c.c.c.l.l.c.c.v.c.c.z.l.r s u i i u s u u i V i u r r t g g r y r r m m r l.v.x.x.l.k.k.k.k.k.c.2X2Xv.z.l.c.c.c.x.v.v.v.k.k.k.k.k.k.l.k.k.k."
};
