/* XPM */
static char *_7617f4a0eca44f3e2771554192dcec5Bh4dNbSpZ8V7jZVk[] = {
/* columns rows colors chars-per-pixel */
"70 70 121 2 ",
"   c #190F05",
".  c #190F08",
"X  c #1D1207",
"o  c #151108",
"O  c #1E130A",
"+  c #1F180A",
"@  c #1E1E1E",
"#  c #231407",
"$  c #231509",
"%  c #28160C",
"&  c #26190B",
"*  c #2B1D0D",
"=  c #311F0E",
"-  c #261D10",
";  c #2D1E11",
":  c #221F1D",
">  c #321F10",
",  c #2E210D",
"<  c #32210E",
"1  c #39250E",
"2  c #2E2011",
"3  c #23211F",
"4  c #2C231A",
"5  c #352411",
"6  c #3B2612",
"7  c #352816",
"8  c #3E2813",
"9  c #322419",
"0  c #3E2D1A",
"q  c #242925",
"w  c #272828",
"e  c #29292A",
"r  c #352D23",
"t  c #382D25",
"y  c #372F28",
"u  c #3B3127",
"i  c #2E2E30",
"p  c #343535",
"a  c #3C3834",
"s  c #3D3A3B",
"d  c #412C03",
"f  c #423106",
"g  c #593C0E",
"h  c #402713",
"j  c #432C15",
"k  c #492F15",
"l  c #432E1A",
"z  c #482F1C",
"x  c #463015",
"c  c #4C3116",
"v  c #43311E",
"b  c #48311B",
"n  c #4E3319",
"m  c #4C351B",
"M  c #4E331C",
"N  c #4D351C",
"B  c #4F341C",
"V  c #503217",
"C  c #593C16",
"Z  c #51351A",
"A  c #53391D",
"S  c #51381E",
"D  c #412F20",
"F  c #423320",
"G  c #463321",
"H  c #483422",
"J  c #4C3723",
"K  c #493524",
"L  c #4D3725",
"P  c #4B3823",
"I  c #4F3823",
"U  c #4F3827",
"Y  c #45382B",
"T  c #4D3A28",
"R  c #513A23",
"E  c #513B25",
"W  c #533D27",
"Q  c #573C26",
"!  c #503A28",
"~  c #533C28",
"^  c #553C29",
"/  c #533D2C",
"(  c #5D430D",
")  c #644A01",
"_  c #7F5F06",
"`  c #634511",
"'  c #4E4235",
"]  c #4E4138",
"[  c #514336",
"{  c #504537",
"}  c #53473A",
"|  c #50453C",
" . c #574A3C",
".. c #526B32",
"X. c #3F3F41",
"o. c #4B4D4C",
"O. c #544D43",
"+. c #554F47",
"@. c #5D554B",
"#. c #535353",
"$. c #545252",
"%. c #6B5B49",
"&. c #676156",
"*. c #656565",
"=. c #686868",
"-. c #7A6D61",
";. c #747474",
":. c #7E7E7E",
">. c #836009",
",. c #987107",
"<. c #846815",
"1. c #86631A",
"2. c #906C14",
"3. c #9B7D18",
"4. c #AB9708",
"5. c #B9A115",
"6. c #AB9822",
"7. c #8E8E8E",
"8. c #909090",
"9. c #FEFCFA",
"0. c white",
/* pixels */
"G ! ~ Q M n c 8 % & 0.0.0.0.0.0.0.0.0.0.0.0.0.0.0.0.0.0.0.0.0.0.0.0.0.0.0.0.0.0.0.0.0.0.0.0.0.0.0.0.0.0.0.0.0.0.0.0.0.0.0.0.0.0.0.0.0.0.0.0.",
"v v K L ^ R N x j < % r 0.9.9.9.9.9.9.9.9.9.9.9.9.9.9.9.9.9.9.9.9.9.9.9.9.9.9.9.9.9.9.9.9.9.9.9.9.9.9.9.9.9.9.9.9.9.9.9.9.% < j x N R ^ L K ",
"G l v v H J W I N j 8 6 & } 9.9.9.9.9.9.9.9.9.9.9.9.9.9.9.9.9.9.9.9.9.9.9.9.9.9.9.9.9.9.9.9.9.9.9.9.9.9.9.9.9.9.9.9.9.& 6 8 j N I W J H v v ",
"F l 8 l v v G / ^ W b c c = j E 9.9.9.9.9.9.9.9.9.9.9.9.9.9.9.9.9.9.9.9.9.9.9.9.9.9.9.9.9.9.9.9.9.9.9.9.9.9.9.9.E j = c c b W ^ / G v v l 8 ",
"F 0 8 8 8 0 l l G U W Q N n c n c b 9.9.9.9.9.9.9.9.9.9.9.9.9.9.9.9.9.9.9.9.9.9.9.9.9.9.9.9.9.9.9.9.9.9.9.9.b c n c n N Q W U G l l 0 8 8 8 ",
"F l 6 6 6 5 6 0 v v K P ~ R S n n j 8  .9.9.9.9.9.9.9.9.9.9.9.9.9.9.9.9.9.9.9.9.9.9.9.9.9.9.9.9.9.9.9.9.9.8 j n n S R ~ P K v v 0 6 5 6 6 6 ",
"v l 6 5 * % 5 5 6 0 v v H U W E Z n k 6 % { 9.9.9.9.9.9.9.9.9.9.9.9.9.9.9.9.9.9.9.9.9.9.9.9.9.9.9.9.9.% 6 k n Z E W U H v v 0 6 5 5 % * 5 6 ",
"u 0 < % ; O O % 6 6 8 l v v v ~ W Q N c b * % & 9.9.9.9.9.9.9.9.9.9.9.9.9.9.9.9.9.9.9.9.9.9.9.9.& % * b c N Q W ~ v v v l 8 6 6 % O O ; % < ",
"e 9 5 $ # & $ O $ * 5 8 8 l l v H U ^ E N x j = % F 9.9.9.0.0.0.0.9.9.9.9.9.9.9.9.9.9.9.9.9.F % = j x N E ^ U H v l l 8 8 5 * $ O $ & # $ 5 ",
"X.9 5 $ # * * & $ $ # 8 8 8 8 l v v H U ^ R N j 1 j h %.9.0.0.0.0.9.9.9.9.9.9.9.9.9.9.9.9.h j 1 j N R ^ U H v v l 8 8 8 8 # $ $ & * * # % 5 ",
"#.] 1 $ # * * * * 5 # 8 8 8 8 8 8 l v v G T W E b 6 6 5 7 0.0.0.0.9.9.9.9.9.9.9.9.9.9.7 5 6 6 b E W T G v v l 8 8 8 8 8 8 # 5 * * * * # $ 1 ",
"+.[ 6 % # * * * * 8 v 6 8 6 < 5 6 6 6 0 v G G 0 5 5 7 9 9 0.0.0.0.9.9.9.9.9.9.9.9.9.9.9 9 7 5 5 0 G G v 0 6 6 6 5 < 6 8 6 v 8 * * * * # $ 6 ",
"v l 6 $ # * = > * 8 v 5 6 6 % ; $ = 5 5 6 0 D 9 ; 9 9 9 ; 0.0.0.0.9.9.9.9.9.9.9.9.9.9.; 9 9 9 ; 9 D 0 6 5 5 = $ ; % 6 6 5 v 8 * 5 * * # $ 6 ",
"0 l 6 $ $ * = 5 * 8 v 5 6 5 $ % $ X $ & 5 5 6 5 ; 9 5 ; * 0.0.0.0.9.9.9.9.9.9.9.9.9.9.* ; 5 9 ; 5 6 5 5 & $ X $ % $ 5 6 5 v 8 * 5 = * $ $ 6 ",
"v l 6 $ % < < 5 < 8 b 5 6 5 $ $ * * # O $ * 5 < * 9 ; % % 0.0.0.0.9.9.9.9.9.9.9.9.9.9.% % ; 9 * = 5 * $ O # * * $ $ 5 6 5 b h < 5 < < $ $ 6 ",
"v l 6 $ % 5 < 5 = 8 b 5 6 5 $ $ * * * & & % 5 < * 9 ; * & 0.0.0.0.9.9.9.9.9.9.9.9.9.9.& * ; 9 * < 5 % & & * * * $ $ 5 6 5 b h = 5 < 5 $ $ 6 ",
"F l 6 $ $ 5 5 5 < 8 b 5 6 5 $ $ * * * , j 5 5 , 2 9 ; & o 0.0.0.0.9.9.9.9.9.9.9.9.9.9.o & ; 9 2 , 5 5 j , * * * $ $ 5 6 5 b 8 < 5 5 5 $ $ 6 ",
"v l 7 $ % 5 5 5 = 8 z 5 6 5 $ # * = = * j j 5 , * 9 * &   0.0.0.0.9.9.9.9.9.9.9.9.9.9.  & * 9 * , 5 j j * = = * # $ 5 6 5 z 8 = 5 5 5 % $ 6 ",
"v l 7 $ % 5 5 5 < k Z 5 6 5 $ # * = = * j j 5 , 2 9 * & o 0.0.0.0.9.9.9.9.9.9.9.9.9.9.o & * 9 2 , 5 j j * = = * # $ 5 6 5 Z k < 5 5 5 % $ 6 ",
"v v 5 $ # 5 5 5 1 k Z 5 6 5 X % = = < < j j 5 , ; 3 * & o 0.0.0.0.9.9.9.9.9.9.9.9.9.9.o & * 3 ; , 5 j j < < = * % X 5 6 5 Z k 1 5 5 5 # $ 5 ",
"F 0 5 $ # 5 5 5 6 k Z 5 5 5 X $ 5 > 5 < j j 6 < - @ ; & o 0.0.0.0.9.9.9.9.9.9.9.9.9.9.o & ; @ - < 6 j j < 5 > 5 % X 5 5 5 Z k 6 5 5 5 # $ 5 ",
"F 0 5 $ # 5 5 5 6 k Z < 5 5 X $ = < < < j j 8 < 4 p 2 * o 0.0.0.0.9.9.9.9.9.9.9.9.9.9.o * 2 p 4 < 8 j j < < < = % X 5 5 < Z k 6 5 5 5 # $ 5 ",
"F 0 5 $ % 5 5 6 6 k S < 5 5 O % 5 5 < 5 j j 6 < 9 s 2 ; o 0.0.0.0.9.9.9.9.9.9.9.9.9.9.o ; 2 s 9 < 6 j j 5 < 5 5 % $ 5 5 < S k 6 6 5 5 % $ 5 ",
"F 0 5 $ # 5 5 6 8 k N < < 5 $ % 5 5 5 < j j 1 < 9 t ; * o 0.0.0.0.9.9.9.9.9.9.9.9.9.9.o * ; t 9 < 1 j j < 5 5 5 % $ 5 < < N k 8 6 5 5 # $ 5 ",
"F l 5 & # 5 8 8 8 c N 6 < 5 O & 5 5 5 < c b 6 < 2 9 * * o 0.0.0.0.9.9.9.9.9.9.9.9.9.9.o * * 9 2 < 6 b c < 5 5 5 & O 5 < 6 N c 8 8 8 5 # & 5 ",
"F l 5 % % 8 8 8 8 c Z 8 6 5 O & 5 5 5 6 c b 8 < 2 9 * * o 0.0.0.0.9.9.9.9.9.9.9.9.9.9.o * * 9 2 < 8 b c 6 5 5 5 & O 5 6 8 Z c 8 8 8 8 % % 5 ",
"F l 5 % % 8 8 8 8 c S 8 6 5 O & 5 5 5 6 c c 8 < 2 9 * * o 0.0.0.0.9.9.9.9.9.9.9.9.9.9.o * * 9 2 < 8 b c 6 5 5 5 & O 5 6 8 S c 8 8 8 8 % % 5 ",
"F l 5 & % 8 8 8 8 c S 8 6 5 $ % 5 5 5 1 c c 8 < ; 9 ; * o 0.0.0.0.9.9.9.9.9.9.9.9.9.9.o * ; 9 ; < 8 c c 1 5 5 5 % O 5 5 8 S c 8 8 8 8 % & 5 ",
"r l 5 % % 8 8 8 8 c S 8 6 5 $ % 5 5 5 8 c k 6 < * 9 ; % o 0.0.0.0.9.9.9.9.9.9.9.9.9.9.o % ; 9 * < 6 k c 8 5 5 5 % $ 5 6 8 S c 8 8 8 8 % % 5 ",
"q 9 < & * l j 8 8 c S 8 6 5 $ & 5 6 6 h n k 1 , 2 9 ; & o 0.0.0.0.9.9.9.9.9.9.9.9.9.9.o & ; 9 2 , 1 k c h 6 6 5 & $ 5 6 8 S c 8 8 j l * % < ",
"p t 5 < = b b j j n S 6 6 5 & % 6 8 8 8 n k 6 < , 9 ; & o 0.0.0.0.9.9.9.9.9.9.9.9.9.9.o & ; 9 , < 6 k n 8 8 8 6 % & 5 6 6 S n j j b b = < 5 ",
"#.| 5 6 6 j 8 b Z N N 5 5 5 & * 8 8 8 8 n k 6 < , 9 * & o 0.0.0.0.9.9.9.9.9.9.9.9.9.9.o & * 9 , < 6 k n 8 8 8 8 * & 5 5 5 N N Z b 8 j 6 6 5 ",
"Y ' 5 8 8 8 6 6 j N b 5 5 5 & * 8 8 8 8 V x 6 , , 9 * &   0.0.0.0.9.9.9.9.9.9.9.9.9.9.  & * 9 , , 6 x V 8 8 8 8 * & 5 5 5 b N j 6 6 8 8 8 5 ",
"F 0 6 6 8 8 8 6 5 8 v 5 6 5 & * 8 8 8 8 V j 5 , , 9 * & O 0.0.0.0.9.9.9.9.9.9.9.9.9.9.O & * 9 , , 5 j V 8 8 8 8 * & 5 6 5 b 8 5 6 8 8 8 6 6 ",
"F l 5 < 5 5 8 8 6 8 8 8 8 6 & * j 8 8 h V j 5 , , 9 * & O 0.0.0.0.9.9.9.9.9.9.9.9.9.9.O & * 9 , , 5 j V h 8 8 j * & 6 8 8 8 8 6 8 8 5 5 < 5 ",
"F 0 < * * $ % 5 8 8 8 8 8 8 5 < b l j h V b 6 < , 9 * & O 0.0.0.0.9.9.9.9.9.9.9.9.9.9.O & * 9 , < 6 b V h j l b < 5 8 8 8 8 8 8 5 % $ * * < ",
"F l 5 $ # # $ $ & 6 8 8 8 8 8 8 l b n Z S b 8 < , 9 * & O 0.0.0.0.9.9.9.9.9.9.9.9.9.9.O & * 9 , < 8 b S Z n b l 8 8 8 8 8 8 6 & $ $ # # $ 5 ",
"F l 5 $ # * & $ $ X * 8 8 8 8 6 f 6.) C b k 8 < , 9 * & X 0.0.0.0.9.9.9.9.9.9.9.9.9.9.X & * 9 , < 8 k b C ) 6.f 6 8 8 8 8 * X $ $ & * # $ 5 ",
"F l 5 $ # * * * % % # 5 8 8 8 6 d 4.5.>.` k 8 < 2 9 * & $ 0.0.0.0.9.9.9.9.9.9.9.9.9.9.$ & * 9 2 < 8 k ` >.5.4.d 6 8 8 8 5 # % % * * * # $ 5 ",
"v l 5 $ # * * = * 8 0 5 6 6 6 6 d ,.3.2._ g 8 < 2 9 * & * 0.0.0.0.9.9.9.9.9.9.9.9.9.9.* & * 9 2 < 8 g _ 2.3.,.d 6 6 6 6 5 0 8 * = * * # $ 5 ",
"v l 5 $ # * = 5 * h b 6 6 8 > * = <.1.1 ( ( 8 < 2 : - % % ;.;.:.:.:.:.=.*.=.*.;.:.:.:.% % - : 2 < 8 ( ( 1 1.<.= * > 8 6 6 b h * > * * # $ 5 ",
"v l 7 $ $ * = 5 * 8 l 5 6 6 % & O $ b 5 1 1 6 < - @ - % * ;.;.:.:.:.:.=.*.=.*.;.:.:.:.* % - @ - < 8 1 1 5 b % O & % 6 6 5 l 8 * > * * $ $ 6 ",
"F l 6 $ # = = 5 < 8 l 5 6 5 O $ % & O $ & < 6 < 4 i 4 % * ;.;.:.:.:.:.=.=.=.*.;.:.:.:.* % 4 i 4 < 6 < & $ O & % $ O 5 6 5 l 8 < 5 = = # $ 6 ",
"F v 6 $ # < < 5 < 8 l 5 6 5 O # * * * % $ * 6 < 9 s ; & & ;.;.:.:.:.:.=.=.=.*.;.:.:.:.& & ; s 9 < 6 * # % * * * # O 5 6 5 l 8 < 5 < < # % 6 ",
"v l 7 $ # 5 > > = j l 5 6 5 # $ * * * < 5 = 6 5 9 9 * & O 8.7.;.;.;.;.=.=.=.=.;.;.;.;.O & * 9 9 5 6 = 5 < * * * $ X 5 6 5 l j = 5 5 5 # $ 7 ",
"v 0 5 $ # < 5 5 < j l 5 6 5 # % * = * * j l 8 < 2 9 * & o 8.7.;.;.;.;.=.=.=.=.;.;.;.;.o & * 9 2 < 8 l j * * = * % X 5 6 5 l j < 5 5 < # $ 5 ",
"v 0 5 $ # 5 5 5 < j b 5 6 5 # % * = , * j l 8 < * 9 % & o 8.7.;.;.;.;.=.=.=.=.;.;.;.;.o & * 9 5 < 8 l j * , = * % X 5 6 5 b j < 5 5 5 # $ 5 ",
"F l 5 $ # 5 5 5 < k Z 5 5 5 X % * = 5 < j j 8 < * 9 * O   8.7.;.;.;.;.=.=.=.=.;.;.;.;.. & * 9 2 < 8 j j < 5 = * % X 5 5 5 Z k < 5 5 5 # $ 5 ",
"F l 5 $ # 5 5 5 5 c S 5 5 5 X % 5 5 5 < j j 8 < 2 9 * $ . :.:.:.:.:.:.7.7.7.7.7.7.7.7.. $ * 9 2 < 8 j j < 5 5 5 % X 5 5 5 S j 5 5 5 5 # $ 5 ",
"y 0 5 $ # 5 5 5 6 k S 5 5 5 X % 5 5 5 = j j 6 < 2 9 * & o :.:.:.:.:.:.7.7.7.7.7.7.7.7.o & * 9 2 < 6 j j = 5 5 5 % X 5 5 5 S k 6 5 5 5 # $ 5 ",
"w 9 5 $ # 5 5 5 6 k S 5 5 5 O % < 5 5 5 l 8 5 , 2 9 % & o :.:.:.:.:.:.7.7.7.7.7.7.7.7.o & % 9 2 < 6 j l 5 5 5 < % O 5 5 5 S k 6 5 5 5 # $ 5 ",
"o.9 5 $ # 5 5 6 8 n N 6 5 5 O % < 5 < < l j 5 , 2 9 ; ; o :.:.:.:.:.:.7.7.7.7.7.7.7.7.o ; ; 9 2 < 6 j l < < 5 < % O 5 5 6 N b 6 6 5 5 # $ 5 ",
"$.] 5 $ # 5 6 1 h c Z 8 6 5 O % 5 5 1 < c j 6 < 2 9 * * o ;.;.;.;.;.;.7.7.7.7.7.7.7.7.o * * 9 2 < 6 j c < 1 5 5 % O 5 6 8 Z c h 1 6 5 # $ 5 ",
"] Y 5 & % 6 8 8 6 c Z 8 6 5 O % 5 5 1 1 c j 6 < 2 9 * * o ;.;.;.;.;.;.7.7.7.7.7.7.7.7.o * * 9 2 < 6 j c 1 5 5 5 % $ 5 6 8 Z c 6 8 8 6 % & 5 ",
"F 0 5 & % 8 8 8 6 k Z 8 6 5 X % 5 5 5 5 c b 6 < 2 9 * & o ;.;.;.;.;.;.7.7.7.7.7.7.7.7.o & * 9 2 < 5 b c 5 5 5 5 % X 5 6 8 Z k 6 8 8 8 % & 5 ",
"F 0 1 & % 8 8 8 6 c N 8 8 < O & 5 5 5 1 c b 6 < 2 9 * & o ;.;.;.;.;.;.7.7.7.7.7.7.7.7.o & * 9 2 < 5 b c 1 5 5 5 & O < 8 8 Z c 6 8 8 8 % & 1 ",
"F v 6 & % 8 8 8 6 c Z 8 8 5 O & 5 5 5 1 c b 6 < 2 9 * & o ;.;.;.;.;.;.7.7.7.7.7.7.7.7.o & * 9 2 < 6 b c 6 5 5 1 & O 5 8 8 Z c 6 8 8 8 % & 6 ",
"v l 6 % % j 8 8 j n Z 8 8 5 O % 5 5 6 8 c b 6 < ; 9 * & o :.:.;.;.;.;.;.;.;.;.;.;.;.;.o & * 9 ; < 6 b c 8 6 5 5 % O 5 8 8 Z n j 8 8 j % % 6 ",
"F l 6 * * b b h h c S 6 6 6 & & 1 8 8 j V c 8 < ; 9 * & o :.:.;.;.;.;.;.;.;.;.;.;.;.;.o & * 9 ; < 8 c V j 8 8 1 & & 6 8 6 S c h h b b * * 6 ",
"8 8 5 5 6 l b n Z N S 6 6 6 & * 6 8 8 8 n c 8 < ; 9 * & o :.:.;.;.;.;.;.;.;.;.;.;.;.;.o & * 9 ; < 8 c n 8 8 8 6 * & 6 6 5 S N Z n b l 6 5 5 ",
"-.5 & , 5 5 8 8 N m b 6 6 6 & * 8 8 8 8 V b 6 < 2 9 * & . :.:.;.;.;.;.;.;.;.;.;.;.;.;.. & * 9 5 < 6 b V 8 8 8 8 * & 6 6 6 b m N 8 8 5 5 , & ",
"....@.& % * 5 1 8 j b 5 6 7 & * 8 8 8 h c j 6 , ; 3 & & o ;.;.;.;.;.;.:.:.:.:.:.:.:.:.o & & 3 ; < 6 j c 8 8 8 8 * & 7 6 5 b j 8 1 5 * % & @.",
"........+ & & * 7 5 6 5 5 5 & * 8 8 8 8 c j 5 , ; @ - & O ;.;.;.;.;.;.:.:.:.:.:.:.:.:.O & - @ ; , 6 j c 8 8 8 8 * & 5 5 5 6 5 7 * & & + ....",
"............| & & * 5 5 6 7 % < l j 8 8 c j 5 < 4 s 2 & O ;.;.;.;.;.;.:.:.:.:.:.:.:.:.O & 2 s 4 < 6 j c 8 8 j l < % 7 6 5 5 * & & | ........",
"................&.& % * 5 8 5 5 l b j k Z b 5 < 9 a ; & O ;.;.;.;.;.;.:.:.:.:.:.:.:.:.O & ; a 9 < 5 b Z k j b l 5 5 8 5 * % & &.............",
"....................r & % < 6 6 6 j N Z n l 1 < 9 9 * & O ;.;.;.;.;.;.:.:.:.:.:.:.:.:.O & * 9 9 < 5 l n Z n j 6 6 6 < % & r ................",
"........................4 % & , 5 8 j l M j 5 , 5 9 * * O 7.7.:.:.:.:.:.:.:.:.:.:.:.:.O * * 9 5 , 5 j M l j 8 5 , & % 4 ....................",
"..............................& & < 5 5 6 8 6 , 2 9 * % & 7.7.:.:.:.:.:.:.:.:.:.:.:.:.& * * 9 2 , 6 8 6 5 5 < & & ..........................",
"................................O.& * * 5 5 6 < 2 9 * % & 7.7.:.:.:.:.:.:.:.:.:.:.:.:.9 % * 9 2 < 9 5 5 * * & O.............................",
"....................................- & % * 7 < 2 9 * $ O 7.7.:.:.:.:.:.:.:.:.:.:.:.:.9 9 9 9 9 9 9 9 9 9 .................................."
};
