/* XPM */
static char *xpm_[] = {
/* columns rows colors chars-per-pixel */
"67 70 230 2 ",
"   c #01090E",
".  c #00180A",
"X  c #010C13",
"o  c #020B17",
"O  c #081417",
"+  c #02141D",
"@  c #031A1D",
"#  c #11191F",
"$  c #271014",
"%  c #33271B",
"&  c #011522",
"*  c #071627",
"=  c #021C24",
"-  c #021C2B",
";  c #06242A",
":  c #03232C",
">  c #18272B",
",  c #032433",
"<  c #082834",
"1  c #032E3C",
"2  c #132B33",
"3  c #132838",
"4  c #03313C",
"5  c #09383F",
"6  c #193536",
"7  c #282A28",
"8  c #352C2C",
"9  c #37302B",
"0  c #2D2C32",
"q  c #2D3638",
"w  c #353736",
"e  c #590805",
"r  c #571618",
"t  c #790203",
"y  c #6D120F",
"u  c #790918",
"i  c #472716",
"p  c #522718",
"a  c #583619",
"s  c #742A0F",
"d  c #692B17",
"f  c #683919",
"g  c #7A3715",
"h  c #5B1931",
"j  c #711422",
"k  c #4C312E",
"l  c #55392A",
"z  c #6E2B2F",
"x  c #663926",
"c  c #6A3D23",
"v  c #762234",
"b  c #3D541D",
"n  c #11463B",
"m  c #3E5222",
"M  c #3E443C",
"N  c #7A4B10",
"B  c #5A462F",
"V  c #415426",
"C  c #445B26",
"Z  c #435728",
"A  c #465C2B",
"S  c #495E2D",
"D  c #4F4438",
"F  c #495D31",
"G  c #684428",
"H  c #744426",
"J  c #694C36",
"K  c #785735",
"L  c #47602A",
"P  c #4B632D",
"I  c #4F692E",
"U  c #516A2F",
"Y  c #54702F",
"T  c #4E6631",
"R  c #4F6831",
"E  c #506731",
"W  c #526B33",
"Q  c #566F39",
"!  c #567135",
"~  c #597436",
"^  c #5C7937",
"/  c #577138",
"(  c #5A7439",
")  c #5A7539",
"_  c #5E7A39",
"`  c #5E7B3A",
"'  c #617E3A",
"]  c #617E3C",
"[  c #617E3D",
"{  c #627F3C",
"}  c #022543",
"|  c #023441",
" . c #0D3641",
".. c #033A43",
"X. c #013D49",
"o. c #702B43",
"O. c #054143",
"+. c #0F4B53",
"@. c #0A5760",
"#. c #5A5855",
"$. c #5F7940",
"%. c #7A6049",
"&. c #637E40",
"*. c #665F61",
"=. c #6C6566",
"-. c #8A030C",
";. c #870611",
":. c #890E14",
">. c #9C1519",
",. c #A90717",
"<. c #A50A1A",
"1. c #882A07",
"2. c #9C3D06",
"3. c #8D2D13",
"4. c #873412",
"5. c #A93C08",
"6. c #B7380A",
"7. c #AE2A13",
"8. c #801822",
"9. c #991C29",
"0. c #A91528",
"q. c #B41328",
"w. c #BC1B33",
"e. c #8D2E31",
"r. c #9C2A3A",
"t. c #A62736",
"y. c #B9273B",
"u. c #CC1F2E",
"i. c #C41C37",
"p. c #924A0F",
"a. c #914B13",
"s. c #AC4A0F",
"d. c #B54A05",
"f. c #BC5905",
"g. c #A15914",
"h. c #9C6F1C",
"j. c #B26C09",
"k. c #BD6A10",
"l. c #B77B18",
"z. c #844E26",
"x. c #8B5625",
"c. c #9A5925",
"v. c #905834",
"b. c #AA582E",
"n. c #986B29",
"m. c #976936",
"M. c #AA6727",
"N. c #B16B2A",
"B. c #BA722B",
"V. c #A86532",
"C. c #B46B34",
"Z. c #AC7C30",
"A. c #B87639",
"S. c #C45808",
"D. c #D65A0F",
"F. c #C85B14",
"G. c #CB650A",
"H. c #D4690C",
"J. c #CB7507",
"K. c #DD790B",
"L. c #D36617",
"P. c #DC7815",
"I. c #C77833",
"U. c #E27B22",
"Y. c #983A4A",
"T. c #B23446",
"R. c #C23149",
"E. c #8F654A",
"W. c #BA7941",
"Q. c #B17D59",
"!. c #A85D75",
"~. c #8B6C77",
"^. c #C17B45",
"/. c #C45C63",
"(. c #63823D",
"). c #66853F",
"_. c #66863E",
"`. c #68873E",
"'. c #67893E",
"]. c #68883E",
"[. c #668341",
"{. c #668541",
"}. c #678541",
"|. c #688642",
" X c #6B8A42",
".X c #708E46",
"XX c #6F9143",
"oX c #AF841E",
"OX c #B88731",
"+X c #CC800F",
"@X c #D5860A",
"#X c #D89406",
"$X c #DB940C",
"%X c #E38E12",
"&X c #E89E18",
"*X c #EAA41A",
"=X c #F0AB1F",
"-X c #DA9325",
";X c #C88A33",
":X c #F09624",
">X c #EEAA23",
",X c #F3A824",
"<X c #F5B028",
"1X c #AF825E",
"2X c #D98844",
"3X c #CE924E",
"4X c #E39B4E",
"5X c #DBA344",
"6X c #E0AC49",
"7X c #E8B253",
"8X c #D39F65",
"9X c #A37181",
"0X c #BA7985",
"qX c #908A8A",
"wX c #A7A7A7",
"eX c #BCA4AD",
"rX c #B8B8B7",
"tX c #C59CA3",
"yX c #C8B6B9",
"uX c #BBBCC0",
"iX c #BEC1C3",
"pX c #C6C4C7",
"aX c #CECED1",
"sX c #DCCAD4",
"dX c #D5D6D8",
"fX c #E1D4DB",
"gX c #E4DFE3",
"hX c #DEE2E4",
"jX c #E7EDF3",
"kX c #F2F7FB",
/* pixels */
"[.[.{.{.! R R Q ` (.` ` R R ! R W W W U L W P E S P S S ' ' ' ' U ! ! ! W R R E I I I ! '.{.'.Y L P P L ! W ! W L T A I E W W ).).).).",
"{.{.{.).( R R R ` ` (.` W / ! W W W W W P P E P S S S S ' ' ' ' ! ! ! W T W E E I R I ^  X{.'.Y P P L R ! / / R S S A I W E E [.).).).",
").).).)./ R E E ` (.` (.W R R W W W W W P P P E S S S S _ ' ` { ! ~ W ! R R W R R R R ! '. X'.Y L F P T ! ! / Q A L P T E W W ).).).'.",
"[.).(.).( R R E ` $.$.` W / R W U W U U U P U P P P S P { { { k Y.U ! W R R U U Y R R / '.'.'.Y L P P P / / / R L L S I W W E [.[.).).",
"W Y U Y I P P P W W W R L P P P { { { { &.|.|.|.~ ~ ) ) { { ] v e.L L I ).` (.` (.$.(.(.'.{.'.^ ( ( ~ ~ (.` (./ S A L U ( ~ ( W ! W W ",
"W W ! W I P P P / W W R L P P L { { { _ |.).).&.~ ) ~ ~ { { &.j e.L L I (.(.(.(.` (.^ (.{.{.{.^ / / ! ! (.` ^ ( A S S W ( ( ( ! I ! W ",
"! W W W I P P P W W W Q F P L L (.{ ] (.).).`.|.~ ~ ~ ~ { { { r r.k S I (.(.` (.(.` (.(.{.{.'.^ / / ^ ^ ` (.^ ( S A S W ) ( ( W R ! / ",
"! W Y ! P I P P W W R R L P P L ] { ] ] ] ).`.&.~ ! ! ~ { { { t 9.o.S L ` (.` ] ^ (.^ (.{.{.'.~ ! R I ! ( ( Q ( E E W W W W W ~ ! ! ! ",
"( ~ ^ ~ W E I W P S L P P P P P { (.{ _ ~ ! ! ! S S S S ` ( ^ t 8.T.A A R R R R R R R R ~ ! ~ I L I L P W W I ! (.{ ` W P S S / ~ ~ ^ ",
"( ( ^ ^ ! U W W S L L L I P P E { { { { ! ! / ! T P S T ` ` p t u T.A L Q R W W R R R W ~ ~ ~ R L I P P T E R ! { ` ` W A P S ( ~ ( ~ ",
"( ( ^ Y W R W W L L P P P P P E { { { { ! ! ! / L P P P ` ` r t u Y.A A R R W W I R R W ~ ~ ( W I P I P U U T ! { { ` W S F S ( ( ^ ^ ",
"( ^ ^ ^ ! R U R C L L L U P I L { ` { ] ~ ! ! ~ P S P P ` ` r t -.t.m L Q R W R I I R Q ^ ( ( W P I I I R R W ! ` ` ` T P L P ( ` ( ^ ",
"(.(.^ ` W W W T { { (.(.`.`.|.`.P I P E P S S T S S S S P -.,.-.;.9.<.<.r T Q W R W W ! ^ ` ` ~ { ~ ~ ! L S S L E W W W / / / ] ` ` ] ",
"` ` ` ` / W W W { { ] ] `.`.`.|.L P P P P P P F S S S S k j ,.q.:.u <.j j 0 W W ! R W ! ^ ` ` ^ Y ~ ( ( A L S P W E W W / W W ] ` ] ` ",
"` ` (.^ ! W W E { (.] ] |.|.|.`.P I P I P P S T S S S =.aX9Xq.i.t e ,.0XaXqXQ R R W R ! ` ` ` ( ( ( ( ( L A A P W E E ~ / / ! ] ` ` ` ",
"^ ^ ` ( W W E E ] { (.] |.|.&.] P T T P P S P F T L #.dXjXsX0.y.:.-.r.pXjXiXqXT W W W ! ( ( ( ( ~ ! ( / C C L P W E W W Q ! W ] ` &.` ",
"R T T P A F m F P P P P T T T T W ! ! W T P P P ~ ~ rXgXkXgXr.i.w.q.!.kXkXl qXL ` ^ ^ ) m F F R ~ ! ! Y ! ! Y ! ! ! ! E W E E E R T R ",
"R P T T A m L m S S S S T T T R ! W Y W I P W P ~ ~ pXdXjXkX/.u.u.y.9XkXkXl qXL ` ` ` Y F m Z R W Q ! ! Y ! ! ! W ! Q W E W E E P T T ",
"R R R T m F m L S S T S T T T T W W ! W W P P P ~ U rXqXdXfX/.6.D.7.0XhXhXdXiXL ` ).` U m F Z W ! ! Q Q ! ! ! ! ! W ! W W E W E T P T ",
"P L L L Q R R R Q W R W T L T L R I I I Q ( ( ! ^ ~ wXiXaXyX>.f.P.6.r.dXdXpXeXW / ! ( Q R W E W E U E U ~ ! ~ ! W W W W E E E F T L L ",
"T A A A $.(.` (.` { ` ] P S S S Z Z Z Z `. X X X(.(.#.wXrXtX3.a.l.p.q.eXuXwX=.&.L P P R ] (.] U P S S L { ~ ~ ~ E T W I I P P A A S A ",
"P A L A Q (.^ (.] ` ` ] S S S S Z Z Z Z {. X X X` (.0 *.~.z :.e y 1.>.o.~.*.w &.L P P R ] ] (.~ S P P L { ~ { ~ U I R I I T I A S A S ",
"F A A A ! ^ (.$.` ` ` ] P S S S Z Z V Z |. X X X` (.$.k h h u y y 4.9.h h k (.] T L P R (.(.{ ] P S P S ~ { _ ~ R E W P P I P A S S S ",
"L A L L ! (.$.(.] ` ] ` P P P S A Z S Z |. X.X X[.$.$.` $ e >.d.S.d.0.s $ / ~ ( T R T Q U U W ~ P P P L L L L L P I P W ( / / I F T T ",
"/ R R R E W W E ! ! Q ! E U U E P S S P S S S S R W Q R Z g 0.f.k.7.y.p.R W E W ! ! ! W E E E T P P P P Z Z Z V A A S ! { { { P R R R ",
"Q R R R W E E E ! ! ! ! E E I I P S P S S S S L Q R / W F v.t.S.j.7.R.d W W W W ! ! ! W E P T T P P P L C A Z A F S S ! { ~ { P R R T ",
"Q R R R E W U E Q Q ! ! U U E E L A S P S S S A W W R W L b.t.j.K.7.R.d W W E W Q ! Q ! E E E E P P P S V Z V C S S S ! ` { ^ U T T R ",
"Q T R R W W W W ! ( ! ! U E U P L S S P S S P T W R / R P p s #X&Xs.y.e.W E E W Q Q Q ! P P P P P P U P C C C C L L C ^ ` ` ( E T R T ",
"m F Z Z F E P P ] (.{ { { ' _ ~ ^ ^ ~ ~ U ~ ! W W W ! R R ! p.#X&Xg.8.d R T T I S P P F S S S S U U E I ( ` ( ` {.{.`.~ S S S Z A Z Z ",
"A Z Z Z S P P P ] ] { { ' ' { { ~ ^ ~ ~ ! W W ! W W R R W I j.&X*Xl.1.r R I T T P P F P S C S S U U I I ` ` ` ` {.`.`.W S S P Z Z A F ",
"S Z Z Z P P P S (.] { { ' { _ { ~ ^ ^ ~ W W ! W R R ! R W a #X&X=X&Xj.f I I I T P P P P Z S S S I I I I ( ` ^ { |. X`.W S S F Z Z Z F ",
"P F S T ! ( ] ] ] ! { ! ' ' { ~ ^ ^ ^ ^ U U W R R R R R ! p.#X*X=X&X*Xl.R W W E E E E E E E U U U I I I ~ ~ ~ ~ ` ( ( W S T P S F P P ",
"R E W E (.XXXXXX! W W ! ` ^ ^ ` ] ] ] ] S S S S S S P V OX$X$X-X=X<X$X$Xj.k Y ! ! ! W ~ ~ ~ ^ / W R R E W ! W W E E T T P T P W R R R ",
"R E R E ] XXXXXXY W ! W ^ { ` ` ] ] ] ] S S S S S S A n.+X@X&X,X=X=X>X@XK.n.! ! Q ! ~ ~ ( ~ ^ ~ W T R U ! W ! W E E T U P P P T R R R ",
"R R U E (.]..XXXY W W W ^ { { ` ] ] ] ] S S S S P S F N J.@X*X&X,X,X:XK.J.p.! / ! ! ! ! ( ~ ^ ~ R R R E W ! Q W R R E P P T P E R R I ",
"R ! ! U { ).] { U W W W ! I E E ! W ~ ~ ~ Q / W E E R k.H.P.:XK.:X:X%XK.f.k.x I T T T E ! ! W Y  X X]. X! / W W W R W S Z Z V ` ` ~ ^ ",
"W ] ` ` W E E I I P P P E E E E W ! ! ! ! ] Q ( E R 4.d.d.H.P.H.U.U.H.G.S.F.7.P T T F T W ! W Y XXXXXX.X! ! / W U E E Z V m V &.^ (.^ ",
"W $.` ` W E I I P I I P E P E E W ! W ! ( ! ( ( E g 3.s.d.S.H.H.U.P.G.F.d.s.3.7.F T T T U W W ! XXXXXX X! W ! W E E E S V V V $.^ (.` ",
"! ` (.` ! P E P P P P P P W E E W ! ! ! ! ] ( ! k 1.p s 5.L.S.d.L.D.S.d.2.s i 1.s T T E Y W W W XXXXXXXX! W ! W U U E Z V V m &.).^ (.",
"/ ( ` ( W E P E P E P P E E P E E E E P E W E P i p 6 f 4.5.s.d.d.s.d.s.s i +.# 8 T E W (.] &.` b m b b I R R W ) ) / Q T E F T I U R ",
"` ! Y ! R T T T P F E P W E E E P S S S E W W E ( >  .k b.s s 1.2.f 1.g c > @.: 0 T I W ] ` ` ` m V Z m R R T Q ) ) ( W P E U E W W W ",
"^ I W ! P L T P P P P P E W W W S S S S P E E E ( 2 1 ; f % % p.p 7 i f 9 5 @.1 > U T / ` ` ] ` V V m m R R T Q ) ) { W P E I E W I W ",
"(.Y W W T T S T P P P P U E W E P S S S E E E E / 3 = , = > 2 d % 6 > B 0 , | , 3 R R W ` ` $.` V m m m R R R R ) ) ) W T I I E R W R ",
"! ! ~ ! W W W R ! U ! U P E F E P U U E T P T P T 3 = , ; :  .; % 6 : > < , , 1 3 XXXX).W R W T T T P P R I T T A A C P R E E ! ~ ! ^ ",
"/ ( ^ ( ( / ! / ! ! ! U P S S T E ! ! ! P S P S S , + & : 4 4 : : 4 5 , : ; - } < XXXX).R R W W T T T P R R R P A Z m T R R R ~ ! ( ( ",
"/ ( ( ( / ! / W ! ! ! ! P F S F E ! ! ! S P S T Z 3 & & ; ; ..5 1 O.5 = = = & } , 6 XX).R R E E F T P P T R R T A F Z T T R R / ( ! ~ ",
"! ^ ( ( ~ Q / / ~ ! ~ ! L S S S U ! ! ! P S S P S < * X @ ; : ; ; ; = ; = + X - - n XX).R W T T P E E P R R R T A A Z T R R I ( ( ( ( ",
"U P P P P T I T E E E E E P P P W W W W W W W E R > X = X @ = ; ; ; = @ @ + - + * 7 W I A C Z S F P S S [.{.(.(.` ` ` ` ` ` ^ I R R R ",
"P S A S S P T P E T T R I I T P R W W W W W W W W W < - + X + + @ @ + + o & 1 , ; P P P m F m F S S F P  X).{.).(.] { { { ` { P T P W ",
"P A A A F P S P T I I E I P P I R W W W W E W W W / | - & X X   X     X + & X.X.3 T P F F m P m S S S P {.{. X).] (.{ { ` ] ] U P T I ",
"P S S S P P P P E E I E T I I I R W W R W W W W W W | 4 * & = X .   o & & , X.X.2 P T P m P m L S L L C {.{.).{.(.] { &.&.] ] U T T T ",
"T T T T W Q ( / W W E W ! / W ! T L L A W W W W P S | ..: & = * .   o & - ..X...> W R R R R T T { ( { &.C A A P / ( ~ P V Z A ` ^ ` ( ",
"P R T I W ~ ! ! W W W W W ! ~ U T F A F W W W W L S 1 ..| & + P @ o   + 1 | ..| > W W E R R R R { ` ` ` S S A L Q / W T Z A A $.` ` ` ",
"P T T T W W ! ~ U W W W ~ ! ~ Y T L A L W W W W S S < | | 1 & P 7 T O + 4 | | 1 T E W W R R R T ` ` ` ` A S S P ~ W ~ S A Z S ( ( ` ` ",
"P R R R W ~ W W W E W W ! ~ ! Y P A L A ! T ! W S S 7 4 | ..: T E W W = ..4 | : R R W W R R R R ` ` ` (.A P A P Q ! ! T Z Z Z $.` ` ` ",
"/ (.(.] W I I P ] ] (.] ] (.(.(./ R T P (.(.` (. X]. X: 1 ..< Z S S S @ | 4 1 ` (.(.(.! A A F A P P P P T E T R T T T L S S S L P S F ",
"W (.(.{ W S L S ] (.(.] (.(.(.(./ T T P (.` ` (. X X|.6 q M 7 A S S S L q M > ` (.` (.! A A F L P T P I E I U E T I I S S S S S S S S ",
"~ (.{ (.W P P S ] ] ] ] (.] (.(.! I T P ` (.(.(. X X].8 m.A.V V P S S L J I.D ` (.(.(.! A F A F R I P I U U W E T T T P Z S A S S S S ",
"~ (.{ { W P S E ] ( ( ` { { ] { ! I E E ` (.(.(.(.(.] 8 C.N.A A S S P L x I.J ~ ` ^ ! / A L L L I T I I E W W E E U I T P P P P S S S ",
"P C S P W ^ ~ { S S L P Q ! ! Y W ! ! W ~ / ! ! P I S k ^.C.W W P E P E F 2XJ S m Z A L T T T T W R E I W ! / W E E E W / ! W I I T T ",
"L Z A Z Y { ' ' L S S S ! ! ! W W ! ! ! ^ ! / / P P I B 3XA.W ! I P P I S ;Xv.F A Z A A P I I T R W R R W ! ! W W E E ~ ! ~ W T P T U ",
"P A m Z U ) ~ { L P L S W ! ! ! ! W W W Y ! ^ / P I P J 7XZ.! W P T R I P 4Xm.F Z Z Z L P T T T W R R W ! W W W U W E W ! Q W T T P T ",
"P m L A ! { { { L P S P W / W Q W ! W ! / / / ( P P P K 7X1XR ! I P P P L 4X3XL Z A Z S I I T I W E W W ! ! W E I T T E ! W ! / ~ ~ ~ ",
"` $.` ] W E E E ! W W W P P S L T T W I L P S L P P P K 7XOXP P ).).{. X(.5X5X` W W W W ` ` ` ] / W Q Q W E W I S P S I W E W |.).).).",
"` ` ^ ` Q W W W W W W W T L T P T T T R T A S S S T L m.7XoXI R [.{.|.{.{ 6X6X(.U I W ! { { ! { Q ! ! ( W W W P S S S I U U U [.).).|.",
"/ ` ` ` ! E W W W W W W L T T m T T T R S F S S S S B 5X7Xh.T I (.`.`.{.{ 6X6Xx.Y U W ! ] ] { ( ! ! ! ! E W W P S S S E U E E [.).).{.",
"( ` ` ` Q R W W W W W W T T P T I E.W.Q.1XA.M.V.A.N.W.8X;XoXm.E.B |.K m.Z.3X3X;XN.V.m.C.Q.%.v.W.E.Q W ! U P U E S S S W U W U |.{. X|.",
"! ( ( ~ W I I I W W R W A A m P ! ^.8XV.I.2XB.B.I.B.C.c.h.h.;X;XV.E I.;XB.g.b.M.B.B.M.2X2Xz.2X4XW.S F S { { { ~ S Z S W ( ( ~ W W W W ",
"W ~ ~ ~ W R R R R W W W L A A A U G V.c.x.z.H c H c z.c.f l c H k R G H G c.z.c G G c z.x.x.c.N.G S S A { { { ! A S S W ( ( ( Y ! W W ",
"W / ~ ~ W R I R R R W W L L A L ! ^ ^ ^ P P P T Q ! W ! ] ] (.] T T P T L L S A W U W W ~ ~ ^ ( S S S P { _ ` Q P A S W ~ ( ( U W W ! "
};
