/* XPM */
static char *xpm_[] = {
/* columns rows colors chars-per-pixel */
"70 70 247 2 ",
"   c #0D0D0E",
".  c #010B17",
"X  c #03151C",
"o  c #09171B",
"O  c #3F1615",
"+  c #032A0C",
"@  c #073317",
"#  c #35291E",
"$  c #031B24",
"%  c #061924",
"&  c #021D2C",
"*  c #151D24",
"=  c #041D34",
"-  c #0A1D33",
";  c #021E3A",
":  c #02232B",
">  c #09272B",
",  c #182528",
"<  c #053C22",
"1  c #16362C",
"2  c #022334",
"3  c #012933",
"4  c #0C2936",
"5  c #01243C",
"6  c #032C3B",
"7  c #1B2A33",
"8  c #152B39",
"9  c #07333C",
"0  c #24282A",
"q  c #392924",
"w  c #25372F",
"e  c #33332E",
"r  c #262D32",
"t  c #253438",
"y  c #500F0D",
"u  c #701212",
"i  c #502D1A",
"p  c #722D10",
"a  c #5A1C2D",
"s  c #74182D",
"d  c #492526",
"f  c #542829",
"g  c #4C322F",
"h  c #553721",
"j  c #642526",
"k  c #72282B",
"l  c #742835",
"z  c #773339",
"x  c #364B1F",
"c  c #074829",
"v  c #1B432E",
"b  c #0A4F31",
"n  c #0B5937",
"m  c #145639",
"M  c #354622",
"N  c #364A23",
"B  c #3B4D25",
"V  c #3B4E29",
"C  c #3E5226",
"Z  c #3E5229",
"A  c #3F582B",
"S  c #21443D",
"D  c #096139",
"F  c #765415",
"G  c #405527",
"H  c #435927",
"J  c #42552B",
"K  c #455A2C",
"L  c #495D2E",
"P  c #524333",
"I  c #435631",
"U  c #465B31",
"Y  c #4A5E31",
"T  c #724C2B",
"R  c #4B612E",
"E  c #51672F",
"W  c #4D6333",
"Q  c #4B6535",
"!  c #4E6934",
"~  c #4E6438",
"^  c #516635",
"/  c #536A35",
"(  c #526936",
")  c #586D37",
"_  c #516639",
"`  c #546B39",
"'  c #586E3B",
"]  c #577136",
"[  c #597137",
"{  c #577139",
"}  c #5B733B",
"|  c #5D793A",
" . c #627A3C",
".. c #021F41",
"X. c #022443",
"o. c #032C43",
"O. c #0B2941",
"+. c #012448",
"@. c #01294C",
"#. c #162E49",
"$. c #033344",
"%. c #093A47",
"&. c #04334B",
"*. c #033B4C",
"=. c #1B3544",
"-. c #022C53",
";. c #032E5C",
":. c #073656",
">. c #163A56",
",. c #31364C",
"<. c #0B3A66",
"1. c #0C3967",
"2. c #702E42",
"3. c #773659",
"4. c #7D3E62",
"5. c #0F514F",
"6. c #145A49",
"7. c #0A4457",
"8. c #19475C",
"9. c #274A53",
"0. c #0E6B4A",
"q. c #146645",
"w. c #146A4B",
"e. c #13714D",
"r. c #157352",
"t. c #0E4666",
"y. c #174668",
"u. c #134B6D",
"i. c #0F556A",
"p. c #13546B",
"a. c #144D72",
"s. c #174A75",
"d. c #155473",
"f. c #185679",
"g. c #19617C",
"h. c #464050",
"j. c #556642",
"k. c #5A6C45",
"l. c #5A6C47",
"z. c #5D7442",
"x. c #5D7048",
"c. c #607742",
"v. c #617941",
"b. c #62764B",
"n. c #667A4D",
"m. c #677A51",
"M. c #930914",
"N. c #A80516",
"B. c #B6071B",
"V. c #BC111F",
"C. c #8E3412",
"Z. c #AA3410",
"A. c #85172A",
"S. c #98192E",
"D. c #A70C20",
"F. c #B60F22",
"G. c #BD0C22",
"H. c #AB172C",
"J. c #B71629",
"K. c #BB1C31",
"L. c #8C282F",
"P. c #842935",
"I. c #982A38",
"U. c #B2292D",
"Y. c #A82939",
"T. c #B82739",
"R. c #C73816",
"E. c #D3361D",
"W. c #C10D26",
"Q. c #C1132A",
"!. c #C31F3B",
"~. c #C5253D",
"^. c #904E10",
"/. c #9A591D",
"(. c #B14A0E",
"). c #A75D08",
"_. c #B9550B",
"`. c #A9690D",
"'. c #BF6405",
"]. c #B67907",
"[. c #B47314",
"{. c #8A522C",
"}. c #995B25",
"|. c #9B692A",
" X c #A8662A",
".X c #A66638",
"XX c #B07231",
"oX c #D05614",
"OX c #C46B06",
"+X c #C87905",
"@X c #D46C14",
"#X c #D17213",
"$X c #DD4C27",
"%X c #CA7430",
"&X c #D57D3C",
"*X c #E67423",
"=X c #852E49",
"-X c #972B43",
";X c #953346",
":X c #A92D43",
">X c #B92D41",
",X c #AE384D",
"<X c #BA3446",
"1X c #963E65",
"2X c #C33146",
"3X c #C3334B",
"4X c #C5354D",
"5X c #8C544A",
"6X c #AF4255",
"7X c #B5754A",
"8X c #9B5963",
"9X c #856779",
"0X c #6D8250",
"qX c #BA8626",
"wX c #AF8732",
"eX c #C68203",
"rX c #D58906",
"tX c #DD920E",
"yX c #DA8412",
"uX c #E2980C",
"iX c #E38910",
"pX c #E89918",
"aX c #EBA41C",
"sX c #CB8F34",
"dX c #E99226",
"fX c #D2A538",
"gX c #EFA822",
"hX c #CF8E47",
"jX c #D6AC4E",
"kX c #E2A349",
"lX c #165680",
"zX c #8E7C86",
"xX c #AF7B8B",
"cX c #96838F",
"vX c #A68694",
"bX c #A79AA2",
"nX c #B2A9AE",
"mX c #B6B7B7",
"MX c #C6AFB9",
"NX c #BCC0BF",
"BX c #C7C9C9",
"VX c #D0D0D2",
"CX c #D7D9DA",
"ZX c #E4E5EA",
"AX c #E9EEF0",
"SX c #ECF2F8",
"DX c #F6FBFE",
/* pixels */
"V I K K ( ( ( [ ! ] H I K U W Y N M G G J G Y ^ ^ _ ` ` K U W } | z.R Y U U W U K K U A U R A A A A A A ~ ` ` ! ( R H I A K K J Y _ ^ I J G ",
"C K K K _ ( ( ( ` ` H J A L Y Y G M e H G G Y ^ Y _ ( _ W R R } }  .! K K U R K K K K R U U C x x R K H ! ) ) ) ) } K J A U Y Y G N N J G G ",
"U K K R Y Q Y ^ ! ~ R K K Y U U B M B J P C Q ^ ^ _ _ ` K K R z.v.z.W K R K U U A U K K K R C C N 2.K K ! ( / / ) ) H H J U L L J e M G G J ",
"Q R I U J Z Z J A Z ` } ` J J J B G G I Z G ^ _ ^ ^ ^ ^ K K L Z Z J L W W ( ~ ! R K K K K A K 6XQ 6XR ;X<XR R W R K Q H H L L L V V V J J J ",
"! K K U Z Z V J J K ` } } C G J G G G I J H ` ` ( ` ^ ^ L Z A Z Z N Y K K ( _ _ K Z J A A W l ,Xk ,XP.6X2XZ Z A J G ` } ` J I U N B G J P J ",
"W W R K J J J I J J { ] ( G J J G G V J K K ^ ^ E E W ! J I I N C C L L K ( ` ` L J L 6XK K Y.3X3XU.T.T.T.Z 2.Y.J J ) ' } J J J P G B J H J ",
"K _ ! ^ Y Y I I Z J / / ^ Z V Z ^ Y ^ Y Y R _ ` ) L R L J J A W U K K K K _ _ _ Z Z g <XZ K :XK.K.H.J.U.U.J P.T.G Z 5Xk.' G J J J G G G H K ",
"A _ ( ~ Y U I J Z K ( ( ^ Z A Z ^ ` _ Y Y Y _ ) ( L K K J A H ( ( ! J H J Q Y Y C Z =X<XV V T.F.F.F.V.J.J.L.<XT.P.Z T.g ` B J J W _ _ ^ Y R ",
"K ` ( ~ Y U J Z Z U ` ` ~ Z Z J E ^ ^ Y Y _ ^ ) ( J W K I A J _ ( ` J C J R W Y B N :X2XB P.~.V.G.V.W.B.F.~.T.T.T.6X<X;X! A C G _ ) E Y Y Y ",
"K K H A J J I U U I K R A V C A ) ^ ^ K L K R R R { } ( J A J ~ Q Y L R Y ! Y ^ G G 4X3X~.~.W.W.W.W.W.W.G.K.T.T.T.2XT.-X! C Z J ^ E E Y Y Y ",
"K R H K Z Z K K K K K K J N C C _ _ ^ K K J J J H  . .| J K J Z C H ( ( ( E W W W W 4X4X~.Q.B.B.B.W.G.G.V.G.K.T.T.2X2X-XK C V N ^ ^ ^ Y L L ",
"K H H K I Z J J K K K K J x x C ) ) _ K K J J J W  . .} H Z J G A H ^ ~ ^ R ~ ~ ^ ^ >X~.W.B.B.B.B.B.F.G.G.Q.Q.K.2X3X2Xk K N B B ^ ( ( L L L ",
"Q ` ( W K K U W R R ! ^ K C C J Y Y U K K J J Z U } [ ^ H L K J A K ( ^ ^ R W W W W H.F.B.B.B.B.D.H.H.H.D.V.G.Q.~.~.T.K K N N B _ ^ _ K K K ",
"! ) ( W U K W ~ ^ ^ ^ ^ R C J C B G J J J V V N C J K K ` ^ ^ K L L W ~ R G H K ^ ^ N.B.B.B.N.N.-XP.=X=XS.N.B.J.K.Y.f W Q C B C U K Y L J K ",
"^ ' ] R K K W ! R E ~ ^ L G G G B B G U I G N N V K K R _ ^ ^ L K U Q U R J H H ^ ^ u N.N.N.M.1XvXCXCXCXMXY.N.N.j E ^ ^ ^ G J G G J G G J K ",
"L E E R Y L K L W ^ W ! L J J J J B J J J Z V N Z I K U _ _ ^ J K U Q Q Y G C H ( ^ d M.N.N.I.MXAXSXSXSXZXMXS.a E L ^ ^ ^ J H J B B N K J J ",
"L L J ^ W W J G Z U W W K K K J H J ^ ^ ^ H G B J J I J M N B J J J K U Y Q ^ Y C Z Z d M.S.xXCXSXDXDXDXZXVX8Xf L Y ^ ~ W J J G G G G K K K ",
"L H J W W W J G Z Y K K K K J K H G Y ( ^ K G B G I J V N M I J J I J A Y ` ` Y V N V V d A.MXCXAXDXDXSXZXVX8XW.J G Y Y Y K K K K G G ^ ^ ` ",
"J J K I I U J G G K Y Y K K K K J G Y Y ^ K B B Z J J G M e B J J I J K U _ _ U N N N V x s nXVXCXZXZXZXCX  2.K.oX{.K Y L G K H J G J ^ ^ ^ ",
"G G G J J G _ _ ` L L J R K K K J K K G G Q } ' Y P J J G J J Y Y J Z Z K _ ) L A K G G G L.vXNXVXCXCXVXBXmX8XK.@X+Xh Y L L J L J G J _ ^ ^ ",
"Z G Z B G N ^ ^ ` L J L K L L L I J G M B ^ ' } ^ K I J I K Y W ! J B V K ` _ E K K U U U k =XbXmXMXBXNXnXzXs D.`.F K K L L L K K J K J B V ",
"Z V Z C N G ^ _ _ L L K L L L K K J V G B ` } ' L G K H H J Y W Y J B B H ) ) ( R W Y J J i z 3.9XcXzXzX4.2.s s ^ ^ K K L L L K K K G G M G ",
"U U L R R ^ L L L G J J U L Y Y Y W G N x ^ ` ` Y L K K K K U Y L L J J H _ ` R W Q W J Z i y y 2.=X4.2.h.y u a ) _ J K K L Y K K J J B G J ",
"L R R ^ ^ _ J K J B G G Y Y Y Q _ _ J N x W ^ ^ R Y Y K Y Y J G G L ^ _ K C C W } z._ Z A i ^.u y y y y y y M.a K K J G G Y L W W Y Y G B e ",
"U W R ( ( ^ K K R C Z C W L ^ ^ _ _ V V B Y ^ E W K L L Y Y J G J R ^ ^ H G G W | } ^ J G K ^.).'.'.OX_.^.d S.K K J N G G Y Y Y ^ ~ ~ B B B ",
"J J J ! W W J J J H J J R L W W Y U V B B ^ R W Y K R W Y Y I J J Y R E L G J _ | } Y G J K i ).OXOX+X_.(.d :XK U I G G G I Y Y _ ^ ~ N B N ",
"Z J J Y W K J J Z W W W R L U Z J I J J I J I I I K J }  . .! U L R ^ ^ E ^ W W K R ! ) ` E L ].].+XdX+X).i :XZ I K K K K Y W Y Y Y I G V B ",
"Z Z C R W U G G K R Q R R R U A V V G J J K I J I K K }  . .R R L E E E E ^ ^ Y K L ! ` ) ^ E ].+XrXtX+X].d u A I G ^ Y _ Y W Y Z G P J G J ",
"W K R R ! W L K K ~ R Q L U R A G J Z J I J P J K K H z.z.v.~ K R R R R _ ^ ) ^ R Y ( ` ) ^ R [.eXrXuXuXeXq O A G L ^ Y Y L R K J J J J J J ",
"z.} } } } ( W L ! ! ! Q N V N { ` _ J I J V G G R W ~ U R ! H A H ] } } H L J J J G K Y L ^ Y [.+XiXpXuXuX[.! R K J ^ R ^ J Y J J J J J J J ",
"{ { { ] ] ` R R ! ^ ( L N V N ` ` ( A e I G G J W W W U K K J J H ] | } G B N C Z Z G C G K R OX#X*XpXaXuXeXh ^ Q ^ _ _ ^ x G J ' ' ` I I J ",
"z.{ { { { ` Q Q W ! R R C N C ( ` ( >.y.y.s.y.r 8 t Q U Y K J J C |  . .G B x Z G G Z C Z K R OX@X@XpXgXaX).qXR L ^ ^ ` ^ x e G ` ) ^ I J J ",
"H H R ) ) R K J J K W L W ^ L =.>.>.<.s.s.s.s.s.y.y.8.=.K J J G C ! Q ! Z N C C G G J J G J i oXoXoXaXgXtXaXtXpXwXR ! ! ~ N V Z ' ` / U K J ",
"K L R ( ^ R G J H K K Y ^ ^ 8 1.1.1.;.-.-.@.@.&.:.-.:.>.=.A H G C V V V K K U K J J Y ^ ^ _ Z.E.R.$X*XpX#XpXuXqXH H A R U ( ! W G G J U U K ",
"H K R ` ) L K I K H K L ( ^ 1.1.;.-.-.-.-.@.@.@.+.O.6 X.&.=.J J C Z Z V L K K K J H Y ( ^ j S.p E.E.*X*XdXyXyXyX/.H K K R ^ ~ Q G G J L Y Y ",
"J K ^ ` ( L K J K K K K K >.;.-.@.+.+.+.+.+.X.5 X.5 5 5 5 6 7 I J J C B K K L J H K R R E , 8 ,.T.E.$X*X@X@X@XOXK Z K R R ! ! R G G J L Y Y ",
"K K ~ ( ` Y K Y R L L G r :.-.@.+.= ; ; 2 8 = 5 2 2 = 5 5 2 7 e ( ) ) ` Z G V L ~ L L R 4 9 9 8.h.z oXoX(.oX_._._.T K L H K R K H L H L Y L ",
"K K ( ` ) Y K J K L L H =.-.-.X.& ^ L J H J J J Y Y 7 $ & > > e ( ] ] [ C B B L Y W W 4 6 9 =.8.8.9.V.C.L.}.(.(.(.p L L K C C K ` ^ / L J K ",
"K K ~ W Y U I I U L L J #.-.X.= ` Q K K K J J J Y Y Y 0 % : : r ( ] ) ) x G B L W W 7 4 $.%.8.8.y.9.U.g P h p C.Z.p L L H C C R ) ) ] P L H ",
"L K Z Z B G C B J J G L O.@.= ) ` ^ Y Y K J J G G G G U , % $ r W ( ` ^ L L J L Y r 4 o.8.t.8.y.9.k i 7.5.7 e h Z.).J L H C C K ( ) E L L L ",
"W U C Z Z V V Z Z J Z U X.5 ( ' ' ^ W Y L J 7 y.<.>.8.7 U * $ o R ] ! ` R R W L 8 o.>.t.t.1.y.u.y.,.6 7.5.7.> 0 p (.C C A R K Q ) ` ^ R R L ",
"R U K Z Z V Z V V A Z U X.r ^ ] ` ^ Y Q K J <.-.o.X.2 & 4 % o > =.t / ! ~ t %.<.t.a.s.t.u.t.a.u.s.7.$.9 9 9 > : q p Z.A A R R R ' _ ` L Y L ",
"( ( ` ( ( W W Q J K K 7 4 K K K K K Z G J 1.-.@.X.; = o X > %.%.p.8.=.7.8.t.u.d.s.f.f.f.a.a.a.d.a.:.o.6 : 3 3 > , d p C.K L K ! ) ^ ) R Y R ",
"` ) ( ) ` ! ~ ~ J Z A % 7 K J J J Z N N ;.1.-.+.; $ r 1 n 6.5.p.p.p.d.d.d.f.f.f.f.f.f.f.a.a.f.u.:.o.2 3 3 3 3 : $ K A q K Y R K K K J J K J ",
"E ^ ( ^ ( E E ! J H I o , K Z K J V J O.1.;.@..., Y v q.0.< @ 9 5.p.g.g.g.f.f.f.u.t.f.d.f.a.a.:.-.5 3 3 3 : & : E L J J L Y Y L G G G N G G ",
"K R ( ~ ~ L K K Z J A % , W R K U J B >.1.-.+.- L L n r.c D b @ > 9 7.t.p.p.d.d.d.a.t.t.i.u.t.:.o.2 3 3 3 : $ : ^ L G J J Y Y L G G J G M G ",
"G H W W W G G J V Z C X , W ( ) ` L J ;.;.@...J G m r.q.D r.c + m o . : $.*.7.u.d.d.d.u.:.:.&.@.& & : : : $ X 0 U J J G U Y Y Y K K J G J J ",
"C C R W L G J J Z Z B * , W ) ( ` Y 7 -.@...- I v D r.b w.6.@ c w.v * . X 3 6 $.&.$.o.o.o.5 : . X : : : $ o J J J J J J K Y Y ! ) ' ^ Y K J ",
"C A R ! R G G I J J V 0 * Y ) [ ` L 7 +.+.; U J b e.e.< 0.n + c w.v J 0 . . = 6 $.9 9 *.9 X . . $ $ $ X o R J C J Z I B J Y ~ ^ ) E ` L L L ",
"J R [ [ ` R Y K J J J G , J } } | C 8 5 ; 8 U w n r.m 1 e.c + c e.w G J 0 . 5 o.$.$.7.7.7.X . o $ X X W ^ W H C Z J J V K W Y ^ / ( ( L L K ",
"G R ] ) ) L L L J J J G 0 H } } z.Z > 2 = Y U b 0.q.w 1 w.c + q.D w G J ~ o 2 o.&.7.7.7.9 o o   o G J ` ) } R R W A Z J G G J _  .' ) G G G ",
"H K ] ) ^ R R L G G J P , K z.} z.Z $ & U Y c 6.6.w #.5.0.< c 6.w B J J Y 0 & 6 $.*.*.7.9 | | | G J G ) ) } R R R K J J J H J ^ } ' ) B G G ",
"H R / E / E ^ R K Z J U L J K L L * X X Q Q i.1 e 8 &.6.6.9.1 + J Z C K Q W X 5 :.*.*.*.9 } | } G H G ` ` } R R Y H J J G J H ^ '  .E B G G ",
"K ! ( ( / ) ` ! Z K H K L Y N N , % J Z Q t , * * 4 S r R `  ., ( R K R W K o : $.$.*.9 7 A C A L J H ` ` ` E E ) H J H J K L L ^ R H J G H ",
"K ~ ) ! / ] ) ^ Z A K U Y L N N % o Z J ~ ! W ( ` ( Y W K ` | | ! R W H K K J $ 9 $.9 6 K V V V L J L ^ ( E ] ] ) H J J J Y L J x M M J G J ",
"K K R ! E / E R K L W K K J N , X Z J Z W ~ ! ~ ! _ U L K } v.z.W U R U K K U $ 6 $.9 > I V N C J L L ^ ( ^ ) / ) H J J U Y U J G e G J J J ",
"U J G G A J J R } ] ~ C J C , 0 C J K K ( _ ^ ( ( ! K K K C H J J K R W ~ ! ~ * > 4 8 K I U R L K K J W R ! ~ W ^ L J K K Y L G e G M J G J ",
"L G B J J J J R } { W K A Z C C Z K K K ^ ! ( ( ( ~ J I A C C N K R K ~ ^ ( Y # f 5XP L I ! ! Q W U L Z Z Z J C J ^ ` } K C J J G J J I J K ",
"L J G G C J C ~ { ] R Z Z Z C C C K K K ^ ^ ( ~ _ ( K A A V V V U R U ! _ ^ L q C.&XT A U ~ ! ! K K U Z G G P Z J ` { } J J J J G M J K J L ",
"( L U U J G Z ( ( ` K A Z K Q Q R U K L ( ) ( W W W J K J A J U K K U ~ ^ ^ K q p hX{.A K ! ~ Q K W U J J J J J P ) ] { J I G G G G G K K Y ",
"_ K U Y J V Z ~ ! ) K Z Z U ( ! ! L L W ( ( ) K U K Z K J _ ( ^ J Z J L W R G q u sX{.B C Z C H ~ ^ ! K I J J J C ) ) ) J I B L Y Y Y Y K ~ ",
") K Y U J Z Z ! ( ( K Z Z K _ ( ! R L W ( ) ( K U K A A J _ ` ` H Z J L W Y J q p sX}.x C J C H ^ ^ / K K L J J B ^ ~ ( J J G Y ^ _ _ Y W ~ ",
"Y J I P L J J ~ ~ ! L J V Y ` ( R L K R ` ` ( R R R Z J J ` ` ` J H C W ! R K q F fXXXN N Z A K E ( ( K K K G G C ( ^ ) J G G Y ( ! Q Y L ~ ",
"U J G J K K K K K K B N B Y ` ( ! K K H H K R | } } H J J H J C ( ( ~ R W R R P |.fXhX( ! J Z L R R W J K J G J J W _ W J G J Y ! ( Q R K W ",
"K J G J P L K K K L B N B Y ` ` R K K K C J R  . .} G J I J G G ` _ ` R W ^ ! {.jXjXfX| E H L L H J I I J J J L K K K I B G B W ( ( Q K U A ",
"K J G J L H K L L L B B B Y ` ( L K K K C Z W z. .} G G J J G G _ ^ ` ^ W R ! 5XwXjXfXE ^ K K K K L I P G J J Y K K Y U G M N L ` ` R U U A ",
") Y K Y W ^ ^ ^ _ _ J J J C J J Z K K J B Z J ~ R ! ! R L H J J ^ ^ ( R L R ^ T qXfXfXsX7X}.{.{..XXX.X7X7X7XL J K K K K M G G P ^ ( R I I K ",
"` K K W ~ E R ^ ( ( J A J V B B Z K J Z N N Z J J K ! ^ E K L L ! W W Z G G ~ %XqXsXqX&X XhX7XhX&X%XsXkXXXXX7X^ _ ^ ^ ^ J I J G H H Z L K Z ",
"` K K L ~ W ! ^ ( ! H C Z Z Z C K K A Z N V V U J K _ ` ^ L K K W Q U K Z A ! }.wX|./.|./.qX}.|.}.}. X%X X X~ W ^ ^ ^ ^ G J I G C B J J J V ",
"b.b.b.k.k.x.b.b.b.b.z.k.k.j.j.j.l.k.x.k.j.` j.l.k.b.m.m.b.k.k.k.m.x.x.l.l.l.m.n.0X] j.~ j.k.z.x.m.m.m.x.x.b.b.b.n.n.n.n.k.j.k.k.j.j.k.k.k.k."
};
