/* XPM */
static char *xpm_[] = {
/* columns rows colors chars-per-pixel */
"67 70 240 2 ",
"   c #0D0D0E",
".  c #010B17",
"X  c #03151C",
"o  c #09171B",
"O  c #3D1A1A",
"+  c #032A0C",
"@  c #073317",
"#  c #35291E",
"$  c #031B24",
"%  c #061924",
"&  c #021D2C",
"*  c #151D24",
"=  c #041D34",
"-  c #0A1D33",
";  c #021E3A",
":  c #02232B",
">  c #09272B",
",  c #182528",
"<  c #053C22",
"1  c #16362C",
"2  c #022334",
"3  c #012933",
"4  c #0C2936",
"5  c #01243C",
"6  c #032C3B",
"7  c #1B2A33",
"8  c #152B39",
"9  c #07333C",
"0  c #24282A",
"q  c #392924",
"w  c #25372F",
"e  c #33332E",
"r  c #262D32",
"t  c #253438",
"y  c #550904",
"u  c #4E1111",
"i  c #6F1113",
"p  c #502D1A",
"a  c #722D10",
"s  c #5A1C2D",
"d  c #74182D",
"f  c #492526",
"g  c #542829",
"h  c #4C322F",
"j  c #553721",
"k  c #642526",
"l  c #6F272E",
"z  c #742835",
"x  c #773339",
"c  c #074829",
"v  c #1B432E",
"b  c #0A4F31",
"n  c #0B5937",
"m  c #145639",
"M  c #21443D",
"N  c #096139",
"B  c #765415",
"V  c #425526",
"C  c #445B26",
"Z  c #435729",
"A  c #465C2B",
"S  c #495F2D",
"D  c #524333",
"F  c #495D31",
"G  c #724C2B",
"H  c #47612A",
"J  c #4B632D",
"K  c #4E692E",
"L  c #50672F",
"P  c #516A2F",
"I  c #55702F",
"U  c #4D6631",
"Y  c #4F6831",
"T  c #506731",
"R  c #526C33",
"E  c #566F38",
"W  c #586F38",
"Q  c #567135",
"!  c #597436",
"~  c #5C7937",
"^  c #577138",
"/  c #5A7539",
"(  c #5E7B3A",
")  c #617E3C",
"_  c #021F41",
"`  c #022443",
"'  c #032C43",
"]  c #0B2941",
"[  c #012448",
"{  c #01294C",
"}  c #162E49",
"|  c #033344",
" . c #093A47",
".. c #04334B",
"X. c #033B4C",
"o. c #1B3544",
"O. c #022C53",
"+. c #032E5C",
"@. c #063757",
"#. c #093254",
"$. c #163A56",
"%. c #31364C",
"&. c #0B3A66",
"*. c #0C3967",
"=. c #702E42",
"-. c #773659",
";. c #7D3E62",
":. c #0F514F",
">. c #145A49",
",. c #0A4457",
"<. c #19475C",
"1. c #274A53",
"2. c #0E6B4A",
"3. c #146645",
"4. c #146A4B",
"5. c #13714D",
"6. c #157352",
"7. c #0D4463",
"8. c #0F4869",
"9. c #174668",
"0. c #134B6D",
"q. c #0F556A",
"w. c #13546B",
"e. c #144D72",
"r. c #174A75",
"t. c #155473",
"y. c #185679",
"u. c #19617C",
"i. c #464050",
"p. c #5F7940",
"a. c #637E40",
"s. c #930914",
"d. c #A80516",
"f. c #B6071B",
"g. c #BC111F",
"h. c #8E3412",
"j. c #AA3410",
"k. c #85172A",
"l. c #98192E",
"z. c #B60F22",
"x. c #BD0C22",
"c. c #AB172C",
"v. c #B71629",
"b. c #B71F30",
"n. c #BC1B31",
"m. c #8C282F",
"M. c #842935",
"N. c #982A38",
"B. c #B2292D",
"V. c #A6273A",
"C. c #B82739",
"Z. c #C73816",
"A. c #D3361D",
"S. c #C10D26",
"D. c #C1132A",
"F. c #C31F3B",
"G. c #C5253D",
"H. c #904E10",
"J. c #9A591D",
"K. c #B14A0E",
"L. c #A75D08",
"P. c #B9550B",
"I. c #A9690D",
"U. c #B67907",
"Y. c #B47314",
"T. c #8A522C",
"R. c #995B25",
"E. c #9B692A",
"W. c #A8662A",
"Q. c #A66638",
"!. c #B07231",
"~. c #CB5511",
"^. c #D85819",
"/. c #C46B06",
"(. c #C87905",
"). c #D46C14",
"_. c #D17213",
"`. c #DD4C27",
"'. c #CA7430",
"]. c #D57D3C",
"[. c #E67423",
"{. c #852E49",
"}. c #962A42",
"|. c #953346",
" X c #A92D43",
".X c #B92D41",
"XX c #AE384D",
"oX c #BA3446",
"OX c #963E65",
"+X c #C33146",
"@X c #C3334B",
"#X c #C5354D",
"$X c #8C544A",
"%X c #AF4255",
"&X c #A3734F",
"*X c #B5754A",
"=X c #9B5963",
"-X c #63813D",
";X c #66853F",
":X c #68883E",
">X c #668341",
",X c #668541",
"<X c #688642",
"1X c #6B8A42",
"2X c #6F9143",
"3X c #BA8626",
"4X c #AF8732",
"5X c #C68203",
"6X c #D58906",
"7X c #DD920E",
"8X c #DA8412",
"9X c #E2980C",
"0X c #E38910",
"qX c #E89918",
"wX c #EBA41C",
"eX c #CB8F34",
"rX c #E99226",
"tX c #D2A538",
"yX c #EFA822",
"uX c #CF8E47",
"iX c #D6AC4E",
"pX c #E2A349",
"aX c #165680",
"sX c #8E7C86",
"dX c #AF7B8B",
"fX c #96838F",
"gX c #A68694",
"hX c #A79AA2",
"jX c #B2A9AE",
"kX c #B6B7B7",
"lX c #C6AFB9",
"zX c #BCC0BF",
"xX c #C7C9C9",
"cX c #D0D0D2",
"vX c #D7D9DA",
"bX c #DCE1E4",
"nX c #E4E5EA",
"mX c #E9EEF0",
"MX c #ECF2F8",
"NX c #F6FBFE",
/* pixels */
">X>X>X>XQ Y Y Y a.-X( ( R Y Q Y R R P R J J J L S S S S -X) -X~ I ! Q R Y Y Y Y Y P R Q ;X:X:XI H J J J W Q ^ T S J A K P R R -X,X;X;X",
",X,X,X;XQ R R Y ( ( -X( R Q R R R R R R J K J L S S S S ~ -X~ ~ I ! Q ^ Y R R P P Y K Q :X<X,XI J H J J Q W ^ R S S A K P R R >X;X;X;X",
";X;X;X;X^ Y Y R ( ( -X( R Y R Q R R R R L J J J S S S S ) ) ~ ) I Q Q R Y Y Y K Y P P ! :X1Xx I J U H J Q Q E E J J S K R R R >X;X;X:X",
"-X;X;X;X^ Y Y P ( a.p.( R Y E Y P R P P J L L L J S S L ) ) ) ~ Q Q Q Q Y Y P R P R P ! %X:X%XQ |.XXH Y ^ ^ R T S C J J U T R >X-X,X,X",
"Q K K Q K J J J R R E R J H J J ) ) ) -X,X>X>X<X) W W ) ) ) ) ! J S C P -X( -X( ( ) ) l %Xz oXM.XXoX! ! -X( ) / S A S P ^ ~ / R Q R R ",
"R Q Q R J J J J Q R Y Y H J H H -X) ) ) ;X;X<X;X! ! / ! ) ) ) ) J J J L -X-X-X-X%X) -XN.@XoXC.C.C.C.! =.V.-X( p.A S S R / / / I R Q R ",
"R P R R K J J J R R E Y F J J H -X) ) ) ;X;X;X<X! ) I / ) ) ) ) J S S P -X-X) h XX) )  XC.n.v.b.C.B.Q M.C.-X( $XS A S R / / ( R Q Y Y ",
"Q Q Q I K J J J Y R Y Y H J J H ) ) -X) -X-X-X-XI W W ! ) ) ) ) J S S J ) ) ) =.+X) ) C.v.z.f.f.v.v.N.C.V.M.! V.h P T R R R R W Q Q Q ",
"/ ~ ~ ! R R P R J J J J J J L J -X) -X) I ! W Q S S H H ~ ~ -X! C C S C T R R XX+XS M.F.f.S.f.S.g.v.G.C.V.oX#XC.|.) ) R S S A Q ~ ! ! ",
"/ ~ ! ! R K R Y J A C H L J J J -X) ) ) / W W Q H U U U ( ~ ~ ! C S S C R R R #X@X+XG.S.S.S.S.S.x.g.n.b.C.C.oXoX}.) ( Y S S J / ! ~ ~ ",
"/ / ~ ! R Y P R C J J H L J L J ) ) ) ) I I W W J U U H ( ( ~ ! S A Z S T R R #X@XG.D.x.x.f.x.x.x.x.x.C.C.C.oX+XN.) ) R S S S / ! / ~ ",
"/ ~ ! ~ R R R Y C J H H J J J J ) ) ) ) / W / W F S H H ( ( ( ! A A A C R R R .XF.x.f.f.f.x.f.x.f.x.D.x.F.+X@X@Xz ) ~ R S J J / ( ( ~ ",
"( ( ( ( ^ R R K ) ) ) -X:X:X:X;XJ J J L J J J J S S S A U U K K J S S J R R R b.z.f.f.f.f.d.c.c.z.f.z.x.D.G.+XC.Y R R R ^ ^ ^ ) ( ) ( ",
"-X( ( -XR R R R a.-X-X-X:X:X:X<XK J J J J J S F S S S S U Y U U J J J J R R E d.d.f.f.d.d.}.{.=.{.l.d.f.v.b.c.g R R R R E ^ R ( ( ( ( ",
"( ( ( ( R R R R ) -X) ) <X;X<X<XJ J J J S U F U F F S S Y Y U U H S J C R R R i d.d.d.s.OXgXvXbXvXlX|.d.d.i A J R K R W ^ ^ Q ) ( ( ( ",
"~ ~ ~ ~ R R T R ) ) ) ) <X>X<X) K U J K J S U H U H H U Y Y Y Y J J J J R R R f s.d.d.N.lXmXMXMXMXnXlXN.k C C J U R R R ^ R R ) a.( p.",
"U U H U A Z Z Z J J S H U U K U R Q Q R J J K J ~ Q ! ! R Q Q Y Q W R W C J J H q s.s.dXvXMXNXNXMXmXcX=Xf Q Q I Q R R R R R T U Y U U ",
"U U K U A Z Z C S J S J U U U U R R Q R J K J J ^ ^ ^ ! R Q I Q R I Q W J S S H ~ f k.lXvXmXNXNXNXnXcX=Xg.Q Q Q R ^ W R R R E U U U U ",
"U U U U A A A Z F S U S U J U U Q R Q R U L L J / ^ Q Q Q Q Q Q Q Q Q W J S H H ( ( k.jXvXvXnXnXnXvX  z F.^.T.! R Q Q R E R U U Y U U ",
"U H H K U Y U U E R Y R U U H U U K K K W / / Q ( ~ ~ ~ Y Y Y R / ) / / R P R Q Q Q M.gXzXcXcXvXcXcXjX=Xv.).(.h R R R R U U U H H H H ",
"H A A H / -X-X-X( ) ( ) J J F A Z Z Z Z ;X1X1X1X-X-X( -XU U U Y ) -X) -X) -X) -XJ S l {.hXkXkXxXlXkXsXd s.L.B ^ P K U K U U J A S A S ",
"H A H A ^ -X( -X( ) ( ) S F S S Z Z Z Z ;X1X1X1X-X-X-X( U U U Y ) ) ) -X-X-X-X( J J p x -.sXfXfXfX;.=.k.d p.( ^ U R U K K J K A A S A ",
"U F A A Q / -Xp.( ( ( ) J S S A Z Z Z Z 1X1X1X1X-X( ) -XU K U E ) ) -X-X-X( -X-XH J p y u z -.;.-.s u i f / ) Q R U Y K K K J A F S F ",
"H A H H Q -Xp.-X) ( ) ( J J J S A Z A Z 1X1X1X1X) >X( ! J A H U / ~ ~ ( ~ Q ! ~ K K f H.i y y y u y u k.g F J J J J J R ^ ^ ^ K H U U ",
"E U Y U R R T L W W Q Q K U T T S S S J S S H H R R E Y A A A H / Q Q Q R R P R W I W H.L./././.P.H.u l.l Z Z A S S S W ) ~ ) K T T Y ",
"E U Y Y T T R R W Q Q W K R R K J J S S F S S A E Y ^ Y S A A H Q I Q Q R R R R W W Q p L./././.P.L.f  X}.Z V Z F A S W ) ) ( L U T Y ",
"^ Y Y Y T R P P W W Q Q K P R K J J J S S S S A E R Y R S S H H / Q / Q Y R R R W W W R U.U.(.rX(.L.s V.N.V V Z A C S I ( ( ~ L U U U ",
"^ U U U T R R P Q Q Q Q P T K Y C J S J S A J U Y R R R S J H K P Q W R R R K R W W W R U.5X6X6X6XU.f i i V C A J H C ~ ( ( ( T T T U ",
"A A Z A S L J J ) ) ) ) ) ) ) ( ~ ! ! ! I R R E R R R R R Y Y Y K U U J K U U U S L S J Y.(.6X0X9X6X# u O ( ( ) <X:X;XR S S S Z A Z A ",
"A Z Z Z S J J S ) -X) ) ) ) ) ) ! ! ~ / I W R E R R R Y R R Q Y K J K K K J K U S L S J Y.6X0XqX9X9XI.J ( / / ( ;X;X:XW F S S A A Z Z ",
"A Z Z A S S J S ) ) ) ) ) ) ) ) e ~ / / R W R E Y Y R R R Y R Y J K U U K K U T L F S S Y.(.0XqXwXqX5XV / ( ~ ) <X1X;XR S S S A A Z A ",
"F F J F W ) ) ) / ) ~ ~ ~ ) ~ o.9.9.9.9.t 7 t U Y U Y Y Q R Q K H H J J R P R R L L L L /.).).rXwXwXL.3X~ ! Q Q ~ ) ~ R J F S S S S U ",
"U U R U -X2X2X2XI R R R o.$.&.9.r.r.r.e.9.9.9.9.o.J S J ! Q Q I F F F A ^ I Q Q Q ^ Q p ~.^.^.qXyXqX9X7XwX4XP P R K U U U J J T Y Y Y ",
"U R U R -X2X2X2XI Q P } *.*.+.+.+.O.O.O.O.#.#.#.$.o.J S I Q Q R S H U F Q Q Q ^ I Q Q j.A.Z.^.[.rX_.9XqX3XR P P U R T J J K J T Y Y Y ",
"U R K Y -X2X2X2XI R R 8.+.#.O.O.O.{ { ` { ' ' ` ` ] o.J / I W R H H H H W I Q R Q Q k l.k A.`.[.[.rX8X8X8XH.Q R Y U T K U U L T U Y K ",
"R R I Q ( ) ) a.P R } +.+.{ { [ [ [ [ [ 5 ` 5 5 5 6 5 r S J S T U U Y T U U K T K J 1 9 %.B.A.`.[.).).)._.Q ^ R R K P A V V Z / ( ( ! ",
"E ( ( ( R U U K L r #.O.{ _ = = ; = 4 = 2 = 2 2 5 5 2 7 e A S S P T T R J J U S K 4 9 } o.i.z ~.~.K.^.P.P.P.G R L R L A V V V p.( -X~ ",
"E ( ( ( R R Y U L o.O.O.` & U T R W W W / / ^ 7 & & 2 > r S S S P R R T J U U U 4 6 9  .9.9.1.g.l.T.J.j.j.K.a R P L L A V V V / ( ~ ( ",
"R ( a.( R U J K J } O.` - U T T R R R Q ! ! / / 0 % % > r S S S T R L T J J S 7 4 | ,.<.<.<.1.j.h D j B h.K.a R L P T F V V V p.-X-X-X",
"! ~ / / T U U U U ] { = T K U L R T T K Y Y R Y / , % $ r W I W K K L L L L r 4 ] ,.<.9.9.1.k p <.,.7 e p j.L.Y ~ / W E U F U T K I K ",
"( Q R Q K U U J J 5 ; L T R R T J S S 8 9.$.$.$.8 / o X % Q ! I K U K U U } 6 $.8.8.7.9.9.9.%.' ,.,. .1 * a K.K ^ / / R R K U R R R R ",
"~ Y Q R U H H U K ` 7 J T T T T J S Z &.#.[ ` 5 & 4 * X 3 t t P U U t $.$.7.e.r.7.0.&.e.0.e.,.| | 9 9 3 $ 0 h.K./ ~ / R K J J R R R Y ",
"-XI R R U U U U r 4 J L R R T T S S &.O.{ ` 5 - % X 3 9 ,.:.1.:.,.<.7.8.r.y.y.y.r.e.e.e.e.e.@.' 9 3 3 3 > , f k h./ / R J K U R Y Y R ",
"Q Q ! Q R R R U % 7 P P J J U U L +.&.O.[ ; & r 1 n 4.:.q.w.t.t.t.t.t.y.aXy.y.y.aXt.e.y.e.@.' 5 3 3 3 3 : o Y U q Z Z U U R U ^ / ! ! ",
"^ / ~ ~ / ^ ^ R o , Q R S S S U } *.+.{ _ * U v 3.5.< >  .,.q.t.u.u.u.y.t.w.7.t.t.y.e.e.+...5 3 3 3 : $ > K U J A Z V U T Y U / ~ ^ ^ ",
"Q / / / ! E Q ^ X , Q ^ J F S F @.+.O.[ - S S n 5.c m b < @ 9 ,.8.w.t.t.t.t.t.9.8.0.q.7.@.` 2 3 : 3 : $ > Y U U Z A Z U U Y U / ^ ^ ! ",
"Q ( / / Q W ^ ^ X , Q R J S A F +.+.{ _ J K m 6.2.N 4.< + m X . 3 | X.@.w.t.t.t.0.@.@...' & : : : : : X 7 K U U A A A U Y Y K ^ / / ^ ",
"K J S J K U K U * , P T K J L 7 { O.[ - Y w N 6.b 5.>.@ c 2.v * . X 2 6 ' ..| ' ' ' 3 2 . $ : : : $ X H -X>X>X-Xp.( ( ( ( ( ~ K Y Y U ",
"S S A A J J J J r , U U K U J 7 [ [ ; R R b 5.5.< 5.n + c 5.v ! * . . - 6 | ' X.X.9 X . . X $ & X o H H ,X,X1X;X-X-X-X) ) ) ( K K U K ",
"J A F S S S S J L * K U K K U 8 5 5 8 T w n 6.>.1 N c + c 5.v ~ ) 0 . 5 { | ..X.,.,.X . X $ X X H J S K 1X,X,X;X-X) ) ) ( ) -XJ K U J ",
"J S S A J J J J T 0 J U K K J - 2 = Q P n 2.3.w v 5.c + 3.n w ~ ) ) o = ' X.X.,.,.9 o   o   A C S H A H ,X,X;X;X) -X) a.a.) ) K U U U ",
"U U U U W ^ ^ Q R 0 R R R Q Q $ & C H c >.>.w } :.N c c 3.w S J T T 0 & 6 | ,.X.,.9 R Y Y R Y J ( ( ~ ( C Z A J ^ / Q U Z Z A ( / ( ~ ",
"K U U K R Q Q Q R R R R W ^ * X X A 6 q.1 e 4 ..>.m >.1 + S J J T T T . 6 X.X.X.9 9 Y R Y Y Y U ( ( ( p.A A Z J ^ ^ R U A A Z p.( ( ( ",
"K U K U R Q Q Q R R R R R 0 $ $ U S t 7 - * 4 M r Z S S * S S S T T U * : | | X.9 1 Y R Y Y U Y ( ( ( ( A H A U Q ^ R J Z Z Z p./ ( ( ",
"J U Y U R Q Q Q R R R R Q o X , K A A A R ^ R R S S S H J S S L U R T R $ | | | 9 Y Y R Y Y Y Y ( ( ( >XH H S U W W ^ J Z Z Z ( ) ( ( ",
"^ ) ) >XR J J J ( ) ) -X, o ) -X^ Y Y U ( -X) -X<X1X1X:XS C C V S S H A X 6 | 9 4 ( -X! F A F A U U H U Y Y Y U U K U J H S F H S S F ",
"! ) -X-XR J J H ) ) ) , 0 ) -X-X^ K K J ( ) ( -X2X1X1X:XS Z C Z S S S H * 2 4 8 ( -X-X^ H A F H J U K J R L R U U K K S A S A S S S S ",
"Q -X) -XR J S J ) ) -X) -X-X-X-X^ K U J ( -X-X-X1X1X:X:XS Z C Z S F S H # p Q.D -X-X( ^ A A A H U K J K K P L K U U U S S A A S S A S ",
"/ -X) ) R J J K ( ~ / ! ) ) ) ) Q L T K ) -X( -X-X-X) -XS S S C F S J J q m.].G ~ / ^ Q F H H A U U U K P R R R K K J U J J J J J J S ",
"U H H H R ! ~ ( J S J J R ^ W I Q R R Q Q ! ! Q L L L L R R P R K K J U q a ].G C Z A H U U U U R T R P R R Q R R R R R ^ W R K U U U ",
"H Z Z Z P ( ( ( H S S J R I W I Q ^ R R Q ! Q / J J L J R ^ R Q K J K K q a ].T.Z A Z A J K K U R U R U Q R Q R R T R R Q Q R T K K J ",
"J A Z Z Q ( ( ( H J S S I W R W R R I W I ! Q I J J J J R R Q R K K J P q a eXT.Z Z Z H U U U T T R Y R Q R R W P R R R Q W ^ U U U U ",
"H A A A Q ~ ( ( H J F J R R ^ W R E R R ~ Q ) W J J J L R R R I K H K H # B tXE.C Z Z S K K U U R R R R R R R R K U K R R R R Q ^ ! ! ",
"/ p.( / Q R R P R R R R J J J J U T R T J S S S J J S J J K K J -X:X:X:XD !.tXeXR R R R ( ( ( ) R ^ R E R R T K S S J L R R R <X;X;X;X",
"~ ( ( / Q Y Q Y R R R R U H H H U U U U H S S S J J J J J J J L >X<X;X<XT.iXtXtXI R R Q / ) ) ( W W W W L L L L S S S L L P P <X;X;X<X",
"/ ( ( ( Q Y R R R R R R U H J F U U U U S S S S J S S J U J U J -X<X;X<X&X*XiXtXB R R Q ) a.) W R W W W L L R L S S S L P P P >X;X;X;X",
"( ( ( -X! Y R Y R R R R H J H J J K U Y Z S S A J J J J L J J J >X>X<X;XW 4XtXtXeX!.E.$XT.Q.'.Q.*X&X*XW P P P L S S F T P L L a.<X>X<X",
"R / ^ ^ Q Y Y K R R Y R H H F A R ( ( ( U S U U E R E ^ ) ) ) ) L J L J '.eX3X3X'.!.uXQ.uX].'.eXpX*X!.*X) ) ) / S A A R / ) / R W R R ",
"R ! ! ! K Y Y Y Y R R R H A A A I ~ ~ ( J H H U W ! I ! ) ) ) ) J J J J E.E.E.J.E.J.!.W.W.R.R.W.!.W.W.J ) ) ) W A S S R W ) ) I R R R ",
"Y ! ! ^ R K Y U R Y R R H A A H I -X~ ~ U J U H I W W I ) ) ) ) K K J P H H K S Y Q Y Q ! Q ! ~ S S S C ) ) ) W A A S R / / I P R W I "
};
