/* XPM */
static char *_36a17f3df274730de881eb6bc156f2dqk8vqfzVeBDsEMsl[] = {
/* columns rows colors chars-per-pixel */
"70 70 12 1 ",
"  c #676767",
". c #686868",
"X c gray43",
"o c #727272",
"O c #747474",
"+ c #7B7B7B",
"@ c #7E7E7E",
"# c #808080",
"$ c #868686",
"% c #888888",
"& c gray56",
"* c #909090",
/* pixels */
"@@@@OOOOOOOOOOOOOOOOOo@@@@&&&&&&&&*... $&&&&@@@@OOOOOOOOOOOOOOOOOO@@@@",
"@@@@OOOOOOOOOOOOOOOOOo@@@@&&&&&&&&*... $&&&&@@@@OOOOOOOOOOOOOOOOOO@@@@",
"@@@@OOOOOOOOOOOOOOOOOo@@@@&&&&&&&&*... $&&&&@@@@OOOOOOOOOOOOOOOOOO@@@@",
"@@@@OOOOOOOOOOOOOOOOOo@@@@&&&&&&&&*... $&&&&@@@@OOOOOOOOOOOOOOOOOO@@@@",
"@@@@@+++@%%%%%%%%%%%%$%%%%@+++++++@oooX$&&&&%%%%%%%%+....+++++++++OOOO",
"@@@@@@@@@&&&&&&&&&&&&&&&&*OOOOOOOOOOOoX$&&&&&&&&&&&*+....@@@@@@@@@OOOO",
"@@@@@@@@@&&&&&&&&&&&&&&&&*OOOOOOOOOOOOX$&&&&&&&&&&&*+....@@@@@@@@@OOOO",
"@@@@@@@@@&&&&&&&&&&&&&&&&*OOOOOOOOOOOOo$&&&&&&&&&&&*+....@@@@@@@@@OOOO",
"@@@@@@@@@&&&&&&&&&&&&&&&&&OOOOOOOOOOOOo$&&&&&&&&&&&&@....@@@@@@@@@OOOO",
"@@@@X... OOOOOOOoX... OOOOOOOOOOOOo&&&*@OOOo@@@@@@@@@@@@@&&&&@@@@@@@@@",
"@@@@X... OOOOOOOoX... OOOOOOOOOOOOo&&&*@OOOo@@@@@@@@@@@@@&&&&@@@@@@@@@",
"@@@@X... OOOOOOOoX... OOOOOOOOOOOOo&&&*@OOOo@@@@@@@@@@@@@&&&&@@@@@@@@@",
"@@@@X... OOOOOOOoX... OOOOOOOOOOOOo&&&*@OOOo@@@@@@@@@@@@@&&&&@@@@@@@@@",
"@@@@%&&&&@@@@@@@@@@@@@... @@@@#&&&&@@@@@@@@#OOOOOOOOOOOOOOOOOOOOOO@@@@",
"@@@@%&&&&@@@@@@@@@@@@@... @@@@#&&&&@@@@@@@@#OOOOOOOOOOOOOOOOOOOOOO@@@@",
"@@@@%&&&&@@@@@@@@@@@@@... @@@@#&&&&@@@@@@@@#OOOOOOOOOOOOOOOOOOOOOO@@@@",
"@@@@%&&&&@@@@@@@@@@@@@... @@@@#&&&&@@@@@@@@#OOOOOOOOOOOOOOOOOOOOOO@@@@",
"@@@@%&&&&$$$$+++++++++XXXX+++++####+++++++++#####################@oooo",
"@@@@%&&&&&&&&OOOOOOOOOOOOOOOOOOOOOOOOOOOOOoo&&&&&&&&&&&&&&&&&&&&&$....",
"@@@@%&&&&&&&&OOOOOOOOOOOOOOOOOOOOOOOOOOOOOoo&&&&&&&&&&&&&&&&&&&&&$....",
"@@@@%&&&&&&&&OOOOOOOOOOOOOOOOOOOOOOOOOOOOOoo&&&&&&&&&&&&&&&&&&&&&$....",
"@@@@%&&&&&&&&OOOOOOOOOOOOOOOOOOOOOOOOOOOOOoo&&&&&&&&&&&&&&&&&&&&&$....",
"OOOOOOOOo@@@@@@@@@@@@@OOOOOOOOOOOOo@@@@X.. .@@@@@@@@+OOOOOOOo... X@@@@",
"OOOOOOOOo@@@@@@@@@@@@@OOOOOOOOOOOOo@@@@X.. .@@@@@@@@+OOOOOOOo... X@@@@",
"OOOOOOOOo@@@@@@@@@@@@@OOOOOOOOOOOOo@@@@X.. .@@@@@@@@+OOOOOOOo... X@@@@",
"OOOOOOOOo@@@@@@@@@@@@@OOOOOOOOOOOOo@@@@X.. .@@@@@@@@+OOOOOOOo... X@@@@",
"&&&&&&&&&@@@@####@@@@@OOOo&&&&&&&&&@@@@@@@@@@@@@@@@@$&&&&&&&&&&&&#....",
"&&&&&&&&&@@@@####@@@@@OOOo&&&&&&&&&@@@@@@@@@@@@@@@@@$&&&&&&&&&&&&$....",
"&&&&&&&&&@@@@####@@@@@OOOo&&&&&&&&&@@@@@@@@@@@@@@@@@$&&&&&&&&&&&&$....",
"&&&&&&&&&@@@@####@@@@@OOOo&&&&&&&&&@@@@@@@@@@@@@@@@@$&&&&&&&&&&&&$....",
"%%%%%%%%%@@@@@@@@@+++@OOOo$%%%%%%%$+++++++++++++++++#%%%%%%%$%%%%#XXXX",
"@@@@@@@@@@@@@OOOOOOOOOOOOOOOOOOOOOOOOOo.... OOOOOOOOOOOOOOOOo@@@@@@@@@",
"@@@@@@@@@@@@@OOOOOOOOOOOOOOOOOOOOOOOOOo.... OOOOOOOOOOOOOOOOo@@@@@@@@@",
"@@@@@@@@@@@@@OOOOOOOOOOOOOOOOOOOOOOOOOo.... OOOOOOOOOOOOOOOOo@@@@@@@@@",
"@@@@@@@@@@@@@OOOOOOOOOOOOOOOOOOOOOOOOOo.... OOOOOOOOOOOOOOOOo@@@@@@@@@",
"@@@@%&&&&&&&&... +&&&*OOOO@@@@@@@@@@@@@%&&&&&&&&&&&&&&&&&&&&&&&&&&&&&&",
"@@@@%&&&&&&&&... +&&&*OOOO@@@@@@@@@@@@@%&&&&&&&&&&&&&&&&&&&&&&&&&&&&&&",
"@@@@%&&&&&&&&... +&&&*OOOO@@@@@@@@@@@@@%&&&*&&&&&&&&&&&&&&&&&&&&&&&&&&",
"@@@@%&&&&&&&&... +&&&*OOOO@@@@@@@@@@@@@%&&&&&&&&&&&&&&&&&&&&&&&&&&&&&&",
"@@@@@++++++++ooooO+++@OOOOOOOO+@@@@XXXX@########+++++++++++++&&&&%####",
"@@@@OOOOOOOOOOOOOOOOOOOOOOOOOOO@@@@.   O@@@@@@@@OOOOOOOOOOOOo&&&&%@@@@",
"@@@@OOOOOOOOOOOOOOOOOOOOOOOOOOO@@@@... O@@@@@@@@OOOOOOOOOOOOo&&&&%@@@@",
"@@@@OOOOOOOOOOOOOOOOOOOOOOOOOOO@@@@... +@@@@@@@@OOOOOOOOOOOOo&&&&%@@@@",
"@@@@OOOOOOOOOOOOOOOOOOOOOOOOOOO@@@@... +@@@@@@@@OOOOOOOOOOOOo&&&&%@@@@",
"@@@@@@@@@&&&&OOOOOOOOo&&&&&&&*%OOOo....oOOoo&&&&&&&&&&&&&@@@@@@@@@@@@@",
"@@@@@@@@@&&&&OOOOOOOOo&&&&&&&*%OOOo....oOOoo&&&&&&&&&&&&&@@@@@@@@@@@@@",
"@@@@@@@@@&&&&OOOOOOOOo&&&&&&&*%OOOo....oOOoo&&&&&&&&&&&&&@@@@@@@@@@@@@",
"@@@@@@@@@&&&&OOOOOOOOo&&&&&&&*%OOOo....oOOoo&&&&&&&&&&&&&@@@@@@@@@@@@@",
"....+@@@@@@@@@@@@+OOOo@@@@@@@@@@@@@&&&&&&&&&@@@@@@@@@@@@@&&&&&&&&$....",
"....+@@@@@@@@@@@@+OOOo@@@@@@@@@@@@@&&&&&&&&&@@@@@@@@@@@@@&&&&&&&&$....",
"....+@@@@@@@@@@@@+OOOo@@@@@@@@@@@@@&&&&&&&&&@@@@@@@@@@@@@&&&&&&&&$....",
"....+@@@@@@@@@@@@+OOOo@@@@@@@@@@@@@&&&&&&&&&@@@@@@@@@@@@@&&&&&&&&$....",
"oooo+++++++++++++OOOOo++++++++++++O&&&&&&&&&+++++++++++++########@oooo",
"@@@@OOOOOOOOOOOOOOOOOOOOOOOOOOOOOOo&&&&&&&&&OOOOOOOOOOOOOOOOOOOOOO@@@@",
"@@@@OOOOOOOOOOOOOOOOOOOOOOOOOOOOOOo&&&&&&&&&OOOOOOOOOOOOOOOOOOOOOO@@@@",
"@@@@OOOOOOOOOOOOOOOOOOOOOOOOOOOOOOo&&&&&&&&&OOOOOOOOOOOOOOOOOOOOOO@@@@",
"@@@@OOOOOOOOOOOOOOOOOOOOOOOOOOOOOOo&&&&&&&&&OOOOOOOOOOOOOOOOOOOOOO@@@@",
"@@@@%&&&&&&&&&&&&&&&&&&&&&@@@@@OOOOOOOOOOOoo... OOOo+@@@@@@@@&&&&&&&&&",
"@@@@%&&&&&&&&&&&&&&&&&&&&&@@@@@OOOOOOOOOOOoo... OOOo+@@@@@@@@&&&&&&&&&",
"@@@@%&&&&&&&&&&&&&&&&&&&&&@@@@@OOOOOOOOOOOoo... OOOo+@@@@@@@@&&&&&&&&&",
"@@@@%&&&&&&&&&&&&&&&&&&&&&@@@@@OOOOOOOOOOOoo... OOOo+@@@@@@@@&&&&&&&&&",
"@@@@@@@@@@@@@OOOOOOOOOOOOOOOOOOOOOo@@@@@@@@@&&&&&&&&$@@@@OOOOOOOOO@@@@",
"@@@@@@@@@@@@@OOOOOOOOOOOOOOOOOOOOOo@@@@@@@@@&&&&&&&&$@@@@OOOOOOOOO@@@@",
"@@@@@@@@@@@@@OOOOOOOOOOOOOOOOOOOOOo@@@@@@@@@&&&&&&&&$@@@@OOOOOOOOO@@@@",
"@@@@@@@@@@@@@OOOOOOOOOOOOOOOOOOOOOo@@@@@@@@@&&&&&&&&$@@@@OOOOOOOOO@@@@",
"+++++++++++++OOOoooooo+++++++++OOOO@@@@@@@@@%%%%%%%$#+++@OOOOOOOO+@@@@",
"OOOOOOOOOOOOOOOOoX... &&&&&&&&%@@@@@@@@@@@@@@@@@OOOOOOOOOOOOo@@@@@@@@@",
"OOOOOOOOOOOOOOOOoX... &&&&&&&&%@@@@@@@@@@@@@@@@@OOOOOOOOOOOOo@@@@@@@@@",
"OOOOOOOOOOOOOOOOoX... &&&&&&&&%@@@@@@@@@@@@@@@@@OOOOOOOOOOOOo@@@@@@@@@",
"OOOOOOOOOOOOOOOOoX... &&&&&&&&%@@@@@@@@@@@@@@@@@OOOOOOOOOOOOo@@@@@@@@@"
};
