/* XPM */
static char *xpm_[] = {
/* columns rows colors chars-per-pixel */
"70 70 111 2 ",
"   c #280712",
".  c #290813",
"X  c #2A0813",
"o  c #2A0915",
"O  c #2B0A15",
"+  c #2B0916",
"@  c #2C0B15",
"#  c #2E0C16",
"$  c #2F0C17",
"%  c #2F0B18",
"&  c #310B1A",
"*  c #310D1B",
"=  c #330C1B",
"-  c #330E1D",
";  c #340D1C",
":  c #360E1E",
">  c #370F1F",
",  c #39101F",
"<  c #3A1021",
"1  c #3B1022",
"2  c #3C1222",
"3  c #3D1324",
"4  c #3F1224",
"5  c #3F1424",
"6  c #401023",
"7  c #421124",
"8  c #421224",
"9  c #441226",
"0  c #401425",
"q  c #411427",
"w  c #431527",
"e  c #471228",
"r  c #431528",
"t  c #441528",
"y  c #461528",
"u  c #46172A",
"i  c #48142A",
"p  c #49142B",
"a  c #4B152A",
"s  c #4A142B",
"d  c #4C162B",
"f  c #48172C",
"g  c #4D172C",
"h  c #4F162E",
"j  c #46182B",
"k  c #47182B",
"l  c #48182A",
"z  c #49182A",
"x  c #4B192E",
"c  c #4B1A2F",
"v  c #4E192E",
"b  c #4F1A2F",
"n  c #50162F",
"m  c #50172F",
"M  c #50182F",
"N  c #4C1930",
"B  c #4D1A30",
"V  c #4F1B31",
"C  c #4F1E33",
"Z  c #4F1E34",
"A  c #511830",
"S  c #511C33",
"D  c #521D33",
"F  c #531D34",
"G  c #551D34",
"H  c #561D35",
"J  c #571D35",
"K  c #561E37",
"L  c #581F37",
"P  c #581E38",
"I  c #591F39",
"U  c #5A1F38",
"Y  c #522037",
"T  c #532038",
"R  c #5B203A",
"E  c #5C2139",
"W  c #5C203B",
"Q  c #5E223B",
"!  c #5A233C",
"~  c #5F233C",
"^  c #5E233D",
"/  c #5C243D",
"(  c #60223C",
")  c #60233C",
"_  c #63233E",
"`  c #63243E",
"'  c #62243F",
"]  c #64243F",
"[  c #602440",
"{  c #642742",
"}  c #692745",
"|  c #662946",
" . c #682845",
".. c #6B2848",
"X. c #6A2B49",
"o. c #6C2B49",
"O. c #6D294A",
"+. c #6D2A4A",
"@. c #6E2A4A",
"#. c #6E2A4B",
"$. c #6D2E4D",
"%. c #6E2E4D",
"&. c #702E4E",
"*. c #702F4E",
"=. c #712F50",
"-. c #713151",
";. c #723152",
":. c #723252",
">. c #723253",
",. c #733253",
"<. c #743354",
/* pixels */
"<.<.<.<. .] ] ] ' H H H H         x #.#.#.#.<.<.<.<.<.<.<.<.,.#.#.#.#.] ] ] ] ( Q Q Q Q U U I I [ _ _ _ X.:.<.<.<.{ ] ] ] ] ] ] ] ] ] ] ] ] ",
"<.<.<.<. .] ] ] ] H H H H         x #.#.#.#.<.<.<.<.<.<.<.<.:.%.#.#.*.] ] ] ] ( Q Q Q Q U U I I { { _ { #.<.<.<.<.{ ] ] ] ] ] ] ] ] ] ] ] ] ",
"<.<.<.<. .] ] ] ' H H H H         z #.#.#.#.,.<.<.<.<.<.,.,.:.#.#.#.#.] ] ] ] ( Q Q Q Q U I I I ] ] _ _ #.>.>.>.<._ ] ] ] ] ] ] ] ] _ { ] ] ",
"<.<.<.<. .] ] ] ] H H H H         b #.#.#.#.,.<.<.<.<.<.,.,.:.#.#.#.#.' ] ] ] ( Q Q Q Q I I I I ] ] ] { #.<.>.>.<.{ ] ] ] ] ] ] ] ] _ [ ] ] ",
"^ ^ ^ ^ ' ] ] ] ( A A A A @ @ @ O Z :.:.:.:.<.<.<.<./ / ! ! ( Q ( ( ( #. .....#.%.%.%.%.%.%.%.*.&.&.&.&...( [ [ ( *.*.:.:.:.*.*.*.*.....} ..",
"H H H H ( ] ] ] ] h h h h # # # @ F :.<.>.<.<.<.<.<.F F F C S T U U U #.*.#.*.:.<.<.<.<.<.<.,.<.<.<.<.<. .U P W Q ,.:.<.:.,.,.:.<.<.#.#.&...",
"H H H H ( ] ] ] ] n h h h # # # # T <.<.<.<.<.<.<.<.H C C A T R I I U ..=.....=.<.<.<.<.<.<.,.,.<.<.<.<. .P U P U :.<.<.<.<.,.<.<.=.#.#...&.",
"H H H H ( ] ] ] ( h h h h # # # # T <.<.<.<.<.>.<.<.S F N T Y R I I J &...#.*.=.<.<.<.<.<.<.:.=.<.<.<.<.| ^ U U U <.<.<.<.<.<.<.<.=.#.#.#...",
"H H H H ( { _ { ] n h h h # # & # T >.>.<.:.>.>.:.:.C C S Y S R I P P #.#.#.#.*.:.:.,.:.:.:.:.:.:.,.:.,.{ E R Q U :.:.>.>.>.>.-.:.*.#.#.#.o.",
"h h h h n A Z S S H H H H 1 1 1 1 e H H H H F F S Y M C S S b h p h p m M Y Y C G H G L h h h h L G L G S Y M Y Z F T A F g n N h h h h h h ",
"h m h d F A S Z S H H H H 1 1 1 1 u H H H H Z Z S S M Y S Y b e e h p S Y b S H G L L G h h h n G G G G G S C M S Z F Z S n n h h h h h h h ",
"h h b b b T S S S H H H H 1 1 1 1 d H H H H S S C Y Y M Y b F z d h p S A C Y H G G G L h h h n G L G G S Y C Y S S S S S g n h h h h n h h ",
"h m m h S S S Z Z H H H H 1 1 1 1 j H H H H C C M S S Y S S C e d e p S Z F A H L G G G n n n n G G L G Y M Y M S Z A C S h d n A n n n h n ",
"@ # # O : 1 1 1 1 . O . O 1 1 1 1 1 1 1 1 1 X O # # # # # # O         @ o O o : 1 1 1 1 1 , 1 1 6 6 2 9 &           X   X # # # # @ + o o @ ",
"# # # # : 1 1 1 1 o . O O 1 1 1 1 1 1 1 1 1 X O X X # # # # @           @ o o : 1 1 1 1 1 1 1 1 2 2 2 7 :               X # # # @ @ o o o o ",
"# # # # : 1 1 1 1 o O O O 1 1 1 1 1 1 1 1 1 # X X X # # # # @         O o o o : 1 1 1 1 1 1 1 1 w w 2 7 &                 # # # @ @ o o o o ",
"# # # # : 2 1 2 1 o o o o 1 1 1 1 1 1 : 1 1 O o X O # # # # #     o o + o + + 1 1 1 1 1 1 1 < 1 1 3 w 2 =                 $ $ $ # @ X O . O ",
"z z z z S H S H H w w w r g g b x x f g g N 3 q 0 8 5 5 5 5 1 & & & % 4 q q q p g f f f p g f m s h b e s s e y y y y y y z z z z z y d r f ",
"{ ] ] ] ..#.#.#.#.Q Q Q ^ Q Q Q ^ Q P R I I I I G Q S T S S x 1 1 1 1 I U I P P I P P R I W I I H H H H U { ] ] _ ] ] ] ] ] ] ] ] ] ] ] ( { ",
"_ _ ] ] ..#.#.#.#.Q Q Q Q Q Q Q Q P U P I I I I E E S S F C x 1 1 1 1 I I I U U P W W P W P I U H H H H U ] ] { _ ] ] ] ] ] ] ] ] ] ] ] { _ ",
"_ _ { [ ..#.#.#...( ( ( ( ( ^ ^ ( U U L I I I I L L S S Y S x 1 1 1 1 P U U U U W P R P U U U P H H H H Q ( _ _ _ _ _ _ ] ] ] ] ] ] ] ] ] ] ",
"{ _ { [ ..#.#.#.&.U U ( ^ ( I I ( U U U I I I I L T S S S S x , 1 1 1 P U J U U P R Z R L L U U H H H H Q { _ { { _ { { ] ] ] ] ] ( ] ] ] ] ",
"U U I I I I U U U { _ { _ U I I U ^ { _ [ [ I I R R Y M S S u       o [ { { [ [ I I ^ U ] ] ] ] #.#.#.#.} _ { _ _ U U U L L G L G Q ] ] ] ] ",
"U U I I I U U U U _ _ _ { U I U U U { [ } [ I I Y Q C Y M Y u         [ [ [ { I I Z P U ] ] ] ] #.#.#.#.} _ _ _ { U U U L G J G G Q ] ] ] ] ",
"U P I I U I I I I [ { { { U U U U U } [ _ { U U U I A S Y b u         _ { _ { U T R T L ] ] ] ] #.#.#.#. .] ] ] _ U L U U J J J G L _ _ _ { ",
"U U I I U U I I I { _ _ ( U U U U ( } [ _ _ U U U U S S S S u         [ _ _ ( U R R R L ] ] ] ( o.#.%.*.} ] ] ( { U L J U J J J H L { _ ] _ ",
"n n n n h h h h h n n n n h h h n n n n n n n s h A S Z T C x , 1 1 1 H H U U J b F N F d d d d G S Y M M h h d s n n n h h n h h b F A J S ",
"n n n n h h h h h n n n h h h h h n n n d n n n h N S P F A x 1 1 1 1 P H J U n C F T b g g d d S S S S M y d e s n n n h h h h h N T Z G A ",
"h h h h h h h h h h n h h h n h h h n h h h n n h h F Z F F x 1 1 1 1 H H H H S S Y S Y d d d d S Y M Y b d e d p h h h h h h h h m Z T S S ",
"h h n m h h h h h h n n h h n n h n n A h h s n h h A C Z Z x 1 1 1 1 F H H H H S S S S d d y d Y M C C h e g d p h h h h h h h h h A F S Z ",
"7 7 9 e e p p p e 7 9 9 9 9 9 9 7 e 9 9 w 9 9 9 w 7 d d u z u : : : : x x p e g r j d 8 7 7 2 7 z j z j w w 7 7 w s e h e e w 9 w w j f f j ",
"o o O o : 1 1 1 1         o o o                     @ @ @ $ @                                   @ X @ X o O O o o 7 4 6 w + o   . O O O O O ",
"+ + @   : 1 1 1 1         o o o o                   # # # # @                                   O o o o o o o o o 1 1 6 w @ o o O O O . O . ",
"o + o @ : 1 1 1 ,         o o o o o                 # # # $ @                                   O O o o + . o o . w w 1 1 o o o O O . O . + ",
"o o     : 1 1 1 1         o o o o   o       o       # # # # @                                   O O o o O O O + O 3 w w 7 @ o o X O X X + O ",
"^ ^ Q ^ %.<.<.<.=._ { _ _ Q Q Q ^ } <.<.>.>.I I U U H H H H R ] [ _ { U U U U U U L U L A Z Z F % # @ O r I P I P [ [ _ [ { [ ( ] ' Q Q W ^ ",
"Q Q Q Q *.<.<.<.<._ { _ _ U ( Q ^ X.,.<.<.<.U I U R H H H H U ] _ _ { J P I I I Y E J Q M C C D @ # # # r R U I U ] ] ] _ _ _ { ] ' Q Q E ) ",
"Q Q Q Q =.<.<.<.,.{ ] _ { ^ ( ^ Q } <.<.<.<.U U U P H H H H P [ _ { { I U I I I E E E L Y D D D # # # # 8 U U U U ] ] ] { _ ] _ ] ( Q Q ( ( ",
"Q Q Q Q *.=.<.<.<.( ] ] [ ( Q ^ ^  .<.<.>.<.P R P P H H H H Q ] { _ { U I I I I E Y E E D D M Y # # # # r R P U U _ ] ] ] ] ] ] ] ' Q Q E ` ",
"Q Q Q Q *.<.<.<.<._ U U U } } X. .*.<.<.>.:.! P U P ! P H U H Y H J J [ ( ( ^ X.%.%.o.o.D C C D # # # # j ^ ^ [ ( } ] ] ] ] ] ] ] ] ( ` ( ` ",
"Q Q Q Q %.<.<.<.,.Q R L R X.#.#.*.*.<.<.<.<.U U P U P W P ! H S S S P ( ] ] ] &.,.<.<.,.M Y D D # # # # z ` ` ` { _ ] ] ] ] ] ] ] ] ] ] ] ] ",
"Q Q Q ^ %.<.<.<.,.G H R U #.#.#.#.*.<.<.<.<.U U P ! U P P P R Z S S A { { _ ] =.,.<.,.,.C D D C # # # # z ` ` ` _ _ ] ] ] ] ] ] ] ] ] ] ] ] ",
"Q Q Q ( %.<.<.<.,.Q E R U #.#.#.*.*.=.<.<.<.U I R P U H P P ! F P A S { _ _ ( *.,.,.,.,.Y D M b # # # # z ` ` ` { ] ] ] ] ] ] ] ] ] ] ' ] ] ",
"Q Q Q U #.:.:.:.*.Y E Q P #.X.#...*.<.=.>.>.I I P U P ! P R F A N Z S _ { ( { %.,.,.,.,.M Y Y Y # # $ $ z ` ` ` ] ] _ _ _ _ _ _ ] ) ] ] ] ` ",
"b Y S Y b h h h M M Y M Z T A Z F N h h A n m S F T x h h h h h A M n G G L H S G Y b Y M Y S S ; ; ; , w Y M C M C M T G s d s d b h S S N ",
"Y S S S n h h h M S S C Z A T S Z m h h n n F S A Z h h h h h h M d n G G G G G S S Y S Y M Y S ; ; - - 0 Y Y D Y S Y M A s a d d z C S Y Y ",
"M Y S S A h h h n M S Y b F F S S S h h h m Z S F Z h h h h h h n n n H G G L L S M S S C Y C Y - - - - y M g D S S S T A a a a d M M C M Y ",
"Y M S S n h h h M C G N Z Z Z S S m h h h m S S A C h h h h h b n h d G L G G M S Y Y S C M C M - - - - w Y Y Y M Y S S S a a a z d Y C Y M ",
"5 7 2 2 % + + + o % # # # @ . + X X X       # # # # & - - - - . + . .       @ # - - ; ; # # # # @ X   @ o o o o o o o o o . . o   X # # # # ",
"5 2 8 7 % O O . O + # # # + o o # X         # # # # - - - - * @ o . @         - - - ; ; # # # # @ @ O @ o o o o o o o o o .       X # # # # ",
"w 3 2 8 % + O O . # # # + o o o X X         # # # # - - - - & X o o @         # - - , = # # # # . + . O . + . O o o o o .         X # # # # ",
"2 5 8 1 % . O   + + # # * o o o X X   X     # # # # - - - - & X o o         X - - - ; = # # # # + . O . + . O O o o o o .       X X # # # # ",
"A A G n A M b b b z j d j Y C C T z y y z z T T C Y j j z x z 5 5 3 5 Z Y b C Y Y Y T T d z z d j r u d x C F Z C 5 5 , 1 1 1 3 1 , # # # # ",
"_ { ] { X.#.#.#.X.] ] ] { :.<.:.,.o.] ] ` ` :.<.<.:.' Q Q Q E J T H H >.<.<.:.,.,.,.<.:.] ] ] ] { [ ] ] #.>.<.<.<.M Y C Z T S C S x # # # # ",
"{ _ { _ X.#.#.#.#._ ] ] { <.<.<.,.o.` ` ` ` ,.<.<.<.^ Q Q Q E G H H H <.<.<.<.<.<.<.<.<.] ] ] ] { ] ] ] %.<.<.<.<.Y M Y b Y S Y S z # # # # ",
"_ _ _ _  .#.#.#.#.] ] ] ] <.<.<.,.%.{ ` ` ` ,.,.<.<.' Q Q Q E Y H H H <.<.<.<.<.<.<.<.:.] ] ] ] _ _ ] ]  .:.<.<.<.C Y b Y S S S F z # # # # ",
"] ] ] ] ..o.@.o.#.' ] ] ] :.,.,.*.o.] ] ] ] ,.,.,.,.( Q Q Q Q L H H U ,.,.<.<.<.*.<.<.*.] ] ] ] ] ] ] ] @.<.<.<.<.M S M Y M Y S A z # # # # ",
"<.<.<.,.] ) ) E ( ] ] ] ] ] ] ] ` ` ) Q Q Q M Y S S ] ] ] ] ( ] [ { _ <.<.<.<.( J J E Y ] ] ] ] <.<.<.<.<.<.<.<.<.Y S S Y y e y e 6 # # # # ",
"<.<.,.,.] ( ) ) Q ] ] ] ] ] ] ] ` ` E ) Q Q S M S Y ] ] ] ] ] ] { { _ <.<.<.<.( G Y J J ] ] ] ] <.<.<.<.<.<.<.<.<.C M C M e e e e 6 # # # # ",
"<.<.,.:.{ ( ) ) Q ] ] ] ] ] ] ] ` ` ) E Q Q S Y Y M ] ] ] ] ] ] _ _ _ <.<.<.<.^ J J J J ] ] ] ] <.<.<.<.<.<.<.<.<.C Y S Y e e e e 6 # # # # ",
"<.*.,.,.] ` ) ) ) ] ' ] ] ] ] ] ` ` ) ) Q Q S b M M ' ] ] ] ] ] ] ] { <.<.<.<.^ J J J J ` ` ] ` <.=.<.<.=.<.<.=.,.M S S M y y 9 w 1 # # @ @ ",
"R R R R Y J M Y E S S S G S Y S Y S M Y S S G R Y Q M M M n M S H S S H U L H H J J J Y M Y S T E Y Y E J Y E J T G E G E S T M Y x # # # % ",
"G J Y G J G G J M T M Y M Y S S Y S Y M S S G G G G d M n d d Y S S S H H H H H J J J J G T S S J J J J Y E J G J J G G E S M Y F j # # # # ",
"J G J G G J G Y E M C S Y M Y S M C C Y M Y R G G G n n n M M S S S S H H H H H J Y M Y T M S M J J J J M R G J G J Y E M Y M S N N # # # # ",
"G J G G H S H H H A F C A F Z Z F N T N A F H H H H n n h n A S F S S H H H H H H H H H F F Z N ! H H H H H H H H H H H H F F N H j # # # # ",
"x b u b b h j b b y j j j x g g N x j x f u x f x u 7 w 9 9 q d z z z N N A N d x x x d j r j j x b j x b e x z g A N m N j u f j 5 # # # # ",
"@ # # # # # # # #         3 3 w 1 - X # o o         O o O O O @ $ # @ 1 2 1 1 % . + . O o o o o O # # # O o O O o 7 w 2 3 O O o O o O # # # ",
"# # # # # # # # #         5 w 2 w # O O o o         O O o O @ # $ @ @ 1 2 1 1 & + . O . o o o o # # # # O o O O   w 1 7 w o o o O O @ # # # ",
"# # # # # # # # $         2 7 2 3 - o o o o       o o o o o O @ @ & @ 1 1 1 1 & o o o o o o o o # # @ @ O O O o   w 1 1 3 @ O O O O # # # # ",
"# # # # # # # # @         w 2 7 2 : o O o o         o @ o o @ @ @ @ & 2 1 1 1 @ o o o o o o o o # # % O @ O o o o 1 6 w w O o O O # # # # # "
};
